<?xml version="1.0" encoding="UTF-8" standalone="no"?>
<!DOCTYPE svg PUBLIC "-//W3C//DTD SVG 1.1//EN"
 "http://www.w3.org/Graphics/SVG/1.1/DTD/svg11.dtd">
<!-- Generated by graphviz version 2.26.3 (20100126.1600)
 -->
<!-- Title: G Pages: 1 -->
<svg width="748pt" height="1862pt"
 viewBox="0.00 0.00 748.00 1862.00" xmlns="http://www.w3.org/2000/svg" xmlns:xlink="http://www.w3.org/1999/xlink">
<g id="graph1" class="graph" transform="scale(1 1) rotate(0) translate(4 1858)">
<title>G</title>
<polygon fill="white" stroke="white" points="-4,5 -4,-1858 745,-1858 745,5 -4,5"/>
<g id="graph2" class="cluster"><title>cluster_global</title>
<polyline fill="none" stroke="gray" points="20,-44 720,-44 "/>
<path fill="none" stroke="gray" d="M720,-44C726,-44 732,-50 732,-56"/>
<polyline fill="none" stroke="gray" points="732,-56 732,-1834 "/>
<path fill="none" stroke="gray" d="M732,-1834C732,-1840 726,-1846 720,-1846"/>
<polyline fill="none" stroke="gray" points="720,-1846 20,-1846 "/>
<path fill="none" stroke="gray" d="M20,-1846C14,-1846 8,-1840 8,-1834"/>
<polyline fill="none" stroke="gray" points="8,-1834 8,-56 "/>
<path fill="none" stroke="gray" d="M8,-56C8,-50 14,-44 20,-44"/>
<text text-anchor="middle" x="370" y="-1832.1" font-family="Times Roman,serif" font-size="11.00" fill="gray">global</text>
</g>
<!-- \\ImagePreload -->
<g id="node2" class="node"><title>\\ImagePreload</title>
<a xlink:href="classes.ImagePreload.class.html" xlink:title="ImagePreload" target="_parent">
<polygon fill="none" stroke="black" points="349,-1330 251,-1330 251,-1294 349,-1294 349,-1330"/>
<text text-anchor="middle" x="300" y="-1309.1" font-family="Courier,monospace" font-size="11.00">ImagePreload</text>
</a>
</g>
<!-- \\GalleryHelper -->
<g id="node36" class="node"><title>\\GalleryHelper</title>
<a xlink:href="classes.GalleryHelper.class.html" xlink:title="«abstract»&lt;br/&gt;GalleryHelper" target="_parent">
<polygon fill="none" stroke="black" points="121,-1357 17,-1357 17,-1321 121,-1321 121,-1357"/>
<text text-anchor="start" x="35" y="-1344.43" font-family="Courier,monospace" font-size="11.00">«abstract»</text>
<text text-anchor="start" x="25" y="-1331.23" font-family="Courier,monospace" font-size="11.00">GalleryHelper</text>
</a>
</g>
<!-- \\ImagePreload&#45;&gt;\\GalleryHelper -->
<g id="edge3" class="edge"><title>\\ImagePreload&#45;&gt;\\GalleryHelper</title>
<path fill="none" stroke="black" d="M250.728,-1317.76C216.089,-1321.81 169.445,-1327.26 132.087,-1331.63"/>
<polygon fill="none" stroke="black" points="131.34,-1328.19 121.814,-1332.83 132.153,-1335.14 131.34,-1328.19"/>
</g>
<!-- \\SpecialOffersSnippetAjax -->
<g id="node3" class="node"><title>\\SpecialOffersSnippetAjax</title>
<a xlink:href="classes.SpecialOffersSnippetAjax.class.html" xlink:title="SpecialOffersSnippetAjax" target="_parent">
<polygon fill="none" stroke="black" points="690,-1816 512,-1816 512,-1780 690,-1780 690,-1816"/>
<text text-anchor="middle" x="601" y="-1795.1" font-family="Courier,monospace" font-size="11.00">SpecialOffersSnippetAjax</text>
</a>
</g>
<!-- \\FeatureWithAssets -->
<g id="node4" class="node"><title>\\FeatureWithAssets</title>
<a xlink:href="classes.FeatureWithAssets.class.html" xlink:title="FeatureWithAssets" target="_parent">
<polygon fill="none" stroke="black" points="666,-1762 536,-1762 536,-1726 666,-1726 666,-1762"/>
<text text-anchor="middle" x="601" y="-1741.1" font-family="Courier,monospace" font-size="11.00">FeatureWithAssets</text>
</a>
</g>
<!-- \\DefaultAssets -->
<g id="node5" class="node"><title>\\DefaultAssets</title>
<a xlink:href="classes.DefaultAssets.class.html" xlink:title="DefaultAssets" target="_parent">
<polygon fill="none" stroke="black" points="352,-1222 248,-1222 248,-1186 352,-1186 352,-1222"/>
<text text-anchor="middle" x="300" y="-1201.1" font-family="Courier,monospace" font-size="11.00">DefaultAssets</text>
</a>
</g>
<!-- \\AjaxImageGenerator -->
<g id="node6" class="node"><title>\\AjaxImageGenerator</title>
<a xlink:href="classes.AjaxImageGenerator.class.html" xlink:title="AjaxImageGenerator" target="_parent">
<polygon fill="none" stroke="black" points="670,-1708 532,-1708 532,-1672 670,-1672 670,-1708"/>
<text text-anchor="middle" x="601" y="-1687.1" font-family="Courier,monospace" font-size="11.00">AjaxImageGenerator</text>
</a>
</g>
<!-- \\TinyMCEExcerptCustomization -->
<g id="node7" class="node"><title>\\TinyMCEExcerptCustomization</title>
<a xlink:href="classes.TinyMCEExcerpt.class.html" xlink:title="TinyMCEExcerptCustomization" target="_parent">
<polygon fill="none" stroke="black" points="700,-1654 502,-1654 502,-1618 700,-1618 700,-1654"/>
<text text-anchor="middle" x="601" y="-1633.1" font-family="Courier,monospace" font-size="11.00">TinyMCEExcerptCustomization</text>
</a>
</g>
<!-- \\OneImageForAll -->
<g id="node8" class="node"><title>\\OneImageForAll</title>
<a xlink:href="classes.OneImageForAll.class.html" xlink:title="OneImageForAll" target="_parent">
<polygon fill="none" stroke="black" points="355,-763 245,-763 245,-727 355,-727 355,-763"/>
<text text-anchor="middle" x="300" y="-742.1" font-family="Courier,monospace" font-size="11.00">OneImageForAll</text>
</a>
</g>
<!-- \\OneImageForAll&#45;&gt;\\GalleryHelper -->
<g id="edge5" class="edge"><title>\\OneImageForAll&#45;&gt;\\GalleryHelper</title>
<path fill="none" stroke="black" d="M244.333,-762.467C225.867,-770.812 206.784,-782.648 194,-799 129.731,-881.205 84.6453,-1211.67 72.3639,-1310.77"/>
<polygon fill="none" stroke="black" points="68.8631,-1310.56 71.1217,-1320.91 75.8113,-1311.41 68.8631,-1310.56"/>
</g>
<!-- \\NewBlogInitializator -->
<g id="node9" class="node"><title>\\NewBlogInitializator</title>
<a xlink:href="classes.NewBlogInitializator.class.html" xlink:title="NewBlogInitializator" target="_parent">
<polygon fill="none" stroke="black" points="677,-1600 525,-1600 525,-1564 677,-1564 677,-1600"/>
<text text-anchor="middle" x="601" y="-1579.1" font-family="Courier,monospace" font-size="11.00">NewBlogInitializator</text>
</a>
</g>
<!-- \\GMapDataRetriever -->
<g id="node10" class="node"><title>\\GMapDataRetriever</title>
<a xlink:href="classes.GMapDataRetriever.class.html" xlink:title="GMapDataRetriever" target="_parent">
<polygon fill="none" stroke="black" points="666,-1546 536,-1546 536,-1510 666,-1510 666,-1546"/>
<text text-anchor="middle" x="601" y="-1525.1" font-family="Courier,monospace" font-size="11.00">GMapDataRetriever</text>
</a>
</g>
<!-- \\LinksManager -->
<g id="node11" class="node"><title>\\LinksManager</title>
<a xlink:href="classes.LinksManager.class.html" xlink:title="LinksManager" target="_parent">
<polygon fill="none" stroke="black" points="650,-1492 552,-1492 552,-1456 650,-1456 650,-1492"/>
<text text-anchor="middle" x="601" y="-1471.1" font-family="Courier,monospace" font-size="11.00">LinksManager</text>
</a>
</g>
<!-- \\SimpleFieldsQuickConfig -->
<g id="node12" class="node"><title>\\SimpleFieldsQuickConfig</title>
<a xlink:href="classes.SimpleFieldsQuickConfig.class.html" xlink:title="SimpleFieldsQuickConfig" target="_parent">
<polygon fill="none" stroke="black" points="687,-1438 515,-1438 515,-1402 687,-1402 687,-1438"/>
<text text-anchor="middle" x="601" y="-1417.1" font-family="Courier,monospace" font-size="11.00">SimpleFieldsQuickConfig</text>
</a>
</g>
<!-- \\DebugUtils -->
<g id="node13" class="node"><title>\\DebugUtils</title>
<a xlink:href="classes.DebugUtils.class.html" xlink:title="DebugUtils" target="_parent">
<polygon fill="none" stroke="black" points="643,-1384 559,-1384 559,-1348 643,-1348 643,-1384"/>
<text text-anchor="middle" x="601" y="-1363.1" font-family="Courier,monospace" font-size="11.00">DebugUtils</text>
</a>
</g>
<!-- \\ForceDownload -->
<g id="node14" class="node"><title>\\ForceDownload</title>
<a xlink:href="classes.ForceDownload.class.html" xlink:title="ForceDownload" target="_parent">
<polygon fill="none" stroke="black" points="653,-1330 549,-1330 549,-1294 653,-1294 653,-1330"/>
<text text-anchor="middle" x="601" y="-1309.1" font-family="Courier,monospace" font-size="11.00">ForceDownload</text>
</a>
</g>
<!-- \\ShowTitleThumbExcerptWalkerNavMenu -->
<g id="node15" class="node"><title>\\ShowTitleThumbExcerptWalkerNavMenu</title>
<a xlink:href="classes.ShowTitleThumbExcerptWalkerNavMenu.class.html" xlink:title="ShowTitleThumbExcerptWalkerNavMenu" target="_parent">
<polygon fill="none" stroke="black" points="724,-250 478,-250 478,-214 724,-214 724,-250"/>
<text text-anchor="middle" x="601" y="-229.1" font-family="Courier,monospace" font-size="11.00">ShowTitleThumbExcerptWalkerNavMenu</text>
</a>
</g>
<!-- \\Walker_Nav_Menu -->
<g id="node48" class="node"><title>\\Walker_Nav_Menu</title>
<ellipse fill="none" stroke="black" cx="300" cy="-18" rx="104.86" ry="18.3848"/>
<text text-anchor="middle" x="300" y="-14.4" font-family="Times Roman,serif" font-size="14.00" fill="gray">\Walker_Nav_Menu</text>
</g>
<!-- \\ShowTitleThumbExcerptWalkerNavMenu&#45;&gt;\\Walker_Nav_Menu -->
<g id="edge7" class="edge"><title>\\ShowTitleThumbExcerptWalkerNavMenu&#45;&gt;\\Walker_Nav_Menu</title>
<path fill="none" stroke="black" d="M491.03,-213.874C486.43,-211.274 482.054,-208.331 478,-205 416.175,-154.211 468.114,-90.4342 406,-40 402.808,-37.4084 399.388,-35.0991 395.802,-33.0427"/>
<polygon fill="none" stroke="black" points="397.09,-29.774 386.58,-28.4355 393.961,-36.0359 397.09,-29.774"/>
</g>
<!-- \\ShortcodeForTabs -->
<g id="node16" class="node"><title>\\ShortcodeForTabs</title>
<a xlink:href="classes.ShortcodeForTabs.class.html" xlink:title="ShortcodeForTabs" target="_parent">
<polygon fill="none" stroke="black" points="663,-1222 539,-1222 539,-1186 663,-1186 663,-1222"/>
<text text-anchor="middle" x="601" y="-1201.1" font-family="Courier,monospace" font-size="11.00">ShortcodeForTabs</text>
</a>
</g>
<!-- \\ThemeUtils -->
<g id="node17" class="node"><title>\\ThemeUtils</title>
<a xlink:href="classes.ThemeUtils.class.html" xlink:title="ThemeUtils" target="_parent">
<polygon fill="none" stroke="black" points="643,-1168 559,-1168 559,-1132 643,-1132 643,-1168"/>
<text text-anchor="middle" x="601" y="-1147.1" font-family="Courier,monospace" font-size="11.00">ThemeUtils</text>
</a>
</g>
<!-- \\ShowcaseSlider -->
<g id="node18" class="node"><title>\\ShowcaseSlider</title>
<a xlink:href="classes.ShowcaseSlider.class.html" xlink:title="ShowcaseSlider" target="_parent">
<polygon fill="none" stroke="black" points="355,-1276 245,-1276 245,-1240 355,-1240 355,-1276"/>
<text text-anchor="middle" x="300" y="-1255.1" font-family="Courier,monospace" font-size="11.00">ShowcaseSlider</text>
</a>
</g>
<!-- \\ShowcaseSlider&#45;&gt;\\GalleryHelper -->
<g id="edge9" class="edge"><title>\\ShowcaseSlider&#45;&gt;\\GalleryHelper</title>
<path fill="none" stroke="black" d="M244.498,-1270.38C228.081,-1274.51 210.177,-1279.48 194,-1285 167.55,-1294.02 138.874,-1306.22 115.667,-1316.75"/>
<polygon fill="none" stroke="black" points="114.041,-1313.64 106.407,-1320.99 116.956,-1320.01 114.041,-1313.64"/>
</g>
<!-- \\MergedSlideshow -->
<g id="node19" class="node"><title>\\MergedSlideshow</title>
<a xlink:href="classes.MergedSlideshow.class.html" xlink:title="MergedSlideshow" target="_parent">
<polygon fill="none" stroke="black" points="660,-736 542,-736 542,-700 660,-700 660,-736"/>
<text text-anchor="middle" x="601" y="-715.1" font-family="Courier,monospace" font-size="11.00">MergedSlideshow</text>
</a>
</g>
<!-- \\MergedSlideshow&#45;&gt;\\OneImageForAll -->
<g id="edge11" class="edge"><title>\\MergedSlideshow&#45;&gt;\\OneImageForAll</title>
<path fill="none" stroke="black" d="M541.891,-723.302C491.251,-727.845 418.393,-734.38 365.887,-739.09"/>
<polygon fill="none" stroke="black" points="365.318,-735.627 355.67,-740.006 365.943,-742.599 365.318,-735.627"/>
</g>
<!-- \\LipsumGenerator -->
<g id="node20" class="node"><title>\\LipsumGenerator</title>
<a xlink:href="classes.LipsumGenerator.class.html" xlink:title="LipsumGenerator" target="_parent">
<polygon fill="none" stroke="black" points="660,-1060 542,-1060 542,-1024 660,-1024 660,-1060"/>
<text text-anchor="middle" x="601" y="-1039.1" font-family="Courier,monospace" font-size="11.00">LipsumGenerator</text>
</a>
</g>
<!-- \\ThemeHelpers -->
<g id="node21" class="node"><title>\\ThemeHelpers</title>
<a xlink:href="classes.ThemeHelpers.class.html" xlink:title="ThemeHelpers" target="_parent">
<polygon fill="none" stroke="black" points="650,-1006 552,-1006 552,-970 650,-970 650,-1006"/>
<text text-anchor="middle" x="601" y="-985.1" font-family="Courier,monospace" font-size="11.00">ThemeHelpers</text>
</a>
</g>
<!-- \\SubstitutionTemplate -->
<g id="node22" class="node"><title>\\SubstitutionTemplate</title>
<a xlink:href="classes.SubstitutionTemplate.class.html" xlink:title="SubstitutionTemplate" target="_parent">
<polygon fill="none" stroke="black" points="677,-952 525,-952 525,-916 677,-916 677,-952"/>
<text text-anchor="middle" x="601" y="-931.1" font-family="Courier,monospace" font-size="11.00">SubstitutionTemplate</text>
</a>
</g>
<!-- \\ClassAutoloader -->
<g id="node23" class="node"><title>\\ClassAutoloader</title>
<a xlink:href="classes.ClassAutoloader.class.html" xlink:title="ClassAutoloader" target="_parent">
<polygon fill="none" stroke="black" points="660,-898 542,-898 542,-862 660,-862 660,-898"/>
<text text-anchor="middle" x="601" y="-877.1" font-family="Courier,monospace" font-size="11.00">ClassAutoloader</text>
</a>
</g>
<!-- \\RemoveSpacesWalkerNavMenu -->
<g id="node24" class="node"><title>\\RemoveSpacesWalkerNavMenu</title>
<a xlink:href="classes.RemoveSpacesWalkerNavMenu.class.html" xlink:title="RemoveSpacesWalkerNavMenu" target="_parent">
<polygon fill="none" stroke="black" points="693,-466 509,-466 509,-430 693,-430 693,-466"/>
<text text-anchor="middle" x="601" y="-445.1" font-family="Courier,monospace" font-size="11.00">RemoveSpacesWalkerNavMenu</text>
</a>
</g>
<!-- \\RemoveSpacesWalkerNavMenu&#45;&gt;\\Walker_Nav_Menu -->
<g id="edge13" class="edge"><title>\\RemoveSpacesWalkerNavMenu&#45;&gt;\\Walker_Nav_Menu</title>
<path fill="none" stroke="black" d="M508.392,-440.275C497.022,-435.904 486.453,-429.705 478,-421 357.943,-297.371 526.763,-162.94 406,-40 403.487,-37.442 400.76,-35.143 397.865,-33.0787"/>
<polygon fill="none" stroke="black" points="399.66,-30.0737 389.298,-27.8623 396.019,-36.0526 399.66,-30.0737"/>
</g>
<!-- \\SpecialOffersSnippet -->
<g id="node25" class="node"><title>\\SpecialOffersSnippet</title>
<a xlink:href="classes.SpecialOffersSnippet.class.html" xlink:title="SpecialOffersSnippet" target="_parent">
<polygon fill="none" stroke="black" points="677,-790 525,-790 525,-754 677,-754 677,-790"/>
<text text-anchor="middle" x="601" y="-769.1" font-family="Courier,monospace" font-size="11.00">SpecialOffersSnippet</text>
</a>
</g>
<!-- \\HashAnchorWalkerNavMenu -->
<g id="node26" class="node"><title>\\HashAnchorWalkerNavMenu</title>
<a xlink:href="classes.HashAnchorWalkerNavMenu.class.html" xlink:title="HashAnchorWalkerNavMenu" target="_parent">
<polygon fill="none" stroke="black" points="687,-412 515,-412 515,-376 687,-376 687,-412"/>
<text text-anchor="middle" x="601" y="-391.1" font-family="Courier,monospace" font-size="11.00">HashAnchorWalkerNavMenu</text>
</a>
</g>
<!-- \\HashAnchorWalkerNavMenu&#45;&gt;\\Walker_Nav_Menu -->
<g id="edge15" class="edge"><title>\\HashAnchorWalkerNavMenu&#45;&gt;\\Walker_Nav_Menu</title>
<path fill="none" stroke="black" d="M514.863,-388.214C501.127,-383.833 488.129,-377.123 478,-367 372.739,-261.806 511.862,-144.59 406,-40 403.38,-37.4118 400.541,-35.0908 397.53,-33.0115"/>
<polygon fill="none" stroke="black" points="399.026,-29.8307 388.634,-27.7696 395.473,-35.8617 399.026,-29.8307"/>
</g>
<!-- \\MinigalleryBigImageWithThumbs -->
<g id="node27" class="node"><title>\\MinigalleryBigImageWithThumbs</title>
<a xlink:href="classes.MinigalleryBigImageWithThumbs.class.html" xlink:title="MinigalleryBigImageWithThumbs" target="_parent">
<polygon fill="none" stroke="black" points="406,-1492 194,-1492 194,-1456 406,-1456 406,-1492"/>
<text text-anchor="middle" x="300" y="-1471.1" font-family="Courier,monospace" font-size="11.00">MinigalleryBigImageWithThumbs</text>
</a>
</g>
<!-- \\MinigalleryBigImageWithThumbs&#45;&gt;\\GalleryHelper -->
<g id="edge17" class="edge"><title>\\MinigalleryBigImageWithThumbs&#45;&gt;\\GalleryHelper</title>
<path fill="none" stroke="black" d="M214.507,-1455.97C207.411,-1453.36 200.482,-1450.38 194,-1447 153.621,-1425.93 115.235,-1389.44 91.9093,-1364.77"/>
<polygon fill="none" stroke="black" points="94.2538,-1362.15 84.8817,-1357.21 89.1269,-1366.91 94.2538,-1362.15"/>
</g>
<!-- \\GeneratorDictionary -->
<g id="node28" class="node"><title>\\GeneratorDictionary</title>
<a xlink:href="classes.GeneratorDictionary.class.html" xlink:title="GeneratorDictionary" target="_parent">
<polygon fill="none" stroke="black" points="372,-844 228,-844 228,-808 372,-808 372,-844"/>
<text text-anchor="middle" x="300" y="-823.1" font-family="Courier,monospace" font-size="11.00">GeneratorDictionary</text>
</a>
</g>
<!-- \\MinigalleryThumbsLinkToBig -->
<g id="node29" class="node"><title>\\MinigalleryThumbsLinkToBig</title>
<a xlink:href="classes.MinigalleryThumbsLinkToBig.class.html" xlink:title="MinigalleryThumbsLinkToBig" target="_parent">
<polygon fill="none" stroke="black" points="396,-1438 204,-1438 204,-1402 396,-1402 396,-1438"/>
<text text-anchor="middle" x="300" y="-1417.1" font-family="Courier,monospace" font-size="11.00">MinigalleryThumbsLinkToBig</text>
</a>
</g>
<!-- \\MinigalleryThumbsLinkToBig&#45;&gt;\\GalleryHelper -->
<g id="edge19" class="edge"><title>\\MinigalleryThumbsLinkToBig&#45;&gt;\\GalleryHelper</title>
<path fill="none" stroke="black" d="M223.149,-1401.96C213.27,-1399.19 203.347,-1396.19 194,-1393 167.55,-1383.98 138.874,-1371.78 115.667,-1361.25"/>
<polygon fill="none" stroke="black" points="116.956,-1357.99 106.407,-1357.01 114.041,-1364.36 116.956,-1357.99"/>
</g>
<!-- \\EscapeRoute -->
<g id="node30" class="node"><title>\\EscapeRoute</title>
<a xlink:href="classes.EscapeRoute.class.html" xlink:title="EscapeRoute" target="_parent">
<polygon fill="none" stroke="black" points="646,-682 556,-682 556,-646 646,-646 646,-682"/>
<text text-anchor="middle" x="601" y="-661.1" font-family="Courier,monospace" font-size="11.00">EscapeRoute</text>
</a>
</g>
<!-- \\DefaultAssetsCDN -->
<g id="node31" class="node"><title>\\DefaultAssetsCDN</title>
<a xlink:href="classes.DefaultAssetsCDN.class.html" xlink:title="DefaultAssetsCDN" target="_parent">
<polygon fill="none" stroke="black" points="663,-1276 539,-1276 539,-1240 663,-1240 663,-1276"/>
<text text-anchor="middle" x="601" y="-1255.1" font-family="Courier,monospace" font-size="11.00">DefaultAssetsCDN</text>
</a>
</g>
<!-- \\DefaultAssetsCDN&#45;&gt;\\DefaultAssets -->
<g id="edge21" class="edge"><title>\\DefaultAssetsCDN&#45;&gt;\\DefaultAssets</title>
<path fill="none" stroke="black" d="M538.267,-1246.75C486.579,-1237.47 413.66,-1224.39 362.136,-1215.15"/>
<polygon fill="none" stroke="black" points="362.59,-1211.67 352.129,-1213.35 361.354,-1218.56 362.59,-1211.67"/>
</g>
<!-- \\GaussianMath -->
<g id="node32" class="node"><title>\\GaussianMath</title>
<a xlink:href="classes.GaussianMath.class.html" xlink:title="GaussianMath" target="_parent">
<polygon fill="none" stroke="black" points="650,-574 552,-574 552,-538 650,-538 650,-574"/>
<text text-anchor="middle" x="601" y="-553.1" font-family="Courier,monospace" font-size="11.00">GaussianMath</text>
</a>
</g>
<!-- \\RuntimeInfos -->
<g id="node33" class="node"><title>\\RuntimeInfos</title>
<a xlink:href="classes.RuntimeInfos.class.html" xlink:title="RuntimeInfos" target="_parent">
<polygon fill="none" stroke="black" points="650,-520 552,-520 552,-484 650,-484 650,-520"/>
<text text-anchor="middle" x="601" y="-499.1" font-family="Courier,monospace" font-size="11.00">RuntimeInfos</text>
</a>
</g>
<!-- \\LevelWalkerNavMenu -->
<g id="node34" class="node"><title>\\LevelWalkerNavMenu</title>
<a xlink:href="classes.LevelWalkerNavMenu.class.html" xlink:title="LevelWalkerNavMenu" target="_parent">
<polygon fill="none" stroke="black" points="670,-628 532,-628 532,-592 670,-592 670,-628"/>
<text text-anchor="middle" x="601" y="-607.1" font-family="Courier,monospace" font-size="11.00">LevelWalkerNavMenu</text>
</a>
</g>
<!-- \\LevelWalkerNavMenu&#45;&gt;\\Walker_Nav_Menu -->
<g id="edge23" class="edge"><title>\\LevelWalkerNavMenu&#45;&gt;\\Walker_Nav_Menu</title>
<path fill="none" stroke="black" d="M531.959,-609.367C511.969,-605.708 491.833,-598.05 478,-583 313.261,-403.761 571.762,-218.294 406,-40 403.632,-37.4535 401.054,-35.1601 398.306,-33.0966"/>
<polygon fill="none" stroke="black" points="399.92,-29.9756 389.602,-27.5725 396.169,-35.886 399.92,-29.9756"/>
</g>
<!-- \\ShowItemExcerptWalkerNavMenu -->
<g id="node35" class="node"><title>\\ShowItemExcerptWalkerNavMenu</title>
<a xlink:href="classes.ShowItemExcerptWalkerNavMenu.class.html" xlink:title="ShowItemExcerptWalkerNavMenu" target="_parent">
<polygon fill="none" stroke="black" points="704,-304 498,-304 498,-268 704,-268 704,-304"/>
<text text-anchor="middle" x="601" y="-283.1" font-family="Courier,monospace" font-size="11.00">ShowItemExcerptWalkerNavMenu</text>
</a>
</g>
<!-- \\ShowItemExcerptWalkerNavMenu&#45;&gt;\\Walker_Nav_Menu -->
<g id="edge25" class="edge"><title>\\ShowItemExcerptWalkerNavMenu&#45;&gt;\\Walker_Nav_Menu</title>
<path fill="none" stroke="black" d="M497.849,-272.287C490.655,-268.721 483.922,-264.349 478,-259 401.967,-190.321 482.425,-108.243 406,-40 403.095,-37.4063 399.967,-35.0884 396.669,-33.0186"/>
<polygon fill="none" stroke="black" points="398.044,-29.783 387.584,-28.1 394.711,-35.9388 398.044,-29.783"/>
</g>
<!-- \\HeadHelper -->
<g id="node37" class="node"><title>\\HeadHelper</title>
<a xlink:href="classes.HeadHelper.class.html" xlink:title="HeadHelper" target="_parent">
<polygon fill="none" stroke="black" points="643,-358 559,-358 559,-322 643,-322 643,-358"/>
<text text-anchor="middle" x="601" y="-337.1" font-family="Courier,monospace" font-size="11.00">HeadHelper</text>
</a>
</g>
<!-- \\HtmlHelper -->
<g id="node38" class="node"><title>\\HtmlHelper</title>
<a xlink:href="classes.HtmlHelper.class.html" xlink:title="HtmlHelper" target="_parent">
<polygon fill="none" stroke="black" points="643,-1114 559,-1114 559,-1078 643,-1078 643,-1114"/>
<text text-anchor="middle" x="601" y="-1093.1" font-family="Courier,monospace" font-size="11.00">HtmlHelper</text>
</a>
</g>
<!-- \\HtmlBuilder -->
<g id="node39" class="node"><title>\\HtmlBuilder</title>
<a xlink:href="classes.HtmlHelper.class.html" xlink:title="HtmlBuilder" target="_parent">
<polygon fill="none" stroke="black" points="345,-1114 255,-1114 255,-1078 345,-1078 345,-1114"/>
<text text-anchor="middle" x="300" y="-1093.1" font-family="Courier,monospace" font-size="11.00">HtmlBuilder</text>
</a>
</g>
<!-- \\HtmlHelper&#45;&gt;\\HtmlBuilder -->
<g id="edge27" class="edge"><title>\\HtmlHelper&#45;&gt;\\HtmlBuilder</title>
<path fill="none" stroke="black" d="M558.83,-1096C505.791,-1096 414.565,-1096 355.794,-1096"/>
<polygon fill="none" stroke="black" points="355.575,-1092.5 345.575,-1096 355.575,-1099.5 355.575,-1092.5"/>
</g>
<!-- \\LoremIpsumDictionary -->
<g id="node40" class="node"><title>\\LoremIpsumDictionary</title>
<a xlink:href="classes.LoremIpsumDictionary.class.html" xlink:title="LoremIpsumDictionary" target="_parent">
<polygon fill="none" stroke="black" points="677,-844 525,-844 525,-808 677,-808 677,-844"/>
<text text-anchor="middle" x="601" y="-823.1" font-family="Courier,monospace" font-size="11.00">LoremIpsumDictionary</text>
</a>
</g>
<!-- \\LoremIpsumDictionary&#45;&gt;\\GeneratorDictionary -->
<g id="edge29" class="edge"><title>\\LoremIpsumDictionary&#45;&gt;\\GeneratorDictionary</title>
<path fill="none" stroke="black" d="M524.656,-826C481.352,-826 427.128,-826 382.801,-826"/>
<polygon fill="none" stroke="black" points="382.633,-822.5 372.633,-826 382.633,-829.5 382.633,-822.5"/>
</g>
<!-- \\ImageGenerator -->
<g id="node41" class="node"><title>\\ImageGenerator</title>
<a xlink:href="classes.ImageGenerator.class.html" xlink:title="ImageGenerator" target="_parent">
<polygon fill="none" stroke="black" points="656,-196 546,-196 546,-160 656,-160 656,-196"/>
<text text-anchor="middle" x="601" y="-175.1" font-family="Courier,monospace" font-size="11.00">ImageGenerator</text>
</a>
</g>
<!-- \\HotelManager -->
<g id="node42" class="node"><title>\\HotelManager</title>
<a xlink:href="classes.HotelManager.class.html" xlink:title="HotelManager" target="_parent">
<polygon fill="none" stroke="black" points="650,-142 552,-142 552,-106 650,-106 650,-142"/>
<text text-anchor="middle" x="601" y="-121.1" font-family="Courier,monospace" font-size="11.00">HotelManager</text>
</a>
</g>
<!-- \\Hotel -->
<g id="node43" class="node"><title>\\Hotel</title>
<a xlink:href="classes.HotelManager.class.html" xlink:title="Hotel" target="_parent">
<polygon fill="none" stroke="black" points="628,-88 574,-88 574,-52 628,-52 628,-88"/>
<text text-anchor="middle" x="601" y="-67.1" font-family="Courier,monospace" font-size="11.00">Hotel</text>
</a>
</g>
<!-- \\PhotogalleryThumbWithFancybox -->
<g id="node44" class="node"><title>\\PhotogalleryThumbWithFancybox</title>
<a xlink:href="classes.PhotogalleryThumbWithFancybox.class.html" xlink:title="PhotogalleryThumbWithFancybox" target="_parent">
<polygon fill="none" stroke="black" points="406,-1384 194,-1384 194,-1348 406,-1348 406,-1384"/>
<text text-anchor="middle" x="300" y="-1363.1" font-family="Courier,monospace" font-size="11.00">PhotogalleryThumbWithFancybox</text>
</a>
</g>
<!-- \\PhotogalleryThumbWithFancybox&#45;&gt;\\GalleryHelper -->
<g id="edge31" class="edge"><title>\\PhotogalleryThumbWithFancybox&#45;&gt;\\GalleryHelper</title>
<path fill="none" stroke="black" d="M193.965,-1353.61C172.651,-1351.12 150.905,-1348.57 131.655,-1346.32"/>
<polygon fill="none" stroke="black" points="131.874,-1342.83 121.535,-1345.14 131.061,-1349.78 131.874,-1342.83"/>
</g>
</g>
</svg>
