<?xml version="1.0" encoding="UTF-8" standalone="no"?>
<!DOCTYPE svg PUBLIC "-//W3C//DTD SVG 1.1//EN"
 "http://www.w3.org/Graphics/SVG/1.1/DTD/svg11.dtd">
<!-- Generated by graphviz version 2.26.3 (20100126.1600)
 -->
<!-- Title: G Pages: 1 -->
<svg width="748pt" height="1916pt"
 viewBox="0.00 0.00 748.00 1916.00" xmlns="http://www.w3.org/2000/svg" xmlns:xlink="http://www.w3.org/1999/xlink">
<g id="graph1" class="graph" transform="scale(1 1) rotate(0) translate(4 1912)">
<title>G</title>
<polygon fill="white" stroke="white" points="-4,5 -4,-1912 745,-1912 745,5 -4,5"/>
<g id="graph2" class="cluster"><title>cluster_global</title>
<polyline fill="none" stroke="gray" points="20,-44 720,-44 "/>
<path fill="none" stroke="gray" d="M720,-44C726,-44 732,-50 732,-56"/>
<polyline fill="none" stroke="gray" points="732,-56 732,-1888 "/>
<path fill="none" stroke="gray" d="M732,-1888C732,-1894 726,-1900 720,-1900"/>
<polyline fill="none" stroke="gray" points="720,-1900 20,-1900 "/>
<path fill="none" stroke="gray" d="M20,-1900C14,-1900 8,-1894 8,-1888"/>
<polyline fill="none" stroke="gray" points="8,-1888 8,-56 "/>
<path fill="none" stroke="gray" d="M8,-56C8,-50 14,-44 20,-44"/>
<text text-anchor="middle" x="370" y="-1886.1" font-family="Times Roman,serif" font-size="11.00" fill="gray">global</text>
</g>
<!-- \\ImagePreload -->
<g id="node2" class="node"><title>\\ImagePreload</title>
<a xlink:href="classes.ImagePreload.class.html" xlink:title="ImagePreload" target="_parent">
<polygon fill="none" stroke="black" points="349,-1384 251,-1384 251,-1348 349,-1348 349,-1384"/>
<text text-anchor="middle" x="300" y="-1363.1" font-family="Courier,monospace" font-size="11.00">ImagePreload</text>
</a>
</g>
<!-- \\GalleryHelper -->
<g id="node37" class="node"><title>\\GalleryHelper</title>
<a xlink:href="classes.GalleryHelper.class.html" xlink:title="«abstract»&lt;br/&gt;GalleryHelper" target="_parent">
<polygon fill="none" stroke="black" points="121,-1411 17,-1411 17,-1375 121,-1375 121,-1411"/>
<text text-anchor="start" x="35" y="-1398.43" font-family="Courier,monospace" font-size="11.00">«abstract»</text>
<text text-anchor="start" x="25" y="-1385.23" font-family="Courier,monospace" font-size="11.00">GalleryHelper</text>
</a>
</g>
<!-- \\ImagePreload&#45;&gt;\\GalleryHelper -->
<g id="edge3" class="edge"><title>\\ImagePreload&#45;&gt;\\GalleryHelper</title>
<path fill="none" stroke="black" d="M250.728,-1371.76C216.089,-1375.81 169.445,-1381.26 132.087,-1385.63"/>
<polygon fill="none" stroke="black" points="131.34,-1382.19 121.814,-1386.83 132.153,-1389.14 131.34,-1382.19"/>
</g>
<!-- \\SpecialOffersSnippetAjax -->
<g id="node3" class="node"><title>\\SpecialOffersSnippetAjax</title>
<a xlink:href="classes.SpecialOffersSnippetAjax.class.html" xlink:title="SpecialOffersSnippetAjax" target="_parent">
<polygon fill="none" stroke="black" points="690,-1870 512,-1870 512,-1834 690,-1834 690,-1870"/>
<text text-anchor="middle" x="601" y="-1849.1" font-family="Courier,monospace" font-size="11.00">SpecialOffersSnippetAjax</text>
</a>
</g>
<!-- \\FeatureWithAssets -->
<g id="node4" class="node"><title>\\FeatureWithAssets</title>
<a xlink:href="classes.FeatureWithAssets.class.html" xlink:title="FeatureWithAssets" target="_parent">
<polygon fill="none" stroke="black" points="666,-1816 536,-1816 536,-1780 666,-1780 666,-1816"/>
<text text-anchor="middle" x="601" y="-1795.1" font-family="Courier,monospace" font-size="11.00">FeatureWithAssets</text>
</a>
</g>
<!-- \\DefaultAssets -->
<g id="node5" class="node"><title>\\DefaultAssets</title>
<a xlink:href="classes.DefaultAssets.class.html" xlink:title="DefaultAssets" target="_parent">
<polygon fill="none" stroke="black" points="352,-1276 248,-1276 248,-1240 352,-1240 352,-1276"/>
<text text-anchor="middle" x="300" y="-1255.1" font-family="Courier,monospace" font-size="11.00">DefaultAssets</text>
</a>
</g>
<!-- \\AjaxImageGenerator -->
<g id="node6" class="node"><title>\\AjaxImageGenerator</title>
<a xlink:href="classes.AjaxImageGenerator.class.html" xlink:title="AjaxImageGenerator" target="_parent">
<polygon fill="none" stroke="black" points="670,-1762 532,-1762 532,-1726 670,-1726 670,-1762"/>
<text text-anchor="middle" x="601" y="-1741.1" font-family="Courier,monospace" font-size="11.00">AjaxImageGenerator</text>
</a>
</g>
<!-- \\TinyMCEExcerptCustomization -->
<g id="node7" class="node"><title>\\TinyMCEExcerptCustomization</title>
<a xlink:href="classes.TinyMCEExcerpt.class.html" xlink:title="TinyMCEExcerptCustomization" target="_parent">
<polygon fill="none" stroke="black" points="700,-1708 502,-1708 502,-1672 700,-1672 700,-1708"/>
<text text-anchor="middle" x="601" y="-1687.1" font-family="Courier,monospace" font-size="11.00">TinyMCEExcerptCustomization</text>
</a>
</g>
<!-- \\OneImageForAll -->
<g id="node8" class="node"><title>\\OneImageForAll</title>
<a xlink:href="classes.OneImageForAll.class.html" xlink:title="OneImageForAll" target="_parent">
<polygon fill="none" stroke="black" points="355,-817 245,-817 245,-781 355,-781 355,-817"/>
<text text-anchor="middle" x="300" y="-796.1" font-family="Courier,monospace" font-size="11.00">OneImageForAll</text>
</a>
</g>
<!-- \\OneImageForAll&#45;&gt;\\GalleryHelper -->
<g id="edge5" class="edge"><title>\\OneImageForAll&#45;&gt;\\GalleryHelper</title>
<path fill="none" stroke="black" d="M244.333,-816.467C225.867,-824.812 206.784,-836.648 194,-853 129.731,-935.205 84.6453,-1265.67 72.3639,-1364.77"/>
<polygon fill="none" stroke="black" points="68.8631,-1364.56 71.1217,-1374.91 75.8113,-1365.41 68.8631,-1364.56"/>
</g>
<!-- \\NewBlogInitializator -->
<g id="node9" class="node"><title>\\NewBlogInitializator</title>
<a xlink:href="classes.NewBlogInitializator.class.html" xlink:title="NewBlogInitializator" target="_parent">
<polygon fill="none" stroke="black" points="677,-1654 525,-1654 525,-1618 677,-1618 677,-1654"/>
<text text-anchor="middle" x="601" y="-1633.1" font-family="Courier,monospace" font-size="11.00">NewBlogInitializator</text>
</a>
</g>
<!-- \\GMapDataRetriever -->
<g id="node10" class="node"><title>\\GMapDataRetriever</title>
<a xlink:href="classes.GMapDataRetriever.class.html" xlink:title="GMapDataRetriever" target="_parent">
<polygon fill="none" stroke="black" points="666,-1600 536,-1600 536,-1564 666,-1564 666,-1600"/>
<text text-anchor="middle" x="601" y="-1579.1" font-family="Courier,monospace" font-size="11.00">GMapDataRetriever</text>
</a>
</g>
<!-- \\LinksManager -->
<g id="node11" class="node"><title>\\LinksManager</title>
<a xlink:href="classes.LinksManager.class.html" xlink:title="LinksManager" target="_parent">
<polygon fill="none" stroke="black" points="650,-1546 552,-1546 552,-1510 650,-1510 650,-1546"/>
<text text-anchor="middle" x="601" y="-1525.1" font-family="Courier,monospace" font-size="11.00">LinksManager</text>
</a>
</g>
<!-- \\SimpleFieldsQuickConfig -->
<g id="node12" class="node"><title>\\SimpleFieldsQuickConfig</title>
<a xlink:href="classes.SimpleFieldsQuickConfig.class.html" xlink:title="SimpleFieldsQuickConfig" target="_parent">
<polygon fill="none" stroke="black" points="687,-1492 515,-1492 515,-1456 687,-1456 687,-1492"/>
<text text-anchor="middle" x="601" y="-1471.1" font-family="Courier,monospace" font-size="11.00">SimpleFieldsQuickConfig</text>
</a>
</g>
<!-- \\DebugUtils -->
<g id="node13" class="node"><title>\\DebugUtils</title>
<a xlink:href="classes.DebugUtils.class.html" xlink:title="DebugUtils" target="_parent">
<polygon fill="none" stroke="black" points="643,-1438 559,-1438 559,-1402 643,-1402 643,-1438"/>
<text text-anchor="middle" x="601" y="-1417.1" font-family="Courier,monospace" font-size="11.00">DebugUtils</text>
</a>
</g>
<!-- \\ForceDownload -->
<g id="node14" class="node"><title>\\ForceDownload</title>
<a xlink:href="classes.ForceDownload.class.html" xlink:title="ForceDownload" target="_parent">
<polygon fill="none" stroke="black" points="653,-1384 549,-1384 549,-1348 653,-1348 653,-1384"/>
<text text-anchor="middle" x="601" y="-1363.1" font-family="Courier,monospace" font-size="11.00">ForceDownload</text>
</a>
</g>
<!-- \\ShowTitleThumbExcerptWalkerNavMenu -->
<g id="node15" class="node"><title>\\ShowTitleThumbExcerptWalkerNavMenu</title>
<a xlink:href="classes.ShowTitleThumbExcerptWalkerNavMenu.class.html" xlink:title="ShowTitleThumbExcerptWalkerNavMenu" target="_parent">
<polygon fill="none" stroke="black" points="724,-682 478,-682 478,-646 724,-646 724,-682"/>
<text text-anchor="middle" x="601" y="-661.1" font-family="Courier,monospace" font-size="11.00">ShowTitleThumbExcerptWalkerNavMenu</text>
</a>
</g>
<!-- \\Walker_Nav_Menu -->
<g id="node49" class="node"><title>\\Walker_Nav_Menu</title>
<ellipse fill="none" stroke="black" cx="300" cy="-18" rx="104.86" ry="18.3848"/>
<text text-anchor="middle" x="300" y="-14.4" font-family="Times Roman,serif" font-size="14.00" fill="gray">\Walker_Nav_Menu</text>
</g>
<!-- \\ShowTitleThumbExcerptWalkerNavMenu&#45;&gt;\\Walker_Nav_Menu -->
<g id="edge7" class="edge"><title>\\ShowTitleThumbExcerptWalkerNavMenu&#45;&gt;\\Walker_Nav_Menu</title>
<path fill="none" stroke="black" d="M487.89,-645.914C484.333,-643.277 481.013,-640.318 478,-637 298.313,-439.166 586.816,-236.803 406,-40 403.648,-37.4395 401.082,-35.1343 398.345,-33.0607"/>
<polygon fill="none" stroke="black" points="399.978,-29.9504 389.668,-27.5113 396.207,-35.8476 399.978,-29.9504"/>
</g>
<!-- \\ShortcodeForTabs -->
<g id="node16" class="node"><title>\\ShortcodeForTabs</title>
<a xlink:href="classes.ShortcodeForTabs.class.html" xlink:title="ShortcodeForTabs" target="_parent">
<polygon fill="none" stroke="black" points="663,-1276 539,-1276 539,-1240 663,-1240 663,-1276"/>
<text text-anchor="middle" x="601" y="-1255.1" font-family="Courier,monospace" font-size="11.00">ShortcodeForTabs</text>
</a>
</g>
<!-- \\ThemeUtils -->
<g id="node17" class="node"><title>\\ThemeUtils</title>
<a xlink:href="classes.ThemeUtils.class.html" xlink:title="ThemeUtils" target="_parent">
<polygon fill="none" stroke="black" points="643,-1222 559,-1222 559,-1186 643,-1186 643,-1222"/>
<text text-anchor="middle" x="601" y="-1201.1" font-family="Courier,monospace" font-size="11.00">ThemeUtils</text>
</a>
</g>
<!-- \\ShowcaseSlider -->
<g id="node18" class="node"><title>\\ShowcaseSlider</title>
<a xlink:href="classes.ShowcaseSlider.class.html" xlink:title="ShowcaseSlider" target="_parent">
<polygon fill="none" stroke="black" points="355,-1330 245,-1330 245,-1294 355,-1294 355,-1330"/>
<text text-anchor="middle" x="300" y="-1309.1" font-family="Courier,monospace" font-size="11.00">ShowcaseSlider</text>
</a>
</g>
<!-- \\ShowcaseSlider&#45;&gt;\\GalleryHelper -->
<g id="edge9" class="edge"><title>\\ShowcaseSlider&#45;&gt;\\GalleryHelper</title>
<path fill="none" stroke="black" d="M244.498,-1324.38C228.081,-1328.51 210.177,-1333.48 194,-1339 167.55,-1348.02 138.874,-1360.22 115.667,-1370.75"/>
<polygon fill="none" stroke="black" points="114.041,-1367.64 106.407,-1374.99 116.956,-1374.01 114.041,-1367.64"/>
</g>
<!-- \\MergedSlideshow -->
<g id="node19" class="node"><title>\\MergedSlideshow</title>
<a xlink:href="classes.MergedSlideshow.class.html" xlink:title="MergedSlideshow" target="_parent">
<polygon fill="none" stroke="black" points="660,-790 542,-790 542,-754 660,-754 660,-790"/>
<text text-anchor="middle" x="601" y="-769.1" font-family="Courier,monospace" font-size="11.00">MergedSlideshow</text>
</a>
</g>
<!-- \\MergedSlideshow&#45;&gt;\\OneImageForAll -->
<g id="edge11" class="edge"><title>\\MergedSlideshow&#45;&gt;\\OneImageForAll</title>
<path fill="none" stroke="black" d="M541.891,-777.302C491.251,-781.845 418.393,-788.38 365.887,-793.09"/>
<polygon fill="none" stroke="black" points="365.318,-789.627 355.67,-794.006 365.943,-796.599 365.318,-789.627"/>
</g>
<!-- \\LipsumGenerator -->
<g id="node20" class="node"><title>\\LipsumGenerator</title>
<a xlink:href="classes.LipsumGenerator.class.html" xlink:title="LipsumGenerator" target="_parent">
<polygon fill="none" stroke="black" points="660,-1114 542,-1114 542,-1078 660,-1078 660,-1114"/>
<text text-anchor="middle" x="601" y="-1093.1" font-family="Courier,monospace" font-size="11.00">LipsumGenerator</text>
</a>
</g>
<!-- \\ThemeHelpers -->
<g id="node21" class="node"><title>\\ThemeHelpers</title>
<a xlink:href="classes.ThemeHelpers.class.html" xlink:title="ThemeHelpers" target="_parent">
<polygon fill="none" stroke="black" points="650,-1060 552,-1060 552,-1024 650,-1024 650,-1060"/>
<text text-anchor="middle" x="601" y="-1039.1" font-family="Courier,monospace" font-size="11.00">ThemeHelpers</text>
</a>
</g>
<!-- \\SubstitutionTemplate -->
<g id="node22" class="node"><title>\\SubstitutionTemplate</title>
<a xlink:href="classes.SubstitutionTemplate.class.html" xlink:title="SubstitutionTemplate" target="_parent">
<polygon fill="none" stroke="black" points="677,-1006 525,-1006 525,-970 677,-970 677,-1006"/>
<text text-anchor="middle" x="601" y="-985.1" font-family="Courier,monospace" font-size="11.00">SubstitutionTemplate</text>
</a>
</g>
<!-- \\ClassAutoloader -->
<g id="node23" class="node"><title>\\ClassAutoloader</title>
<a xlink:href="classes.ClassAutoloader.class.html" xlink:title="ClassAutoloader" target="_parent">
<polygon fill="none" stroke="black" points="660,-952 542,-952 542,-916 660,-916 660,-952"/>
<text text-anchor="middle" x="601" y="-931.1" font-family="Courier,monospace" font-size="11.00">ClassAutoloader</text>
</a>
</g>
<!-- \\RemoveSpacesWalkerNavMenu -->
<g id="node24" class="node"><title>\\RemoveSpacesWalkerNavMenu</title>
<a xlink:href="classes.RemoveSpacesWalkerNavMenu.class.html" xlink:title="RemoveSpacesWalkerNavMenu" target="_parent">
<polygon fill="none" stroke="black" points="693,-412 509,-412 509,-376 693,-376 693,-412"/>
<text text-anchor="middle" x="601" y="-391.1" font-family="Courier,monospace" font-size="11.00">RemoveSpacesWalkerNavMenu</text>
</a>
</g>
<!-- \\RemoveSpacesWalkerNavMenu&#45;&gt;\\Walker_Nav_Menu -->
<g id="edge13" class="edge"><title>\\RemoveSpacesWalkerNavMenu&#45;&gt;\\Walker_Nav_Menu</title>
<path fill="none" stroke="black" d="M508.322,-385.923C497.033,-381.594 486.505,-375.5 478,-367 372.739,-261.806 511.862,-144.59 406,-40 403.38,-37.4118 400.541,-35.0908 397.53,-33.0115"/>
<polygon fill="none" stroke="black" points="399.026,-29.8307 388.634,-27.7696 395.473,-35.8617 399.026,-29.8307"/>
</g>
<!-- \\SpecialOffersSnippet -->
<g id="node25" class="node"><title>\\SpecialOffersSnippet</title>
<a xlink:href="classes.SpecialOffersSnippet.class.html" xlink:title="SpecialOffersSnippet" target="_parent">
<polygon fill="none" stroke="black" points="677,-844 525,-844 525,-808 677,-808 677,-844"/>
<text text-anchor="middle" x="601" y="-823.1" font-family="Courier,monospace" font-size="11.00">SpecialOffersSnippet</text>
</a>
</g>
<!-- \\HashAnchorWalkerNavMenu -->
<g id="node26" class="node"><title>\\HashAnchorWalkerNavMenu</title>
<a xlink:href="classes.HashAnchorWalkerNavMenu.class.html" xlink:title="HashAnchorWalkerNavMenu" target="_parent">
<polygon fill="none" stroke="black" points="687,-304 515,-304 515,-268 687,-268 687,-304"/>
<text text-anchor="middle" x="601" y="-283.1" font-family="Courier,monospace" font-size="11.00">HashAnchorWalkerNavMenu</text>
</a>
</g>
<!-- \\HashAnchorWalkerNavMenu&#45;&gt;\\Walker_Nav_Menu -->
<g id="edge15" class="edge"><title>\\HashAnchorWalkerNavMenu&#45;&gt;\\Walker_Nav_Menu</title>
<path fill="none" stroke="black" d="M514.741,-279.046C501.262,-274.756 488.383,-268.379 478,-259 401.967,-190.321 482.425,-108.243 406,-40 403.095,-37.4063 399.967,-35.0884 396.669,-33.0186"/>
<polygon fill="none" stroke="black" points="398.044,-29.783 387.584,-28.1 394.711,-35.9388 398.044,-29.783"/>
</g>
<!-- \\MinigalleryBigImageWithThumbs -->
<g id="node27" class="node"><title>\\MinigalleryBigImageWithThumbs</title>
<a xlink:href="classes.MinigalleryBigImageWithThumbs.class.html" xlink:title="MinigalleryBigImageWithThumbs" target="_parent">
<polygon fill="none" stroke="black" points="406,-1546 194,-1546 194,-1510 406,-1510 406,-1546"/>
<text text-anchor="middle" x="300" y="-1525.1" font-family="Courier,monospace" font-size="11.00">MinigalleryBigImageWithThumbs</text>
</a>
</g>
<!-- \\MinigalleryBigImageWithThumbs&#45;&gt;\\GalleryHelper -->
<g id="edge17" class="edge"><title>\\MinigalleryBigImageWithThumbs&#45;&gt;\\GalleryHelper</title>
<path fill="none" stroke="black" d="M214.507,-1509.97C207.411,-1507.36 200.482,-1504.38 194,-1501 153.621,-1479.93 115.235,-1443.44 91.9093,-1418.77"/>
<polygon fill="none" stroke="black" points="94.2538,-1416.15 84.8817,-1411.21 89.1269,-1420.91 94.2538,-1416.15"/>
</g>
<!-- \\GeneratorDictionary -->
<g id="node28" class="node"><title>\\GeneratorDictionary</title>
<a xlink:href="classes.GeneratorDictionary.class.html" xlink:title="GeneratorDictionary" target="_parent">
<polygon fill="none" stroke="black" points="372,-898 228,-898 228,-862 372,-862 372,-898"/>
<text text-anchor="middle" x="300" y="-877.1" font-family="Courier,monospace" font-size="11.00">GeneratorDictionary</text>
</a>
</g>
<!-- \\MinigalleryThumbsLinkToBig -->
<g id="node29" class="node"><title>\\MinigalleryThumbsLinkToBig</title>
<a xlink:href="classes.MinigalleryThumbsLinkToBig.class.html" xlink:title="MinigalleryThumbsLinkToBig" target="_parent">
<polygon fill="none" stroke="black" points="396,-1492 204,-1492 204,-1456 396,-1456 396,-1492"/>
<text text-anchor="middle" x="300" y="-1471.1" font-family="Courier,monospace" font-size="11.00">MinigalleryThumbsLinkToBig</text>
</a>
</g>
<!-- \\MinigalleryThumbsLinkToBig&#45;&gt;\\GalleryHelper -->
<g id="edge19" class="edge"><title>\\MinigalleryThumbsLinkToBig&#45;&gt;\\GalleryHelper</title>
<path fill="none" stroke="black" d="M223.149,-1455.96C213.27,-1453.19 203.347,-1450.19 194,-1447 167.55,-1437.98 138.874,-1425.78 115.667,-1415.25"/>
<polygon fill="none" stroke="black" points="116.956,-1411.99 106.407,-1411.01 114.041,-1418.36 116.956,-1411.99"/>
</g>
<!-- \\EscapeRoute -->
<g id="node30" class="node"><title>\\EscapeRoute</title>
<a xlink:href="classes.EscapeRoute.class.html" xlink:title="EscapeRoute" target="_parent">
<polygon fill="none" stroke="black" points="646,-736 556,-736 556,-700 646,-700 646,-736"/>
<text text-anchor="middle" x="601" y="-715.1" font-family="Courier,monospace" font-size="11.00">EscapeRoute</text>
</a>
</g>
<!-- \\DefaultAssetsCDN -->
<g id="node31" class="node"><title>\\DefaultAssetsCDN</title>
<a xlink:href="classes.DefaultAssetsCDN.class.html" xlink:title="DefaultAssetsCDN" target="_parent">
<polygon fill="none" stroke="black" points="663,-1330 539,-1330 539,-1294 663,-1294 663,-1330"/>
<text text-anchor="middle" x="601" y="-1309.1" font-family="Courier,monospace" font-size="11.00">DefaultAssetsCDN</text>
</a>
</g>
<!-- \\DefaultAssetsCDN&#45;&gt;\\DefaultAssets -->
<g id="edge21" class="edge"><title>\\DefaultAssetsCDN&#45;&gt;\\DefaultAssets</title>
<path fill="none" stroke="black" d="M538.267,-1300.75C486.579,-1291.47 413.66,-1278.39 362.136,-1269.15"/>
<polygon fill="none" stroke="black" points="362.59,-1265.67 352.129,-1267.35 361.354,-1272.56 362.59,-1265.67"/>
</g>
<!-- \\GaussianMath -->
<g id="node32" class="node"><title>\\GaussianMath</title>
<a xlink:href="classes.GaussianMath.class.html" xlink:title="GaussianMath" target="_parent">
<polygon fill="none" stroke="black" points="650,-628 552,-628 552,-592 650,-592 650,-628"/>
<text text-anchor="middle" x="601" y="-607.1" font-family="Courier,monospace" font-size="11.00">GaussianMath</text>
</a>
</g>
<!-- \\RuntimeInfos -->
<g id="node33" class="node"><title>\\RuntimeInfos</title>
<a xlink:href="classes.RuntimeInfos.class.html" xlink:title="RuntimeInfos" target="_parent">
<polygon fill="none" stroke="black" points="650,-574 552,-574 552,-538 650,-538 650,-574"/>
<text text-anchor="middle" x="601" y="-553.1" font-family="Courier,monospace" font-size="11.00">RuntimeInfos</text>
</a>
</g>
<!-- \\OffersManager -->
<g id="node34" class="node"><title>\\OffersManager</title>
<a xlink:href="classes.OffersManager.class.html" xlink:title="OffersManager" target="_parent">
<polygon fill="none" stroke="black" points="653,-520 549,-520 549,-484 653,-484 653,-520"/>
<text text-anchor="middle" x="601" y="-499.1" font-family="Courier,monospace" font-size="11.00">OffersManager</text>
</a>
</g>
<!-- \\LevelWalkerNavMenu -->
<g id="node35" class="node"><title>\\LevelWalkerNavMenu</title>
<a xlink:href="classes.LevelWalkerNavMenu.class.html" xlink:title="LevelWalkerNavMenu" target="_parent">
<polygon fill="none" stroke="black" points="670,-466 532,-466 532,-430 670,-430 670,-466"/>
<text text-anchor="middle" x="601" y="-445.1" font-family="Courier,monospace" font-size="11.00">LevelWalkerNavMenu</text>
</a>
</g>
<!-- \\LevelWalkerNavMenu&#45;&gt;\\Walker_Nav_Menu -->
<g id="edge23" class="edge"><title>\\LevelWalkerNavMenu&#45;&gt;\\Walker_Nav_Menu</title>
<path fill="none" stroke="black" d="M531.811,-446.781C512.055,-443.056 492.089,-435.508 478,-421 357.943,-297.371 526.763,-162.94 406,-40 403.487,-37.442 400.76,-35.143 397.865,-33.0787"/>
<polygon fill="none" stroke="black" points="399.66,-30.0737 389.298,-27.8623 396.019,-36.0526 399.66,-30.0737"/>
</g>
<!-- \\ShowItemExcerptWalkerNavMenu -->
<g id="node36" class="node"><title>\\ShowItemExcerptWalkerNavMenu</title>
<a xlink:href="classes.ShowItemExcerptWalkerNavMenu.class.html" xlink:title="ShowItemExcerptWalkerNavMenu" target="_parent">
<polygon fill="none" stroke="black" points="704,-250 498,-250 498,-214 704,-214 704,-250"/>
<text text-anchor="middle" x="601" y="-229.1" font-family="Courier,monospace" font-size="11.00">ShowItemExcerptWalkerNavMenu</text>
</a>
</g>
<!-- \\ShowItemExcerptWalkerNavMenu&#45;&gt;\\Walker_Nav_Menu -->
<g id="edge25" class="edge"><title>\\ShowItemExcerptWalkerNavMenu&#45;&gt;\\Walker_Nav_Menu</title>
<path fill="none" stroke="black" d="M497.787,-217.379C490.696,-214.006 483.997,-209.927 478,-205 416.175,-154.211 468.114,-90.4342 406,-40 402.808,-37.4084 399.388,-35.0991 395.802,-33.0427"/>
<polygon fill="none" stroke="black" points="397.09,-29.774 386.58,-28.4355 393.961,-36.0359 397.09,-29.774"/>
</g>
<!-- \\HeadHelper -->
<g id="node38" class="node"><title>\\HeadHelper</title>
<a xlink:href="classes.HeadHelper.class.html" xlink:title="HeadHelper" target="_parent">
<polygon fill="none" stroke="black" points="643,-358 559,-358 559,-322 643,-322 643,-358"/>
<text text-anchor="middle" x="601" y="-337.1" font-family="Courier,monospace" font-size="11.00">HeadHelper</text>
</a>
</g>
<!-- \\HtmlHelper -->
<g id="node39" class="node"><title>\\HtmlHelper</title>
<a xlink:href="classes.HtmlHelper.class.html" xlink:title="HtmlHelper" target="_parent">
<polygon fill="none" stroke="black" points="643,-1168 559,-1168 559,-1132 643,-1132 643,-1168"/>
<text text-anchor="middle" x="601" y="-1147.1" font-family="Courier,monospace" font-size="11.00">HtmlHelper</text>
</a>
</g>
<!-- \\HtmlBuilder -->
<g id="node40" class="node"><title>\\HtmlBuilder</title>
<a xlink:href="classes.HtmlHelper.class.html" xlink:title="HtmlBuilder" target="_parent">
<polygon fill="none" stroke="black" points="345,-1168 255,-1168 255,-1132 345,-1132 345,-1168"/>
<text text-anchor="middle" x="300" y="-1147.1" font-family="Courier,monospace" font-size="11.00">HtmlBuilder</text>
</a>
</g>
<!-- \\HtmlHelper&#45;&gt;\\HtmlBuilder -->
<g id="edge27" class="edge"><title>\\HtmlHelper&#45;&gt;\\HtmlBuilder</title>
<path fill="none" stroke="black" d="M558.83,-1150C505.791,-1150 414.565,-1150 355.794,-1150"/>
<polygon fill="none" stroke="black" points="355.575,-1146.5 345.575,-1150 355.575,-1153.5 355.575,-1146.5"/>
</g>
<!-- \\LoremIpsumDictionary -->
<g id="node41" class="node"><title>\\LoremIpsumDictionary</title>
<a xlink:href="classes.LoremIpsumDictionary.class.html" xlink:title="LoremIpsumDictionary" target="_parent">
<polygon fill="none" stroke="black" points="677,-898 525,-898 525,-862 677,-862 677,-898"/>
<text text-anchor="middle" x="601" y="-877.1" font-family="Courier,monospace" font-size="11.00">LoremIpsumDictionary</text>
</a>
</g>
<!-- \\LoremIpsumDictionary&#45;&gt;\\GeneratorDictionary -->
<g id="edge29" class="edge"><title>\\LoremIpsumDictionary&#45;&gt;\\GeneratorDictionary</title>
<path fill="none" stroke="black" d="M524.656,-880C481.352,-880 427.128,-880 382.801,-880"/>
<polygon fill="none" stroke="black" points="382.633,-876.5 372.633,-880 382.633,-883.5 382.633,-876.5"/>
</g>
<!-- \\ImageGenerator -->
<g id="node42" class="node"><title>\\ImageGenerator</title>
<a xlink:href="classes.ImageGenerator.class.html" xlink:title="ImageGenerator" target="_parent">
<polygon fill="none" stroke="black" points="656,-196 546,-196 546,-160 656,-160 656,-196"/>
<text text-anchor="middle" x="601" y="-175.1" font-family="Courier,monospace" font-size="11.00">ImageGenerator</text>
</a>
</g>
<!-- \\HotelManager -->
<g id="node43" class="node"><title>\\HotelManager</title>
<a xlink:href="classes.HotelManager.class.html" xlink:title="HotelManager" target="_parent">
<polygon fill="none" stroke="black" points="650,-142 552,-142 552,-106 650,-106 650,-142"/>
<text text-anchor="middle" x="601" y="-121.1" font-family="Courier,monospace" font-size="11.00">HotelManager</text>
</a>
</g>
<!-- \\Hotel -->
<g id="node44" class="node"><title>\\Hotel</title>
<a xlink:href="classes.HotelManager.class.html" xlink:title="Hotel" target="_parent">
<polygon fill="none" stroke="black" points="628,-88 574,-88 574,-52 628,-52 628,-88"/>
<text text-anchor="middle" x="601" y="-67.1" font-family="Courier,monospace" font-size="11.00">Hotel</text>
</a>
</g>
<!-- \\PhotogalleryThumbWithFancybox -->
<g id="node45" class="node"><title>\\PhotogalleryThumbWithFancybox</title>
<a xlink:href="classes.PhotogalleryThumbWithFancybox.class.html" xlink:title="PhotogalleryThumbWithFancybox" target="_parent">
<polygon fill="none" stroke="black" points="406,-1438 194,-1438 194,-1402 406,-1402 406,-1438"/>
<text text-anchor="middle" x="300" y="-1417.1" font-family="Courier,monospace" font-size="11.00">PhotogalleryThumbWithFancybox</text>
</a>
</g>
<!-- \\PhotogalleryThumbWithFancybox&#45;&gt;\\GalleryHelper -->
<g id="edge31" class="edge"><title>\\PhotogalleryThumbWithFancybox&#45;&gt;\\GalleryHelper</title>
<path fill="none" stroke="black" d="M193.965,-1407.61C172.651,-1405.12 150.905,-1402.57 131.655,-1400.32"/>
<polygon fill="none" stroke="black" points="131.874,-1396.83 121.535,-1399.14 131.061,-1403.78 131.874,-1396.83"/>
</g>
</g>
</svg>
