<?xml version="1.0" encoding="UTF-8" standalone="no"?>
<!DOCTYPE svg PUBLIC "-//W3C//DTD SVG 1.1//EN"
 "http://www.w3.org/Graphics/SVG/1.1/DTD/svg11.dtd">
<!-- Generated by graphviz version 2.26.3 (20100126.1600)
 -->
<!-- Title: G Pages: 1 -->
<svg width="952pt" height="1646pt"
 viewBox="0.00 0.00 952.00 1646.00" xmlns="http://www.w3.org/2000/svg" xmlns:xlink="http://www.w3.org/1999/xlink">
<g id="graph1" class="graph" transform="scale(1 1) rotate(0) translate(4 1642)">
<title>G</title>
<polygon fill="white" stroke="white" points="-4,5 -4,-1642 949,-1642 949,5 -4,5"/>
<g id="graph2" class="cluster"><title>cluster_global</title>
<polyline fill="none" stroke="gray" points="20,-44 924,-44 "/>
<path fill="none" stroke="gray" d="M924,-44C930,-44 936,-50 936,-56"/>
<polyline fill="none" stroke="gray" points="936,-56 936,-1618 "/>
<path fill="none" stroke="gray" d="M936,-1618C936,-1624 930,-1630 924,-1630"/>
<polyline fill="none" stroke="gray" points="924,-1630 20,-1630 "/>
<path fill="none" stroke="gray" d="M20,-1630C14,-1630 8,-1624 8,-1618"/>
<polyline fill="none" stroke="gray" points="8,-1618 8,-56 "/>
<path fill="none" stroke="gray" d="M8,-56C8,-50 14,-44 20,-44"/>
<text text-anchor="middle" x="472" y="-1616.1" font-family="Times Roman,serif" font-size="11.00" fill="gray">global</text>
</g>
<!-- \\ImagePreload -->
<g id="node2" class="node"><title>\\ImagePreload</title>
<a xlink:href="classes.ImagePreload.class.html" xlink:title="ImagePreload" target="_parent">
<polygon fill="none" stroke="black" points="553,-830 455,-830 455,-794 553,-794 553,-830"/>
<text text-anchor="middle" x="504" y="-809.1" font-family="Courier,monospace" font-size="11.00">ImagePreload</text>
</a>
</g>
<!-- \\GalleryHelper -->
<g id="node33" class="node"><title>\\GalleryHelper</title>
<a xlink:href="classes.GalleryHelper.class.html" xlink:title="«abstract»&lt;br/&gt;GalleryHelper" target="_parent">
<polygon fill="none" stroke="black" points="325,-830 221,-830 221,-794 325,-794 325,-830"/>
<text text-anchor="start" x="239" y="-817.433" font-family="Courier,monospace" font-size="11.00">«abstract»</text>
<text text-anchor="start" x="229" y="-804.233" font-family="Courier,monospace" font-size="11.00">GalleryHelper</text>
</a>
</g>
<!-- \\ImagePreload&#45;&gt;\\GalleryHelper -->
<g id="edge3" class="edge"><title>\\ImagePreload&#45;&gt;\\GalleryHelper</title>
<path fill="none" stroke="black" d="M454.728,-812C420.089,-812 373.445,-812 336.087,-812"/>
<polygon fill="none" stroke="black" points="335.814,-808.5 325.814,-812 335.814,-815.5 335.814,-808.5"/>
</g>
<!-- \\SpecialOffersSnippetAjax -->
<g id="node3" class="node"><title>\\SpecialOffersSnippetAjax</title>
<a xlink:href="classes.SpecialOffersSnippetAjax.class.html" xlink:title="SpecialOffersSnippetAjax" target="_parent">
<polygon fill="none" stroke="black" points="894,-1600 716,-1600 716,-1564 894,-1564 894,-1600"/>
<text text-anchor="middle" x="805" y="-1579.1" font-family="Courier,monospace" font-size="11.00">SpecialOffersSnippetAjax</text>
</a>
</g>
<!-- \\FeatureWithAssets -->
<g id="node4" class="node"><title>\\FeatureWithAssets</title>
<a xlink:href="classes.FeatureWithAssets.class.html" xlink:title="FeatureWithAssets" target="_parent">
<polygon fill="none" stroke="black" points="147,-830 17,-830 17,-794 147,-794 147,-830"/>
<text text-anchor="middle" x="82" y="-809.1" font-family="Courier,monospace" font-size="11.00">FeatureWithAssets</text>
</a>
</g>
<!-- \\DefaultAssets -->
<g id="node5" class="node"><title>\\DefaultAssets</title>
<a xlink:href="classes.DefaultAssets.class.html" xlink:title="DefaultAssets" target="_parent">
<polygon fill="none" stroke="black" points="556,-776 452,-776 452,-740 556,-740 556,-776"/>
<text text-anchor="middle" x="504" y="-755.1" font-family="Courier,monospace" font-size="11.00">DefaultAssets</text>
</a>
</g>
<!-- \\AjaxImageGenerator -->
<g id="node6" class="node"><title>\\AjaxImageGenerator</title>
<a xlink:href="classes.AjaxImageGenerator.class.html" xlink:title="AjaxImageGenerator" target="_parent">
<polygon fill="none" stroke="black" points="874,-1546 736,-1546 736,-1510 874,-1510 874,-1546"/>
<text text-anchor="middle" x="805" y="-1525.1" font-family="Courier,monospace" font-size="11.00">AjaxImageGenerator</text>
</a>
</g>
<!-- \\TinyMCEExcerptCustomization -->
<g id="node7" class="node"><title>\\TinyMCEExcerptCustomization</title>
<a xlink:href="classes.TinyMCEExcerpt.class.html" xlink:title="TinyMCEExcerptCustomization" target="_parent">
<polygon fill="none" stroke="black" points="904,-1492 706,-1492 706,-1456 904,-1456 904,-1492"/>
<text text-anchor="middle" x="805" y="-1471.1" font-family="Courier,monospace" font-size="11.00">TinyMCEExcerptCustomization</text>
</a>
</g>
<!-- \\OneImageForAll -->
<g id="node8" class="node"><title>\\OneImageForAll</title>
<a xlink:href="classes.OneImageForAll.class.html" xlink:title="OneImageForAll" target="_parent">
<polygon fill="none" stroke="black" points="559,-587 449,-587 449,-551 559,-551 559,-587"/>
<text text-anchor="middle" x="504" y="-566.1" font-family="Courier,monospace" font-size="11.00">OneImageForAll</text>
</a>
</g>
<!-- \\OneImageForAll&#45;&gt;\\GalleryHelper -->
<g id="edge5" class="edge"><title>\\OneImageForAll&#45;&gt;\\GalleryHelper</title>
<path fill="none" stroke="black" d="M448.302,-574.626C430.885,-578.52 412.462,-585.056 398,-596 333.278,-644.977 296.344,-737.939 281.186,-784.286"/>
<polygon fill="none" stroke="black" points="277.804,-783.372 278.118,-793.962 284.477,-785.488 277.804,-783.372"/>
</g>
<!-- \\NewBlogInitializator -->
<g id="node9" class="node"><title>\\NewBlogInitializator</title>
<a xlink:href="classes.NewBlogInitializator.class.html" xlink:title="NewBlogInitializator" target="_parent">
<polygon fill="none" stroke="black" points="881,-1438 729,-1438 729,-1402 881,-1402 881,-1438"/>
<text text-anchor="middle" x="805" y="-1417.1" font-family="Courier,monospace" font-size="11.00">NewBlogInitializator</text>
</a>
</g>
<!-- \\GMapDataRetriever -->
<g id="node10" class="node"><title>\\GMapDataRetriever</title>
<a xlink:href="classes.GMapDataRetriever.class.html" xlink:title="GMapDataRetriever" target="_parent">
<polygon fill="none" stroke="black" points="870,-1384 740,-1384 740,-1348 870,-1348 870,-1384"/>
<text text-anchor="middle" x="805" y="-1363.1" font-family="Courier,monospace" font-size="11.00">GMapDataRetriever</text>
</a>
</g>
<!-- \\SimpleFieldsQuickConfig -->
<g id="node11" class="node"><title>\\SimpleFieldsQuickConfig</title>
<a xlink:href="classes.SimpleFieldsQuickConfig.class.html" xlink:title="SimpleFieldsQuickConfig" target="_parent">
<polygon fill="none" stroke="black" points="891,-1330 719,-1330 719,-1294 891,-1294 891,-1330"/>
<text text-anchor="middle" x="805" y="-1309.1" font-family="Courier,monospace" font-size="11.00">SimpleFieldsQuickConfig</text>
</a>
</g>
<!-- \\DebugUtils -->
<g id="node12" class="node"><title>\\DebugUtils</title>
<a xlink:href="classes.DebugUtils.class.html" xlink:title="DebugUtils" target="_parent">
<polygon fill="none" stroke="black" points="847,-1276 763,-1276 763,-1240 847,-1240 847,-1276"/>
<text text-anchor="middle" x="805" y="-1255.1" font-family="Courier,monospace" font-size="11.00">DebugUtils</text>
</a>
</g>
<!-- \\ForceDownload -->
<g id="node13" class="node"><title>\\ForceDownload</title>
<a xlink:href="classes.ForceDownload.class.html" xlink:title="ForceDownload" target="_parent">
<polygon fill="none" stroke="black" points="857,-1222 753,-1222 753,-1186 857,-1186 857,-1222"/>
<text text-anchor="middle" x="805" y="-1201.1" font-family="Courier,monospace" font-size="11.00">ForceDownload</text>
</a>
</g>
<!-- \\ShowTitleThumbExcerptWalkerNavMenu -->
<g id="node14" class="node"><title>\\ShowTitleThumbExcerptWalkerNavMenu</title>
<a xlink:href="classes.ShowTitleThumbExcerptWalkerNavMenu.class.html" xlink:title="ShowTitleThumbExcerptWalkerNavMenu" target="_parent">
<polygon fill="none" stroke="black" points="928,-412 682,-412 682,-376 928,-376 928,-412"/>
<text text-anchor="middle" x="805" y="-391.1" font-family="Courier,monospace" font-size="11.00">ShowTitleThumbExcerptWalkerNavMenu</text>
</a>
</g>
<!-- \\Walker_Nav_Menu -->
<g id="node44" class="node"><title>\\Walker_Nav_Menu</title>
<ellipse fill="none" stroke="black" cx="504" cy="-18" rx="104.86" ry="18.3848"/>
<text text-anchor="middle" x="504" y="-14.4" font-family="Times Roman,serif" font-size="14.00" fill="gray">\Walker_Nav_Menu</text>
</g>
<!-- \\ShowTitleThumbExcerptWalkerNavMenu&#45;&gt;\\Walker_Nav_Menu -->
<g id="edge7" class="edge"><title>\\ShowTitleThumbExcerptWalkerNavMenu&#45;&gt;\\Walker_Nav_Menu</title>
<path fill="none" stroke="black" d="M692.826,-375.903C688.959,-373.278 685.325,-370.323 682,-367 576.739,-261.806 715.862,-144.59 610,-40 607.38,-37.4118 604.541,-35.0908 601.53,-33.0115"/>
<polygon fill="none" stroke="black" points="603.026,-29.8307 592.634,-27.7696 599.473,-35.8617 603.026,-29.8307"/>
</g>
<!-- \\ShortcodeForTabs -->
<g id="node15" class="node"><title>\\ShortcodeForTabs</title>
<a xlink:href="classes.ShortcodeForTabs.class.html" xlink:title="ShortcodeForTabs" target="_parent">
<polygon fill="none" stroke="black" points="867,-1114 743,-1114 743,-1078 867,-1078 867,-1114"/>
<text text-anchor="middle" x="805" y="-1093.1" font-family="Courier,monospace" font-size="11.00">ShortcodeForTabs</text>
</a>
</g>
<!-- \\ThemeUtils -->
<g id="node16" class="node"><title>\\ThemeUtils</title>
<a xlink:href="classes.ThemeUtils.class.html" xlink:title="ThemeUtils" target="_parent">
<polygon fill="none" stroke="black" points="847,-1060 763,-1060 763,-1024 847,-1024 847,-1060"/>
<text text-anchor="middle" x="805" y="-1039.1" font-family="Courier,monospace" font-size="11.00">ThemeUtils</text>
</a>
</g>
<!-- \\LipsumGenerator -->
<g id="node17" class="node"><title>\\LipsumGenerator</title>
<a xlink:href="classes.LipsumGenerator.class.html" xlink:title="LipsumGenerator" target="_parent">
<polygon fill="none" stroke="black" points="864,-1006 746,-1006 746,-970 864,-970 864,-1006"/>
<text text-anchor="middle" x="805" y="-985.1" font-family="Courier,monospace" font-size="11.00">LipsumGenerator</text>
</a>
</g>
<!-- \\ThemeHelpers -->
<g id="node18" class="node"><title>\\ThemeHelpers</title>
<a xlink:href="classes.ThemeHelpers.class.html" xlink:title="ThemeHelpers" target="_parent">
<polygon fill="none" stroke="black" points="854,-952 756,-952 756,-916 854,-916 854,-952"/>
<text text-anchor="middle" x="805" y="-931.1" font-family="Courier,monospace" font-size="11.00">ThemeHelpers</text>
</a>
</g>
<!-- \\SubstitutionTemplate -->
<g id="node19" class="node"><title>\\SubstitutionTemplate</title>
<a xlink:href="classes.SubstitutionTemplate.class.html" xlink:title="SubstitutionTemplate" target="_parent">
<polygon fill="none" stroke="black" points="881,-898 729,-898 729,-862 881,-862 881,-898"/>
<text text-anchor="middle" x="805" y="-877.1" font-family="Courier,monospace" font-size="11.00">SubstitutionTemplate</text>
</a>
</g>
<!-- \\ClassAutoloader -->
<g id="node20" class="node"><title>\\ClassAutoloader</title>
<a xlink:href="classes.ClassAutoloader.class.html" xlink:title="ClassAutoloader" target="_parent">
<polygon fill="none" stroke="black" points="864,-844 746,-844 746,-808 864,-808 864,-844"/>
<text text-anchor="middle" x="805" y="-823.1" font-family="Courier,monospace" font-size="11.00">ClassAutoloader</text>
</a>
</g>
<!-- \\RemoveSpacesWalkerNavMenu -->
<g id="node21" class="node"><title>\\RemoveSpacesWalkerNavMenu</title>
<a xlink:href="classes.RemoveSpacesWalkerNavMenu.class.html" xlink:title="RemoveSpacesWalkerNavMenu" target="_parent">
<polygon fill="none" stroke="black" points="897,-358 713,-358 713,-322 897,-322 897,-358"/>
<text text-anchor="middle" x="805" y="-337.1" font-family="Courier,monospace" font-size="11.00">RemoveSpacesWalkerNavMenu</text>
</a>
</g>
<!-- \\RemoveSpacesWalkerNavMenu&#45;&gt;\\Walker_Nav_Menu -->
<g id="edge9" class="edge"><title>\\RemoveSpacesWalkerNavMenu&#45;&gt;\\Walker_Nav_Menu</title>
<path fill="none" stroke="black" d="M712.333,-331.479C701.112,-327.207 690.599,-321.247 682,-313 591.437,-226.143 701.059,-126.337 610,-40 607.247,-37.3894 604.268,-35.0537 601.118,-32.9659"/>
<polygon fill="none" stroke="black" points="602.832,-29.9143 592.412,-27.9993 599.363,-35.9945 602.832,-29.9143"/>
</g>
<!-- \\SpecialOffersSnippet -->
<g id="node22" class="node"><title>\\SpecialOffersSnippet</title>
<a xlink:href="classes.SpecialOffersSnippet.class.html" xlink:title="SpecialOffersSnippet" target="_parent">
<polygon fill="none" stroke="black" points="881,-736 729,-736 729,-700 881,-700 881,-736"/>
<text text-anchor="middle" x="805" y="-715.1" font-family="Courier,monospace" font-size="11.00">SpecialOffersSnippet</text>
</a>
</g>
<!-- \\HashAnchorWalkerNavMenu -->
<g id="node23" class="node"><title>\\HashAnchorWalkerNavMenu</title>
<a xlink:href="classes.HashAnchorWalkerNavMenu.class.html" xlink:title="HashAnchorWalkerNavMenu" target="_parent">
<polygon fill="none" stroke="black" points="891,-250 719,-250 719,-214 891,-214 891,-250"/>
<text text-anchor="middle" x="805" y="-229.1" font-family="Courier,monospace" font-size="11.00">HashAnchorWalkerNavMenu</text>
</a>
</g>
<!-- \\HashAnchorWalkerNavMenu&#45;&gt;\\Walker_Nav_Menu -->
<g id="edge11" class="edge"><title>\\HashAnchorWalkerNavMenu&#45;&gt;\\Walker_Nav_Menu</title>
<path fill="none" stroke="black" d="M718.828,-224.009C705.496,-219.818 692.643,-213.743 682,-205 620.175,-154.211 672.114,-90.4342 610,-40 606.808,-37.4084 603.388,-35.0991 599.802,-33.0427"/>
<polygon fill="none" stroke="black" points="601.09,-29.774 590.58,-28.4355 597.961,-36.0359 601.09,-29.774"/>
</g>
<!-- \\MinigalleryBigImageWithThumbs -->
<g id="node24" class="node"><title>\\MinigalleryBigImageWithThumbs</title>
<a xlink:href="classes.MinigalleryBigImageWithThumbs.class.html" xlink:title="MinigalleryBigImageWithThumbs" target="_parent">
<polygon fill="none" stroke="black" points="610,-533 398,-533 398,-497 610,-497 610,-533"/>
<text text-anchor="middle" x="504" y="-512.1" font-family="Courier,monospace" font-size="11.00">MinigalleryBigImageWithThumbs</text>
</a>
</g>
<!-- \\MinigalleryBigImageWithThumbs&#45;&gt;\\GalleryHelper -->
<g id="edge13" class="edge"><title>\\MinigalleryBigImageWithThumbs&#45;&gt;\\GalleryHelper</title>
<path fill="none" stroke="black" d="M411.259,-533.015C406.553,-535.624 402.09,-538.602 398,-542 320.714,-606.219 288.707,-728.745 277.792,-783.883"/>
<polygon fill="none" stroke="black" points="274.303,-783.499 275.883,-793.975 281.181,-784.8 274.303,-783.499"/>
</g>
<!-- \\GeneratorDictionary -->
<g id="node25" class="node"><title>\\GeneratorDictionary</title>
<a xlink:href="classes.GeneratorDictionary.class.html" xlink:title="GeneratorDictionary" target="_parent">
<polygon fill="none" stroke="black" points="576,-641 432,-641 432,-605 576,-605 576,-641"/>
<text text-anchor="middle" x="504" y="-620.1" font-family="Courier,monospace" font-size="11.00">GeneratorDictionary</text>
</a>
</g>
<!-- \\MinigalleryThumbsLinkToBig -->
<g id="node26" class="node"><title>\\MinigalleryThumbsLinkToBig</title>
<a xlink:href="classes.MinigalleryThumbsLinkToBig.class.html" xlink:title="MinigalleryThumbsLinkToBig" target="_parent">
<polygon fill="none" stroke="black" points="600,-938 408,-938 408,-902 600,-902 600,-938"/>
<text text-anchor="middle" x="504" y="-917.1" font-family="Courier,monospace" font-size="11.00">MinigalleryThumbsLinkToBig</text>
</a>
</g>
<!-- \\MinigalleryThumbsLinkToBig&#45;&gt;\\GalleryHelper -->
<g id="edge15" class="edge"><title>\\MinigalleryThumbsLinkToBig&#45;&gt;\\GalleryHelper</title>
<path fill="none" stroke="black" d="M421.787,-901.915C413.626,-899.274 405.569,-896.309 398,-893 363.877,-878.08 328.586,-854.311 304.241,-836.372"/>
<polygon fill="none" stroke="black" points="306.212,-833.476 296.106,-830.294 302.022,-839.084 306.212,-833.476"/>
</g>
<!-- \\EscapeRoute -->
<g id="node27" class="node"><title>\\EscapeRoute</title>
<a xlink:href="classes.EscapeRoute.class.html" xlink:title="EscapeRoute" target="_parent">
<polygon fill="none" stroke="black" points="850,-628 760,-628 760,-592 850,-592 850,-628"/>
<text text-anchor="middle" x="805" y="-607.1" font-family="Courier,monospace" font-size="11.00">EscapeRoute</text>
</a>
</g>
<!-- \\DefaultAssetsCDN -->
<g id="node28" class="node"><title>\\DefaultAssetsCDN</title>
<a xlink:href="classes.DefaultAssetsCDN.class.html" xlink:title="DefaultAssetsCDN" target="_parent">
<polygon fill="none" stroke="black" points="867,-790 743,-790 743,-754 867,-754 867,-790"/>
<text text-anchor="middle" x="805" y="-769.1" font-family="Courier,monospace" font-size="11.00">DefaultAssetsCDN</text>
</a>
</g>
<!-- \\DefaultAssetsCDN&#45;&gt;\\DefaultAssets -->
<g id="edge17" class="edge"><title>\\DefaultAssetsCDN&#45;&gt;\\DefaultAssets</title>
<path fill="none" stroke="black" d="M742.267,-769.082C690.579,-766.678 617.66,-763.287 566.136,-760.89"/>
<polygon fill="none" stroke="black" points="566.281,-757.393 556.129,-760.425 565.956,-764.386 566.281,-757.393"/>
</g>
<!-- \\GaussianMath -->
<g id="node29" class="node"><title>\\GaussianMath</title>
<a xlink:href="classes.GaussianMath.class.html" xlink:title="GaussianMath" target="_parent">
<polygon fill="none" stroke="black" points="854,-520 756,-520 756,-484 854,-484 854,-520"/>
<text text-anchor="middle" x="805" y="-499.1" font-family="Courier,monospace" font-size="11.00">GaussianMath</text>
</a>
</g>
<!-- \\RuntimeInfos -->
<g id="node30" class="node"><title>\\RuntimeInfos</title>
<a xlink:href="classes.RuntimeInfos.class.html" xlink:title="RuntimeInfos" target="_parent">
<polygon fill="none" stroke="black" points="854,-466 756,-466 756,-430 854,-430 854,-466"/>
<text text-anchor="middle" x="805" y="-445.1" font-family="Courier,monospace" font-size="11.00">RuntimeInfos</text>
</a>
</g>
<!-- \\LevelWalkerNavMenu -->
<g id="node31" class="node"><title>\\LevelWalkerNavMenu</title>
<a xlink:href="classes.LevelWalkerNavMenu.class.html" xlink:title="LevelWalkerNavMenu" target="_parent">
<polygon fill="none" stroke="black" points="874,-88 736,-88 736,-52 874,-52 874,-88"/>
<text text-anchor="middle" x="805" y="-67.1" font-family="Courier,monospace" font-size="11.00">LevelWalkerNavMenu</text>
</a>
</g>
<!-- \\LevelWalkerNavMenu&#45;&gt;\\Walker_Nav_Menu -->
<g id="edge19" class="edge"><title>\\LevelWalkerNavMenu&#45;&gt;\\Walker_Nav_Menu</title>
<path fill="none" stroke="black" d="M735.945,-58.0701C692.043,-50.4858 634.91,-40.6156 588.333,-32.5692"/>
<polygon fill="none" stroke="black" points="588.71,-29.0826 578.26,-30.829 587.519,-35.9804 588.71,-29.0826"/>
</g>
<!-- \\ShowItemExcerptWalkerNavMenu -->
<g id="node32" class="node"><title>\\ShowItemExcerptWalkerNavMenu</title>
<a xlink:href="classes.ShowItemExcerptWalkerNavMenu.class.html" xlink:title="ShowItemExcerptWalkerNavMenu" target="_parent">
<polygon fill="none" stroke="black" points="908,-196 702,-196 702,-160 908,-160 908,-196"/>
<text text-anchor="middle" x="805" y="-175.1" font-family="Courier,monospace" font-size="11.00">ShowItemExcerptWalkerNavMenu</text>
</a>
</g>
<!-- \\ShowItemExcerptWalkerNavMenu&#45;&gt;\\Walker_Nav_Menu -->
<g id="edge21" class="edge"><title>\\ShowItemExcerptWalkerNavMenu&#45;&gt;\\Walker_Nav_Menu</title>
<path fill="none" stroke="black" d="M701.719,-161.85C694.768,-158.817 688.111,-155.232 682,-151 633.659,-117.52 658.532,-73.2029 610,-40 606.04,-37.2905 601.815,-34.9026 597.418,-32.7991"/>
<polygon fill="none" stroke="black" points="598.752,-29.5632 588.18,-28.869 596.012,-36.0046 598.752,-29.5632"/>
</g>
<!-- \\GalleryHelper&#45;&gt;\\FeatureWithAssets -->
<g id="edge23" class="edge"><title>\\GalleryHelper&#45;&gt;\\FeatureWithAssets</title>
<path fill="none" stroke="black" d="M220.303,-812C201.04,-812 178.847,-812 157.958,-812"/>
<polygon fill="none" stroke="black" points="157.826,-808.5 147.826,-812 157.826,-815.5 157.826,-808.5"/>
</g>
<!-- \\HeadHelper -->
<g id="node34" class="node"><title>\\HeadHelper</title>
<a xlink:href="classes.HeadHelper.class.html" xlink:title="HeadHelper" target="_parent">
<polygon fill="none" stroke="black" points="847,-304 763,-304 763,-268 847,-268 847,-304"/>
<text text-anchor="middle" x="805" y="-283.1" font-family="Courier,monospace" font-size="11.00">HeadHelper</text>
</a>
</g>
<!-- \\HtmlHelper -->
<g id="node35" class="node"><title>\\HtmlHelper</title>
<a xlink:href="classes.HtmlHelper.class.html" xlink:title="HtmlHelper" target="_parent">
<polygon fill="none" stroke="black" points="847,-682 763,-682 763,-646 847,-646 847,-682"/>
<text text-anchor="middle" x="805" y="-661.1" font-family="Courier,monospace" font-size="11.00">HtmlHelper</text>
</a>
</g>
<!-- \\HtmlBuilder -->
<g id="node36" class="node"><title>\\HtmlBuilder</title>
<a xlink:href="classes.HtmlHelper.class.html" xlink:title="HtmlBuilder" target="_parent">
<polygon fill="none" stroke="black" points="549,-695 459,-695 459,-659 549,-659 549,-695"/>
<text text-anchor="middle" x="504" y="-674.1" font-family="Courier,monospace" font-size="11.00">HtmlBuilder</text>
</a>
</g>
<!-- \\HtmlHelper&#45;&gt;\\HtmlBuilder -->
<g id="edge25" class="edge"><title>\\HtmlHelper&#45;&gt;\\HtmlBuilder</title>
<path fill="none" stroke="black" d="M762.83,-665.821C709.791,-668.112 618.565,-672.052 559.794,-674.59"/>
<polygon fill="none" stroke="black" points="559.414,-671.103 549.575,-675.032 559.716,-678.097 559.414,-671.103"/>
</g>
<!-- \\LoremIpsumDictionary -->
<g id="node37" class="node"><title>\\LoremIpsumDictionary</title>
<a xlink:href="classes.LoremIpsumDictionary.class.html" xlink:title="LoremIpsumDictionary" target="_parent">
<polygon fill="none" stroke="black" points="881,-574 729,-574 729,-538 881,-538 881,-574"/>
<text text-anchor="middle" x="805" y="-553.1" font-family="Courier,monospace" font-size="11.00">LoremIpsumDictionary</text>
</a>
</g>
<!-- \\LoremIpsumDictionary&#45;&gt;\\GeneratorDictionary -->
<g id="edge27" class="edge"><title>\\LoremIpsumDictionary&#45;&gt;\\GeneratorDictionary</title>
<path fill="none" stroke="black" d="M728.876,-572.648C713.362,-576.059 697.153,-579.634 682,-583 650.887,-589.911 616.732,-597.569 586.733,-604.319"/>
<polygon fill="none" stroke="black" points="585.716,-600.96 576.729,-606.571 587.253,-607.789 585.716,-600.96"/>
</g>
<!-- \\ImageGenerator -->
<g id="node38" class="node"><title>\\ImageGenerator</title>
<a xlink:href="classes.ImageGenerator.class.html" xlink:title="ImageGenerator" target="_parent">
<polygon fill="none" stroke="black" points="860,-142 750,-142 750,-106 860,-106 860,-142"/>
<text text-anchor="middle" x="805" y="-121.1" font-family="Courier,monospace" font-size="11.00">ImageGenerator</text>
</a>
</g>
<!-- \\PhotogalleryThumbWithFancybox -->
<g id="node39" class="node"><title>\\PhotogalleryThumbWithFancybox</title>
<a xlink:href="classes.PhotogalleryThumbWithFancybox.class.html" xlink:title="PhotogalleryThumbWithFancybox" target="_parent">
<polygon fill="none" stroke="black" points="610,-884 398,-884 398,-848 610,-848 610,-884"/>
<text text-anchor="middle" x="504" y="-863.1" font-family="Courier,monospace" font-size="11.00">PhotogalleryThumbWithFancybox</text>
</a>
</g>
<!-- \\PhotogalleryThumbWithFancybox&#45;&gt;\\GalleryHelper -->
<g id="edge29" class="edge"><title>\\PhotogalleryThumbWithFancybox&#45;&gt;\\GalleryHelper</title>
<path fill="none" stroke="black" d="M426.759,-847.944C397.205,-841.035 363.884,-833.246 335.835,-826.689"/>
<polygon fill="none" stroke="black" points="336.291,-823.201 325.757,-824.333 334.698,-830.017 336.291,-823.201"/>
</g>
<!-- \\Slideshow -->
<g id="node40" class="node"><title>\\Slideshow</title>
<a xlink:href="partials.slideshow.html" xlink:title="Slideshow" target="_parent">
<polygon fill="none" stroke="black" points="843,-1168 767,-1168 767,-1132 843,-1132 843,-1168"/>
<text text-anchor="middle" x="805" y="-1147.1" font-family="Courier,monospace" font-size="11.00">Slideshow</text>
</a>
</g>
<!-- \\Slideshow&#45;&gt;\\ImagePreload -->
<g id="edge31" class="edge"><title>\\Slideshow&#45;&gt;\\ImagePreload</title>
<path fill="none" stroke="black" d="M766.244,-1151.53C739.21,-1150.46 704.146,-1144.44 682,-1123 588.453,-1032.42 702.024,-931.128 610,-839 597.547,-826.533 580.196,-819.556 563.133,-815.728"/>
<polygon fill="none" stroke="black" points="563.639,-812.261 553.159,-813.82 562.323,-819.137 563.639,-812.261"/>
</g>
</g>
</svg>
