<?xml version="1.0" encoding="UTF-8" standalone="no"?>
<!DOCTYPE svg PUBLIC "-//W3C//DTD SVG 1.1//EN"
 "http://www.w3.org/Graphics/SVG/1.1/DTD/svg11.dtd">
<!-- Generated by graphviz version 2.26.3 (20100126.1600)
 -->
<!-- Title: G Pages: 1 -->
<svg width="748pt" height="2672pt"
 viewBox="0.00 0.00 748.00 2672.00" xmlns="http://www.w3.org/2000/svg" xmlns:xlink="http://www.w3.org/1999/xlink">
<g id="graph1" class="graph" transform="scale(1 1) rotate(0) translate(4 2668)">
<title>G</title>
<polygon fill="white" stroke="white" points="-4,5 -4,-2668 745,-2668 745,5 -4,5"/>
<g id="graph2" class="cluster"><title>cluster_global</title>
<polyline fill="none" stroke="gray" points="20,-98 720,-98 "/>
<path fill="none" stroke="gray" d="M720,-98C726,-98 732,-104 732,-110"/>
<polyline fill="none" stroke="gray" points="732,-110 732,-2644 "/>
<path fill="none" stroke="gray" d="M732,-2644C732,-2650 726,-2656 720,-2656"/>
<polyline fill="none" stroke="gray" points="720,-2656 20,-2656 "/>
<path fill="none" stroke="gray" d="M20,-2656C14,-2656 8,-2650 8,-2644"/>
<polyline fill="none" stroke="gray" points="8,-2644 8,-110 "/>
<path fill="none" stroke="gray" d="M8,-110C8,-104 14,-98 20,-98"/>
<text text-anchor="middle" x="370" y="-2642.1" font-family="Times Roman,serif" font-size="11.00" fill="gray">global</text>
</g>
<!-- \\TwitterOAuth -->
<g id="node2" class="node"><title>\\TwitterOAuth</title>
<a xlink:href="libraries.twitteroauth.twitteroauth.twitteroauth.html" xlink:title="TwitterOAuth" target="_parent">
<polygon fill="none" stroke="black" points="650,-2626 552,-2626 552,-2590 650,-2590 650,-2626"/>
<text text-anchor="middle" x="601" y="-2605.1" font-family="Courier,monospace" font-size="11.00">TwitterOAuth</text>
</a>
</g>
<!-- \\OAuthException -->
<g id="node3" class="node"><title>\\OAuthException</title>
<a xlink:href="libraries.twitteroauth.twitteroauth.OAuth.html" xlink:title="OAuthException" target="_parent">
<polygon fill="none" stroke="black" points="656,-898 546,-898 546,-862 656,-862 656,-898"/>
<text text-anchor="middle" x="601" y="-877.1" font-family="Courier,monospace" font-size="11.00">OAuthException</text>
</a>
</g>
<!-- \\Exception -->
<g id="node62" class="node"><title>\\Exception</title>
<ellipse fill="none" stroke="black" cx="300" cy="-72" rx="62.9325" ry="18.3848"/>
<text text-anchor="middle" x="300" y="-68.4" font-family="Times Roman,serif" font-size="14.00" fill="gray">\Exception</text>
</g>
<!-- \\OAuthException&#45;&gt;\\Exception -->
<g id="edge3" class="edge"><title>\\OAuthException&#45;&gt;\\Exception</title>
<path fill="none" stroke="black" d="M545.33,-881.582C521.18,-879.185 494.666,-871.825 478,-853 365.694,-726.146 519.03,-220.209 406,-94 397.257,-84.2376 385.413,-78.1611 372.806,-74.4869"/>
<polygon fill="none" stroke="black" points="373.598,-71.0776 363.055,-72.1242 371.95,-77.8808 373.598,-71.0776"/>
</g>
<!-- \\OAuthConsumer -->
<g id="node4" class="node"><title>\\OAuthConsumer</title>
<a xlink:href="libraries.twitteroauth.twitteroauth.OAuth.html" xlink:title="OAuthConsumer" target="_parent">
<polygon fill="none" stroke="black" points="653,-2518 549,-2518 549,-2482 653,-2482 653,-2518"/>
<text text-anchor="middle" x="601" y="-2497.1" font-family="Courier,monospace" font-size="11.00">OAuthConsumer</text>
</a>
</g>
<!-- \\OAuthToken -->
<g id="node5" class="node"><title>\\OAuthToken</title>
<a xlink:href="libraries.twitteroauth.twitteroauth.OAuth.html" xlink:title="OAuthToken" target="_parent">
<polygon fill="none" stroke="black" points="643,-2464 559,-2464 559,-2428 643,-2428 643,-2464"/>
<text text-anchor="middle" x="601" y="-2443.1" font-family="Courier,monospace" font-size="11.00">OAuthToken</text>
</a>
</g>
<!-- \\OAuthSignatureMethod -->
<g id="node6" class="node"><title>\\OAuthSignatureMethod</title>
<a xlink:href="libraries.twitteroauth.twitteroauth.OAuth.html" xlink:title="«abstract»&lt;br/&gt;OAuthSignatureMethod" target="_parent">
<polygon fill="none" stroke="black" points="376,-2410 224,-2410 224,-2374 376,-2374 376,-2410"/>
<text text-anchor="start" x="266" y="-2397.43" font-family="Courier,monospace" font-size="11.00">«abstract»</text>
<text text-anchor="start" x="232" y="-2384.23" font-family="Courier,monospace" font-size="11.00">OAuthSignatureMethod</text>
</a>
</g>
<!-- \\OAuthSignatureMethod_HMAC_SHA1 -->
<g id="node7" class="node"><title>\\OAuthSignatureMethod_HMAC_SHA1</title>
<a xlink:href="libraries.twitteroauth.twitteroauth.OAuth.html" xlink:title="OAuthSignatureMethod_HMAC_SHA1" target="_parent">
<polygon fill="none" stroke="black" points="710,-2356 492,-2356 492,-2320 710,-2320 710,-2356"/>
<text text-anchor="middle" x="601" y="-2335.1" font-family="Courier,monospace" font-size="11.00">OAuthSignatureMethod_HMAC_SHA1</text>
</a>
</g>
<!-- \\OAuthSignatureMethod_HMAC_SHA1&#45;&gt;\\OAuthSignatureMethod -->
<g id="edge5" class="edge"><title>\\OAuthSignatureMethod_HMAC_SHA1&#45;&gt;\\OAuthSignatureMethod</title>
<path fill="none" stroke="black" d="M500.353,-2356.06C463.486,-2362.67 422.119,-2370.09 386.589,-2376.47"/>
<polygon fill="none" stroke="black" points="385.956,-2373.02 376.731,-2378.23 387.192,-2379.91 385.956,-2373.02"/>
</g>
<!-- \\OAuthSignatureMethod_PLAINTEXT -->
<g id="node8" class="node"><title>\\OAuthSignatureMethod_PLAINTEXT</title>
<a xlink:href="libraries.twitteroauth.twitteroauth.OAuth.html" xlink:title="OAuthSignatureMethod_PLAINTEXT" target="_parent">
<polygon fill="none" stroke="black" points="710,-2572 492,-2572 492,-2536 710,-2536 710,-2572"/>
<text text-anchor="middle" x="601" y="-2551.1" font-family="Courier,monospace" font-size="11.00">OAuthSignatureMethod_PLAINTEXT</text>
</a>
</g>
<!-- \\OAuthSignatureMethod_PLAINTEXT&#45;&gt;\\OAuthSignatureMethod -->
<g id="edge7" class="edge"><title>\\OAuthSignatureMethod_PLAINTEXT&#45;&gt;\\OAuthSignatureMethod</title>
<path fill="none" stroke="black" d="M501.09,-2535.97C493.135,-2533.36 485.344,-2530.39 478,-2527 417.689,-2499.16 358.405,-2448.15 325.769,-2417.43"/>
<polygon fill="none" stroke="black" points="328.102,-2414.82 318.447,-2410.45 323.274,-2419.88 328.102,-2414.82"/>
</g>
<!-- \\OAuthSignatureMethod_RSA_SHA1 -->
<g id="node9" class="node"><title>\\OAuthSignatureMethod_RSA_SHA1</title>
<a xlink:href="libraries.twitteroauth.twitteroauth.OAuth.html" xlink:title="«abstract»&lt;br/&gt;OAuthSignatureMethod_RSA_SHA1" target="_parent">
<polygon fill="none" stroke="black" points="707,-2410 495,-2410 495,-2374 707,-2374 707,-2410"/>
<text text-anchor="start" x="567" y="-2397.43" font-family="Courier,monospace" font-size="11.00">«abstract»</text>
<text text-anchor="start" x="503" y="-2384.23" font-family="Courier,monospace" font-size="11.00">OAuthSignatureMethod_RSA_SHA1</text>
</a>
</g>
<!-- \\OAuthSignatureMethod_RSA_SHA1&#45;&gt;\\OAuthSignatureMethod -->
<g id="edge9" class="edge"><title>\\OAuthSignatureMethod_RSA_SHA1&#45;&gt;\\OAuthSignatureMethod</title>
<path fill="none" stroke="black" d="M494.455,-2392C459.205,-2392 420.428,-2392 386.837,-2392"/>
<polygon fill="none" stroke="black" points="386.589,-2388.5 376.589,-2392 386.589,-2395.5 386.589,-2388.5"/>
</g>
<!-- \\OAuthRequest -->
<g id="node10" class="node"><title>\\OAuthRequest</title>
<a xlink:href="libraries.twitteroauth.twitteroauth.OAuth.html" xlink:title="OAuthRequest" target="_parent">
<polygon fill="none" stroke="black" points="650,-2248 552,-2248 552,-2212 650,-2212 650,-2248"/>
<text text-anchor="middle" x="601" y="-2227.1" font-family="Courier,monospace" font-size="11.00">OAuthRequest</text>
</a>
</g>
<!-- \\OAuthServer -->
<g id="node11" class="node"><title>\\OAuthServer</title>
<a xlink:href="libraries.twitteroauth.twitteroauth.OAuth.html" xlink:title="OAuthServer" target="_parent">
<polygon fill="none" stroke="black" points="646,-2194 556,-2194 556,-2158 646,-2158 646,-2194"/>
<text text-anchor="middle" x="601" y="-2173.1" font-family="Courier,monospace" font-size="11.00">OAuthServer</text>
</a>
</g>
<!-- \\OAuthDataStore -->
<g id="node12" class="node"><title>\\OAuthDataStore</title>
<a xlink:href="libraries.twitteroauth.twitteroauth.OAuth.html" xlink:title="OAuthDataStore" target="_parent">
<polygon fill="none" stroke="black" points="656,-2140 546,-2140 546,-2104 656,-2104 656,-2140"/>
<text text-anchor="middle" x="601" y="-2119.1" font-family="Courier,monospace" font-size="11.00">OAuthDataStore</text>
</a>
</g>
<!-- \\OAuthUtil -->
<g id="node13" class="node"><title>\\OAuthUtil</title>
<a xlink:href="libraries.twitteroauth.twitteroauth.OAuth.html" xlink:title="OAuthUtil" target="_parent">
<polygon fill="none" stroke="black" points="639,-2086 563,-2086 563,-2050 639,-2050 639,-2086"/>
<text text-anchor="middle" x="601" y="-2065.1" font-family="Courier,monospace" font-size="11.00">OAuthUtil</text>
</a>
</g>
<!-- \\ImagePreload -->
<g id="node14" class="node"><title>\\ImagePreload</title>
<a xlink:href="classes.ImagePreload.class.html" xlink:title="ImagePreload" target="_parent">
<polygon fill="none" stroke="black" points="349,-1722 251,-1722 251,-1686 349,-1686 349,-1722"/>
<text text-anchor="middle" x="300" y="-1701.1" font-family="Courier,monospace" font-size="11.00">ImagePreload</text>
</a>
</g>
<!-- \\GalleryHelper -->
<g id="node52" class="node"><title>\\GalleryHelper</title>
<a xlink:href="classes.GalleryHelper.class.html" xlink:title="«abstract»&lt;br/&gt;GalleryHelper" target="_parent">
<polygon fill="none" stroke="black" points="121,-1776 17,-1776 17,-1740 121,-1740 121,-1776"/>
<text text-anchor="start" x="35" y="-1763.43" font-family="Courier,monospace" font-size="11.00">«abstract»</text>
<text text-anchor="start" x="25" y="-1750.23" font-family="Courier,monospace" font-size="11.00">GalleryHelper</text>
</a>
</g>
<!-- \\ImagePreload&#45;&gt;\\GalleryHelper -->
<g id="edge11" class="edge"><title>\\ImagePreload&#45;&gt;\\GalleryHelper</title>
<path fill="none" stroke="black" d="M250.728,-1715.52C215.941,-1723.65 169.046,-1734.61 131.609,-1743.36"/>
<polygon fill="none" stroke="black" points="130.755,-1739.97 121.814,-1745.65 132.348,-1746.79 130.755,-1739.97"/>
</g>
<!-- \\SpecialOffersSnippetAjax -->
<g id="node15" class="node"><title>\\SpecialOffersSnippetAjax</title>
<a xlink:href="classes.SpecialOffersSnippetAjax.class.html" xlink:title="SpecialOffersSnippetAjax" target="_parent">
<polygon fill="none" stroke="black" points="690,-2032 512,-2032 512,-1996 690,-1996 690,-2032"/>
<text text-anchor="middle" x="601" y="-2011.1" font-family="Courier,monospace" font-size="11.00">SpecialOffersSnippetAjax</text>
</a>
</g>
<!-- \\FeatureWithAssets -->
<g id="node16" class="node"><title>\\FeatureWithAssets</title>
<a xlink:href="classes.FeatureWithAssets.class.html" xlink:title="FeatureWithAssets" target="_parent">
<polygon fill="none" stroke="black" points="666,-1978 536,-1978 536,-1942 666,-1942 666,-1978"/>
<text text-anchor="middle" x="601" y="-1957.1" font-family="Courier,monospace" font-size="11.00">FeatureWithAssets</text>
</a>
</g>
<!-- \\DefaultAssets -->
<g id="node17" class="node"><title>\\DefaultAssets</title>
<a xlink:href="classes.DefaultAssets.class.html" xlink:title="DefaultAssets" target="_parent">
<polygon fill="none" stroke="black" points="352,-1492 248,-1492 248,-1456 352,-1456 352,-1492"/>
<text text-anchor="middle" x="300" y="-1471.1" font-family="Courier,monospace" font-size="11.00">DefaultAssets</text>
</a>
</g>
<!-- \\AjaxImageGenerator -->
<g id="node18" class="node"><title>\\AjaxImageGenerator</title>
<a xlink:href="classes.AjaxImageGenerator.class.html" xlink:title="AjaxImageGenerator" target="_parent">
<polygon fill="none" stroke="black" points="670,-1924 532,-1924 532,-1888 670,-1888 670,-1924"/>
<text text-anchor="middle" x="601" y="-1903.1" font-family="Courier,monospace" font-size="11.00">AjaxImageGenerator</text>
</a>
</g>
<!-- \\TinyMCEExcerptCustomization -->
<g id="node19" class="node"><title>\\TinyMCEExcerptCustomization</title>
<a xlink:href="classes.TinyMCEExcerpt.class.html" xlink:title="TinyMCEExcerptCustomization" target="_parent">
<polygon fill="none" stroke="black" points="700,-1870 502,-1870 502,-1834 700,-1834 700,-1870"/>
<text text-anchor="middle" x="601" y="-1849.1" font-family="Courier,monospace" font-size="11.00">TinyMCEExcerptCustomization</text>
</a>
</g>
<!-- \\OneImageForAll -->
<g id="node20" class="node"><title>\\OneImageForAll</title>
<a xlink:href="classes.OneImageForAll.class.html" xlink:title="OneImageForAll" target="_parent">
<polygon fill="none" stroke="black" points="355,-2181 245,-2181 245,-2145 355,-2145 355,-2181"/>
<text text-anchor="middle" x="300" y="-2160.1" font-family="Courier,monospace" font-size="11.00">OneImageForAll</text>
</a>
</g>
<!-- \\OneImageForAll&#45;&gt;\\GalleryHelper -->
<g id="edge13" class="edge"><title>\\OneImageForAll&#45;&gt;\\GalleryHelper</title>
<path fill="none" stroke="black" d="M289.626,-2144.81C252.835,-2080.31 128.462,-1862.25 84.5283,-1785.22"/>
<polygon fill="none" stroke="black" points="87.3405,-1783.09 79.3458,-1776.14 81.26,-1786.56 87.3405,-1783.09"/>
</g>
<!-- \\NewBlogInitializator -->
<g id="node21" class="node"><title>\\NewBlogInitializator</title>
<a xlink:href="classes.NewBlogInitializator.class.html" xlink:title="NewBlogInitializator" target="_parent">
<polygon fill="none" stroke="black" points="677,-1816 525,-1816 525,-1780 677,-1780 677,-1816"/>
<text text-anchor="middle" x="601" y="-1795.1" font-family="Courier,monospace" font-size="11.00">NewBlogInitializator</text>
</a>
</g>
<!-- \\GMapDataRetriever -->
<g id="node22" class="node"><title>\\GMapDataRetriever</title>
<a xlink:href="classes.GMapDataRetriever.class.html" xlink:title="GMapDataRetriever" target="_parent">
<polygon fill="none" stroke="black" points="666,-1762 536,-1762 536,-1726 666,-1726 666,-1762"/>
<text text-anchor="middle" x="601" y="-1741.1" font-family="Courier,monospace" font-size="11.00">GMapDataRetriever</text>
</a>
</g>
<!-- \\LinksManager -->
<g id="node23" class="node"><title>\\LinksManager</title>
<a xlink:href="classes.LinksManager.class.html" xlink:title="LinksManager" target="_parent">
<polygon fill="none" stroke="black" points="650,-1708 552,-1708 552,-1672 650,-1672 650,-1708"/>
<text text-anchor="middle" x="601" y="-1687.1" font-family="Courier,monospace" font-size="11.00">LinksManager</text>
</a>
</g>
<!-- \\SimpleFieldsQuickConfig -->
<g id="node24" class="node"><title>\\SimpleFieldsQuickConfig</title>
<a xlink:href="classes.SimpleFieldsQuickConfig.class.html" xlink:title="SimpleFieldsQuickConfig" target="_parent">
<polygon fill="none" stroke="black" points="687,-1654 515,-1654 515,-1618 687,-1618 687,-1654"/>
<text text-anchor="middle" x="601" y="-1633.1" font-family="Courier,monospace" font-size="11.00">SimpleFieldsQuickConfig</text>
</a>
</g>
<!-- \\DebugUtils -->
<g id="node25" class="node"><title>\\DebugUtils</title>
<a xlink:href="classes.DebugUtils.class.html" xlink:title="DebugUtils" target="_parent">
<polygon fill="none" stroke="black" points="643,-1600 559,-1600 559,-1564 643,-1564 643,-1600"/>
<text text-anchor="middle" x="601" y="-1579.1" font-family="Courier,monospace" font-size="11.00">DebugUtils</text>
</a>
</g>
<!-- \\ForceDownload -->
<g id="node26" class="node"><title>\\ForceDownload</title>
<a xlink:href="classes.ForceDownload.class.html" xlink:title="ForceDownload" target="_parent">
<polygon fill="none" stroke="black" points="653,-1546 549,-1546 549,-1510 653,-1510 653,-1546"/>
<text text-anchor="middle" x="601" y="-1525.1" font-family="Courier,monospace" font-size="11.00">ForceDownload</text>
</a>
</g>
<!-- \\ShowTitleThumbExcerptWalkerNavMenu -->
<g id="node27" class="node"><title>\\ShowTitleThumbExcerptWalkerNavMenu</title>
<a xlink:href="classes.ShowTitleThumbExcerptWalkerNavMenu.class.html" xlink:title="ShowTitleThumbExcerptWalkerNavMenu" target="_parent">
<polygon fill="none" stroke="black" points="724,-358 478,-358 478,-322 724,-322 724,-358"/>
<text text-anchor="middle" x="601" y="-337.1" font-family="Courier,monospace" font-size="11.00">ShowTitleThumbExcerptWalkerNavMenu</text>
</a>
</g>
<!-- \\Walker_Nav_Menu -->
<g id="node69" class="node"><title>\\Walker_Nav_Menu</title>
<ellipse fill="none" stroke="black" cx="300" cy="-18" rx="104.86" ry="18.3848"/>
<text text-anchor="middle" x="300" y="-14.4" font-family="Times Roman,serif" font-size="14.00" fill="gray">\Walker_Nav_Menu</text>
</g>
<!-- \\ShowTitleThumbExcerptWalkerNavMenu&#45;&gt;\\Walker_Nav_Menu -->
<g id="edge15" class="edge"><title>\\ShowTitleThumbExcerptWalkerNavMenu&#45;&gt;\\Walker_Nav_Menu</title>
<path fill="none" stroke="black" d="M489.289,-321.889C485.268,-319.271 481.479,-316.321 478,-313 388.791,-227.835 493.778,-131.64 406,-45 401.671,-40.7269 396.765,-37.1004 391.496,-34.0257"/>
<polygon fill="none" stroke="black" points="392.821,-30.7728 382.321,-29.3552 389.645,-37.011 392.821,-30.7728"/>
</g>
<!-- \\ImageProgressiveLoading -->
<g id="node28" class="node"><title>\\ImageProgressiveLoading</title>
<a xlink:href="classes.ImageProgressiveLoading.class.html" xlink:title="ImageProgressiveLoading" target="_parent">
<polygon fill="none" stroke="black" points="386,-1668 214,-1668 214,-1632 386,-1632 386,-1668"/>
<text text-anchor="middle" x="300" y="-1647.1" font-family="Courier,monospace" font-size="11.00">ImageProgressiveLoading</text>
</a>
</g>
<!-- \\ImageProgressiveLoading&#45;&gt;\\GalleryHelper -->
<g id="edge17" class="edge"><title>\\ImageProgressiveLoading&#45;&gt;\\GalleryHelper</title>
<path fill="none" stroke="black" d="M217.787,-1668.09C209.626,-1670.73 201.569,-1673.69 194,-1677 159.877,-1691.92 124.586,-1715.69 100.241,-1733.63"/>
<polygon fill="none" stroke="black" points="98.022,-1730.92 92.1061,-1739.71 102.212,-1736.52 98.022,-1730.92"/>
</g>
<!-- \\ShortcodeForTabs -->
<g id="node29" class="node"><title>\\ShortcodeForTabs</title>
<a xlink:href="classes.ShortcodeForTabs.class.html" xlink:title="ShortcodeForTabs" target="_parent">
<polygon fill="none" stroke="black" points="663,-1438 539,-1438 539,-1402 663,-1402 663,-1438"/>
<text text-anchor="middle" x="601" y="-1417.1" font-family="Courier,monospace" font-size="11.00">ShortcodeForTabs</text>
</a>
</g>
<!-- \\ThemeUtils -->
<g id="node30" class="node"><title>\\ThemeUtils</title>
<a xlink:href="classes.ThemeUtils.class.html" xlink:title="ThemeUtils" target="_parent">
<polygon fill="none" stroke="black" points="643,-1384 559,-1384 559,-1348 643,-1348 643,-1384"/>
<text text-anchor="middle" x="601" y="-1363.1" font-family="Courier,monospace" font-size="11.00">ThemeUtils</text>
</a>
</g>
<!-- \\TwitterManager -->
<g id="node31" class="node"><title>\\TwitterManager</title>
<a xlink:href="classes.TwitterManager.class.html" xlink:title="TwitterManager" target="_parent">
<polygon fill="none" stroke="black" points="656,-1330 546,-1330 546,-1294 656,-1294 656,-1330"/>
<text text-anchor="middle" x="601" y="-1309.1" font-family="Courier,monospace" font-size="11.00">TwitterManager</text>
</a>
</g>
<!-- \\ShowcaseSlider -->
<g id="node32" class="node"><title>\\ShowcaseSlider</title>
<a xlink:href="classes.ShowcaseSlider.class.html" xlink:title="ShowcaseSlider" target="_parent">
<polygon fill="none" stroke="black" points="355,-1060 245,-1060 245,-1024 355,-1024 355,-1060"/>
<text text-anchor="middle" x="300" y="-1039.1" font-family="Courier,monospace" font-size="11.00">ShowcaseSlider</text>
</a>
</g>
<!-- \\ShowcaseSlider&#45;&gt;\\GalleryHelper -->
<g id="edge19" class="edge"><title>\\ShowcaseSlider&#45;&gt;\\GalleryHelper</title>
<path fill="none" stroke="black" d="M244.314,-1044.39C225.958,-1047.95 206.951,-1055.11 194,-1069 102.14,-1167.52 75.6492,-1611.76 70.1885,-1729.36"/>
<polygon fill="none" stroke="black" points="66.6765,-1729.55 69.7243,-1739.7 73.6694,-1729.87 66.6765,-1729.55"/>
</g>
<!-- \\MergedSlideshow -->
<g id="node33" class="node"><title>\\MergedSlideshow</title>
<a xlink:href="classes.MergedSlideshow.class.html" xlink:title="MergedSlideshow" target="_parent">
<polygon fill="none" stroke="black" points="660,-2302 542,-2302 542,-2266 660,-2266 660,-2302"/>
<text text-anchor="middle" x="601" y="-2281.1" font-family="Courier,monospace" font-size="11.00">MergedSlideshow</text>
</a>
</g>
<!-- \\MergedSlideshow&#45;&gt;\\OneImageForAll -->
<g id="edge21" class="edge"><title>\\MergedSlideshow&#45;&gt;\\OneImageForAll</title>
<path fill="none" stroke="black" d="M541.89,-2274.39C521.324,-2270.17 498.325,-2264.44 478,-2257 427.089,-2238.36 372.514,-2207.79 337.412,-2186.6"/>
<polygon fill="none" stroke="black" points="338.845,-2183.37 328.485,-2181.15 335.202,-2189.35 338.845,-2183.37"/>
</g>
<!-- \\LipsumGenerator -->
<g id="node34" class="node"><title>\\LipsumGenerator</title>
<a xlink:href="classes.LipsumGenerator.class.html" xlink:title="LipsumGenerator" target="_parent">
<polygon fill="none" stroke="black" points="660,-1222 542,-1222 542,-1186 660,-1186 660,-1222"/>
<text text-anchor="middle" x="601" y="-1201.1" font-family="Courier,monospace" font-size="11.00">LipsumGenerator</text>
</a>
</g>
<!-- \\ThemeHelpers -->
<g id="node35" class="node"><title>\\ThemeHelpers</title>
<a xlink:href="classes.ThemeHelpers.class.html" xlink:title="ThemeHelpers" target="_parent">
<polygon fill="none" stroke="black" points="650,-1168 552,-1168 552,-1132 650,-1132 650,-1168"/>
<text text-anchor="middle" x="601" y="-1147.1" font-family="Courier,monospace" font-size="11.00">ThemeHelpers</text>
</a>
</g>
<!-- \\SubstitutionTemplate -->
<g id="node36" class="node"><title>\\SubstitutionTemplate</title>
<a xlink:href="classes.SubstitutionTemplate.class.html" xlink:title="SubstitutionTemplate" target="_parent">
<polygon fill="none" stroke="black" points="677,-1114 525,-1114 525,-1078 677,-1078 677,-1114"/>
<text text-anchor="middle" x="601" y="-1093.1" font-family="Courier,monospace" font-size="11.00">SubstitutionTemplate</text>
</a>
</g>
<!-- \\ClassAutoloader -->
<g id="node37" class="node"><title>\\ClassAutoloader</title>
<a xlink:href="classes.ClassAutoloader.class.html" xlink:title="ClassAutoloader" target="_parent">
<polygon fill="none" stroke="black" points="660,-1060 542,-1060 542,-1024 660,-1024 660,-1060"/>
<text text-anchor="middle" x="601" y="-1039.1" font-family="Courier,monospace" font-size="11.00">ClassAutoloader</text>
</a>
</g>
<!-- \\RemoveSpacesWalkerNavMenu -->
<g id="node38" class="node"><title>\\RemoveSpacesWalkerNavMenu</title>
<a xlink:href="classes.RemoveSpacesWalkerNavMenu.class.html" xlink:title="RemoveSpacesWalkerNavMenu" target="_parent">
<polygon fill="none" stroke="black" points="693,-790 509,-790 509,-754 693,-754 693,-790"/>
<text text-anchor="middle" x="601" y="-769.1" font-family="Courier,monospace" font-size="11.00">RemoveSpacesWalkerNavMenu</text>
</a>
</g>
<!-- \\RemoveSpacesWalkerNavMenu&#45;&gt;\\Walker_Nav_Menu -->
<g id="edge23" class="edge"><title>\\RemoveSpacesWalkerNavMenu&#45;&gt;\\Walker_Nav_Menu</title>
<path fill="none" stroke="black" d="M508.314,-765.156C496.81,-760.679 486.225,-754.216 478,-745 269.76,-511.654 610.322,-281.784 406,-45 402.278,-40.6867 397.973,-37.0136 393.272,-33.8898"/>
<polygon fill="none" stroke="black" points="394.844,-30.7571 384.424,-28.8406 391.374,-36.8369 394.844,-30.7571"/>
</g>
<!-- \\SpecialOffersSnippet -->
<g id="node39" class="node"><title>\\SpecialOffersSnippet</title>
<a xlink:href="classes.SpecialOffersSnippet.class.html" xlink:title="SpecialOffersSnippet" target="_parent">
<polygon fill="none" stroke="black" points="677,-952 525,-952 525,-916 677,-916 677,-952"/>
<text text-anchor="middle" x="601" y="-931.1" font-family="Courier,monospace" font-size="11.00">SpecialOffersSnippet</text>
</a>
</g>
<!-- \\HashAnchorWalkerNavMenu -->
<g id="node40" class="node"><title>\\HashAnchorWalkerNavMenu</title>
<a xlink:href="classes.HashAnchorWalkerNavMenu.class.html" xlink:title="HashAnchorWalkerNavMenu" target="_parent">
<polygon fill="none" stroke="black" points="687,-574 515,-574 515,-538 687,-538 687,-574"/>
<text text-anchor="middle" x="601" y="-553.1" font-family="Courier,monospace" font-size="11.00">HashAnchorWalkerNavMenu</text>
</a>
</g>
<!-- \\HashAnchorWalkerNavMenu&#45;&gt;\\Walker_Nav_Menu -->
<g id="edge25" class="edge"><title>\\HashAnchorWalkerNavMenu&#45;&gt;\\Walker_Nav_Menu</title>
<path fill="none" stroke="black" d="M514.899,-550.986C500.99,-546.553 487.923,-539.626 478,-529 329.568,-370.051 551.762,-206.401 406,-45 402.142,-40.7279 397.711,-37.0889 392.898,-33.993"/>
<polygon fill="none" stroke="black" points="394.304,-30.7713 383.861,-28.9876 390.913,-36.8947 394.304,-30.7713"/>
</g>
<!-- \\MinigalleryBigImageWithThumbs -->
<g id="node41" class="node"><title>\\MinigalleryBigImageWithThumbs</title>
<a xlink:href="classes.MinigalleryBigImageWithThumbs.class.html" xlink:title="MinigalleryBigImageWithThumbs" target="_parent">
<polygon fill="none" stroke="black" points="406,-1884 194,-1884 194,-1848 406,-1848 406,-1884"/>
<text text-anchor="middle" x="300" y="-1863.1" font-family="Courier,monospace" font-size="11.00">MinigalleryBigImageWithThumbs</text>
</a>
</g>
<!-- \\MinigalleryBigImageWithThumbs&#45;&gt;\\GalleryHelper -->
<g id="edge27" class="edge"><title>\\MinigalleryBigImageWithThumbs&#45;&gt;\\GalleryHelper</title>
<path fill="none" stroke="black" d="M217.787,-1847.91C209.626,-1845.27 201.569,-1842.31 194,-1839 159.877,-1824.08 124.586,-1800.31 100.241,-1782.37"/>
<polygon fill="none" stroke="black" points="102.212,-1779.48 92.1061,-1776.29 98.022,-1785.08 102.212,-1779.48"/>
</g>
<!-- \\GeneratorDictionary -->
<g id="node42" class="node"><title>\\GeneratorDictionary</title>
<a xlink:href="classes.GeneratorDictionary.class.html" xlink:title="GeneratorDictionary" target="_parent">
<polygon fill="none" stroke="black" points="372,-1114 228,-1114 228,-1078 372,-1078 372,-1114"/>
<text text-anchor="middle" x="300" y="-1093.1" font-family="Courier,monospace" font-size="11.00">GeneratorDictionary</text>
</a>
</g>
<!-- \\MinigalleryThumbsLinkToBig -->
<g id="node43" class="node"><title>\\MinigalleryThumbsLinkToBig</title>
<a xlink:href="classes.MinigalleryThumbsLinkToBig.class.html" xlink:title="MinigalleryThumbsLinkToBig" target="_parent">
<polygon fill="none" stroke="black" points="396,-1830 204,-1830 204,-1794 396,-1794 396,-1830"/>
<text text-anchor="middle" x="300" y="-1809.1" font-family="Courier,monospace" font-size="11.00">MinigalleryThumbsLinkToBig</text>
</a>
</g>
<!-- \\MinigalleryThumbsLinkToBig&#45;&gt;\\GalleryHelper -->
<g id="edge29" class="edge"><title>\\MinigalleryThumbsLinkToBig&#45;&gt;\\GalleryHelper</title>
<path fill="none" stroke="black" d="M222.759,-1793.94C193.205,-1787.04 159.884,-1779.25 131.835,-1772.69"/>
<polygon fill="none" stroke="black" points="132.291,-1769.2 121.757,-1770.33 130.698,-1776.02 132.291,-1769.2"/>
</g>
<!-- \\EscapeRoute -->
<g id="node44" class="node"><title>\\EscapeRoute</title>
<a xlink:href="classes.EscapeRoute.class.html" xlink:title="EscapeRoute" target="_parent">
<polygon fill="none" stroke="black" points="646,-844 556,-844 556,-808 646,-808 646,-844"/>
<text text-anchor="middle" x="601" y="-823.1" font-family="Courier,monospace" font-size="11.00">EscapeRoute</text>
</a>
</g>
<!-- \\DefaultAssetsCDN -->
<g id="node45" class="node"><title>\\DefaultAssetsCDN</title>
<a xlink:href="classes.DefaultAssetsCDN.class.html" xlink:title="DefaultAssetsCDN" target="_parent">
<polygon fill="none" stroke="black" points="663,-1492 539,-1492 539,-1456 663,-1456 663,-1492"/>
<text text-anchor="middle" x="601" y="-1471.1" font-family="Courier,monospace" font-size="11.00">DefaultAssetsCDN</text>
</a>
</g>
<!-- \\DefaultAssetsCDN&#45;&gt;\\DefaultAssets -->
<g id="edge31" class="edge"><title>\\DefaultAssetsCDN&#45;&gt;\\DefaultAssets</title>
<path fill="none" stroke="black" d="M538.267,-1474C486.579,-1474 413.66,-1474 362.136,-1474"/>
<polygon fill="none" stroke="black" points="362.13,-1470.5 352.129,-1474 362.129,-1477.5 362.13,-1470.5"/>
</g>
<!-- \\GaussianMath -->
<g id="node46" class="node"><title>\\GaussianMath</title>
<a xlink:href="classes.GaussianMath.class.html" xlink:title="GaussianMath" target="_parent">
<polygon fill="none" stroke="black" points="650,-736 552,-736 552,-700 650,-700 650,-736"/>
<text text-anchor="middle" x="601" y="-715.1" font-family="Courier,monospace" font-size="11.00">GaussianMath</text>
</a>
</g>
<!-- \\RuntimeInfos -->
<g id="node47" class="node"><title>\\RuntimeInfos</title>
<a xlink:href="classes.RuntimeInfos.class.html" xlink:title="RuntimeInfos" target="_parent">
<polygon fill="none" stroke="black" points="650,-682 552,-682 552,-646 650,-646 650,-682"/>
<text text-anchor="middle" x="601" y="-661.1" font-family="Courier,monospace" font-size="11.00">RuntimeInfos</text>
</a>
</g>
<!-- \\OffersManager -->
<g id="node48" class="node"><title>\\OffersManager</title>
<a xlink:href="classes.OffersManager.class.html" xlink:title="OffersManager" target="_parent">
<polygon fill="none" stroke="black" points="653,-628 549,-628 549,-592 653,-592 653,-628"/>
<text text-anchor="middle" x="601" y="-607.1" font-family="Courier,monospace" font-size="11.00">OffersManager</text>
</a>
</g>
<!-- \\LevelWalkerNavMenu -->
<g id="node49" class="node"><title>\\LevelWalkerNavMenu</title>
<a xlink:href="classes.LevelWalkerNavMenu.class.html" xlink:title="LevelWalkerNavMenu" target="_parent">
<polygon fill="none" stroke="black" points="670,-304 532,-304 532,-268 670,-268 670,-304"/>
<text text-anchor="middle" x="601" y="-283.1" font-family="Courier,monospace" font-size="11.00">LevelWalkerNavMenu</text>
</a>
</g>
<!-- \\LevelWalkerNavMenu&#45;&gt;\\Walker_Nav_Menu -->
<g id="edge33" class="edge"><title>\\LevelWalkerNavMenu&#45;&gt;\\Walker_Nav_Menu</title>
<path fill="none" stroke="black" d="M531.714,-283.302C512.415,-279.456 492.728,-272.212 478,-259 403.3,-191.993 479.573,-113.243 406,-45 401.34,-40.6777 396.087,-37.0241 390.475,-33.9382"/>
<polygon fill="none" stroke="black" points="391.921,-30.7496 381.395,-29.5417 388.87,-37.05 391.921,-30.7496"/>
</g>
<!-- \\ShowItemExcerptWalkerNavMenu -->
<g id="node50" class="node"><title>\\ShowItemExcerptWalkerNavMenu</title>
<a xlink:href="classes.ShowItemExcerptWalkerNavMenu.class.html" xlink:title="ShowItemExcerptWalkerNavMenu" target="_parent">
<polygon fill="none" stroke="black" points="704,-520 498,-520 498,-484 704,-484 704,-520"/>
<text text-anchor="middle" x="601" y="-499.1" font-family="Courier,monospace" font-size="11.00">ShowItemExcerptWalkerNavMenu</text>
</a>
</g>
<!-- \\ShowItemExcerptWalkerNavMenu&#45;&gt;\\Walker_Nav_Menu -->
<g id="edge35" class="edge"><title>\\ShowItemExcerptWalkerNavMenu&#45;&gt;\\Walker_Nav_Menu</title>
<path fill="none" stroke="black" d="M497.781,-489.705C490.461,-485.848 483.725,-481.02 478,-475 344.463,-334.588 537.178,-187.617 406,-45 402.103,-40.7632 397.643,-37.1512 392.807,-34.0754"/>
<polygon fill="none" stroke="black" points="394.189,-30.8414 383.739,-29.099 390.822,-36.9782 394.189,-30.8414"/>
</g>
<!-- \\AutomaticAssetsManager -->
<g id="node51" class="node"><title>\\AutomaticAssetsManager</title>
<a xlink:href="classes.AutomaticAssetsManager.class.html" xlink:title="AutomaticAssetsManager" target="_parent">
<polygon fill="none" stroke="black" points="683,-466 519,-466 519,-430 683,-430 683,-466"/>
<text text-anchor="middle" x="601" y="-445.1" font-family="Courier,monospace" font-size="11.00">AutomaticAssetsManager</text>
</a>
</g>
<!-- \\HeadHelper -->
<g id="node53" class="node"><title>\\HeadHelper</title>
<a xlink:href="classes.HeadHelper.class.html" xlink:title="HeadHelper" target="_parent">
<polygon fill="none" stroke="black" points="643,-412 559,-412 559,-376 643,-376 643,-412"/>
<text text-anchor="middle" x="601" y="-391.1" font-family="Courier,monospace" font-size="11.00">HeadHelper</text>
</a>
</g>
<!-- \\HtmlHelper -->
<g id="node54" class="node"><title>\\HtmlHelper</title>
<a xlink:href="classes.HtmlHelper.class.html" xlink:title="HtmlHelper" target="_parent">
<polygon fill="none" stroke="black" points="643,-1276 559,-1276 559,-1240 643,-1240 643,-1276"/>
<text text-anchor="middle" x="601" y="-1255.1" font-family="Courier,monospace" font-size="11.00">HtmlHelper</text>
</a>
</g>
<!-- \\HtmlBuilder -->
<g id="node55" class="node"><title>\\HtmlBuilder</title>
<a xlink:href="classes.HtmlHelper.class.html" xlink:title="HtmlBuilder" target="_parent">
<polygon fill="none" stroke="black" points="345,-1276 255,-1276 255,-1240 345,-1240 345,-1276"/>
<text text-anchor="middle" x="300" y="-1255.1" font-family="Courier,monospace" font-size="11.00">HtmlBuilder</text>
</a>
</g>
<!-- \\HtmlHelper&#45;&gt;\\HtmlBuilder -->
<g id="edge37" class="edge"><title>\\HtmlHelper&#45;&gt;\\HtmlBuilder</title>
<path fill="none" stroke="black" d="M558.83,-1258C505.791,-1258 414.565,-1258 355.794,-1258"/>
<polygon fill="none" stroke="black" points="355.575,-1254.5 345.575,-1258 355.575,-1261.5 355.575,-1254.5"/>
</g>
<!-- \\LoremIpsumDictionary -->
<g id="node56" class="node"><title>\\LoremIpsumDictionary</title>
<a xlink:href="classes.LoremIpsumDictionary.class.html" xlink:title="LoremIpsumDictionary" target="_parent">
<polygon fill="none" stroke="black" points="677,-1006 525,-1006 525,-970 677,-970 677,-1006"/>
<text text-anchor="middle" x="601" y="-985.1" font-family="Courier,monospace" font-size="11.00">LoremIpsumDictionary</text>
</a>
</g>
<!-- \\LoremIpsumDictionary&#45;&gt;\\GeneratorDictionary -->
<g id="edge39" class="edge"><title>\\LoremIpsumDictionary&#45;&gt;\\GeneratorDictionary</title>
<path fill="none" stroke="black" d="M524.867,-999.393C508.966,-1003.23 492.608,-1008.3 478,-1015 441.638,-1031.67 442.079,-1051.73 406,-1069 398.49,-1072.59 390.443,-1075.75 382.264,-1078.51"/>
<polygon fill="none" stroke="black" points="381.096,-1075.21 372.625,-1081.57 383.216,-1081.88 381.096,-1075.21"/>
</g>
<!-- \\ImageGenerator -->
<g id="node57" class="node"><title>\\ImageGenerator</title>
<a xlink:href="classes.ImageGenerator.class.html" xlink:title="ImageGenerator" target="_parent">
<polygon fill="none" stroke="black" points="656,-250 546,-250 546,-214 656,-214 656,-250"/>
<text text-anchor="middle" x="601" y="-229.1" font-family="Courier,monospace" font-size="11.00">ImageGenerator</text>
</a>
</g>
<!-- \\HotelManager -->
<g id="node58" class="node"><title>\\HotelManager</title>
<a xlink:href="classes.HotelManager.class.html" xlink:title="HotelManager" target="_parent">
<polygon fill="none" stroke="black" points="650,-196 552,-196 552,-160 650,-160 650,-196"/>
<text text-anchor="middle" x="601" y="-175.1" font-family="Courier,monospace" font-size="11.00">HotelManager</text>
</a>
</g>
<!-- \\Hotel -->
<g id="node59" class="node"><title>\\Hotel</title>
<a xlink:href="classes.HotelManager.class.html" xlink:title="Hotel" target="_parent">
<polygon fill="none" stroke="black" points="628,-142 574,-142 574,-106 628,-106 628,-142"/>
<text text-anchor="middle" x="601" y="-121.1" font-family="Courier,monospace" font-size="11.00">Hotel</text>
</a>
</g>
<!-- \\PhotogalleryThumbWithFancybox -->
<g id="node60" class="node"><title>\\PhotogalleryThumbWithFancybox</title>
<a xlink:href="classes.PhotogalleryThumbWithFancybox.class.html" xlink:title="PhotogalleryThumbWithFancybox" target="_parent">
<polygon fill="none" stroke="black" points="406,-1776 194,-1776 194,-1740 406,-1740 406,-1776"/>
<text text-anchor="middle" x="300" y="-1755.1" font-family="Courier,monospace" font-size="11.00">PhotogalleryThumbWithFancybox</text>
</a>
</g>
<!-- \\PhotogalleryThumbWithFancybox&#45;&gt;\\GalleryHelper -->
<g id="edge41" class="edge"><title>\\PhotogalleryThumbWithFancybox&#45;&gt;\\GalleryHelper</title>
<path fill="none" stroke="black" d="M193.965,-1758C172.651,-1758 150.905,-1758 131.655,-1758"/>
<polygon fill="none" stroke="black" points="131.535,-1754.5 121.535,-1758 131.535,-1761.5 131.535,-1754.5"/>
</g>
</g>
</svg>
