<?xml version="1.0" encoding="UTF-8" standalone="no"?>
<!DOCTYPE svg PUBLIC "-//W3C//DTD SVG 1.1//EN"
 "http://www.w3.org/Graphics/SVG/1.1/DTD/svg11.dtd">
<!-- Generated by graphviz version 2.26.3 (20100126.1600)
 -->
<!-- Title: G Pages: 1 -->
<svg width="554pt" height="1916pt"
 viewBox="0.00 0.00 554.00 1916.00" xmlns="http://www.w3.org/2000/svg" xmlns:xlink="http://www.w3.org/1999/xlink">
<g id="graph1" class="graph" transform="scale(1 1) rotate(0) translate(4 1912)">
<title>G</title>
<polygon fill="white" stroke="white" points="-4,5 -4,-1912 551,-1912 551,5 -4,5"/>
<g id="graph2" class="cluster"><title>cluster_global</title>
<polyline fill="none" stroke="gray" points="37,-44 526,-44 "/>
<path fill="none" stroke="gray" d="M526,-44C532,-44 538,-50 538,-56"/>
<polyline fill="none" stroke="gray" points="538,-56 538,-1888 "/>
<path fill="none" stroke="gray" d="M538,-1888C538,-1894 532,-1900 526,-1900"/>
<polyline fill="none" stroke="gray" points="526,-1900 37,-1900 "/>
<path fill="none" stroke="gray" d="M37,-1900C31,-1900 25,-1894 25,-1888"/>
<polyline fill="none" stroke="gray" points="25,-1888 25,-56 "/>
<path fill="none" stroke="gray" d="M25,-56C25,-50 31,-44 37,-44"/>
<text text-anchor="middle" x="281.5" y="-1886.1" font-family="Times Roman,serif" font-size="11.00" fill="gray">global</text>
</g>
<!-- \\ImagePreload -->
<g id="node2" class="node"><title>\\ImagePreload</title>
<a xlink:href="classes.ImagePreload.class.html" xlink:title="ImagePreload" target="_parent">
<polygon fill="none" stroke="black" points="456,-790 358,-790 358,-754 456,-754 456,-790"/>
<text text-anchor="middle" x="407" y="-769.1" font-family="Courier,monospace" font-size="11.00">ImagePreload</text>
</a>
</g>
<!-- \\GalleryHelper -->
<g id="node33" class="node"><title>\\GalleryHelper</title>
<a xlink:href="classes.GalleryHelper.class.html" xlink:title="«abstract»&lt;br/&gt;GalleryHelper" target="_parent">
<polygon fill="none" stroke="black" points="158,-1276 54,-1276 54,-1240 158,-1240 158,-1276"/>
<text text-anchor="start" x="72" y="-1263.43" font-family="Courier,monospace" font-size="11.00">«abstract»</text>
<text text-anchor="start" x="62" y="-1250.23" font-family="Courier,monospace" font-size="11.00">GalleryHelper</text>
</a>
</g>
<!-- \\ImagePreload&#45;&gt;\\GalleryHelper -->
<g id="edge3" class="edge"><title>\\ImagePreload&#45;&gt;\\GalleryHelper</title>
<path fill="none" stroke="black" d="M357.827,-772.183C333.138,-774.7 304.254,-781.645 284,-799 148.249,-915.321 115.501,-1147.97 108.062,-1229.21"/>
<polygon fill="none" stroke="black" points="104.535,-1229.38 107.173,-1239.64 111.51,-1229.97 104.535,-1229.38"/>
</g>
<!-- \\SpecialOffersSnippetAjax -->
<g id="node3" class="node"><title>\\SpecialOffersSnippetAjax</title>
<a xlink:href="classes.SpecialOffersSnippetAjax.class.html" xlink:title="SpecialOffersSnippetAjax" target="_parent">
<polygon fill="none" stroke="black" points="496,-1816 318,-1816 318,-1780 496,-1780 496,-1816"/>
<text text-anchor="middle" x="407" y="-1795.1" font-family="Courier,monospace" font-size="11.00">SpecialOffersSnippetAjax</text>
</a>
</g>
<!-- \\FeatureWithAssets -->
<g id="node4" class="node"><title>\\FeatureWithAssets</title>
<a xlink:href="classes.FeatureWithAssets.class.html" xlink:title="FeatureWithAssets" target="_parent">
<polygon fill="none" stroke="black" points="472,-1762 342,-1762 342,-1726 472,-1726 472,-1762"/>
<text text-anchor="middle" x="407" y="-1741.1" font-family="Courier,monospace" font-size="11.00">FeatureWithAssets</text>
</a>
</g>
<!-- \\DefaultAssets -->
<g id="node5" class="node"><title>\\DefaultAssets</title>
<a xlink:href="classes.DefaultAssets.class.html" xlink:title="DefaultAssets" target="_parent">
<polygon fill="none" stroke="black" points="158,-736 54,-736 54,-700 158,-700 158,-736"/>
<text text-anchor="middle" x="106" y="-715.1" font-family="Courier,monospace" font-size="11.00">DefaultAssets</text>
</a>
</g>
<!-- \\AjaxImageGenerator -->
<g id="node6" class="node"><title>\\AjaxImageGenerator</title>
<a xlink:href="classes.AjaxImageGenerator.class.html" xlink:title="AjaxImageGenerator" target="_parent">
<polygon fill="none" stroke="black" points="476,-1708 338,-1708 338,-1672 476,-1672 476,-1708"/>
<text text-anchor="middle" x="407" y="-1687.1" font-family="Courier,monospace" font-size="11.00">AjaxImageGenerator</text>
</a>
</g>
<!-- \\TinyMCEExcerptCustomization -->
<g id="node7" class="node"><title>\\TinyMCEExcerptCustomization</title>
<a xlink:href="classes.TinyMCEExcerpt.class.html" xlink:title="TinyMCEExcerptCustomization" target="_parent">
<polygon fill="none" stroke="black" points="506,-1654 308,-1654 308,-1618 506,-1618 506,-1654"/>
<text text-anchor="middle" x="407" y="-1633.1" font-family="Courier,monospace" font-size="11.00">TinyMCEExcerptCustomization</text>
</a>
</g>
<!-- \\OneImageForAll -->
<g id="node8" class="node"><title>\\OneImageForAll</title>
<a xlink:href="classes.OneImageForAll.class.html" xlink:title="OneImageForAll" target="_parent">
<polygon fill="none" stroke="black" points="462,-1870 352,-1870 352,-1834 462,-1834 462,-1870"/>
<text text-anchor="middle" x="407" y="-1849.1" font-family="Courier,monospace" font-size="11.00">OneImageForAll</text>
</a>
</g>
<!-- \\OneImageForAll&#45;&gt;\\GalleryHelper -->
<g id="edge5" class="edge"><title>\\OneImageForAll&#45;&gt;\\GalleryHelper</title>
<path fill="none" stroke="black" d="M351.484,-1851.72C328.091,-1848.83 302.141,-1841.61 284,-1825 200.949,-1748.96 130.118,-1390.39 111.046,-1286.36"/>
<polygon fill="none" stroke="black" points="114.449,-1285.5 109.218,-1276.29 107.562,-1286.76 114.449,-1285.5"/>
</g>
<!-- \\NewBlogInitializator -->
<g id="node9" class="node"><title>\\NewBlogInitializator</title>
<a xlink:href="classes.NewBlogInitializator.class.html" xlink:title="NewBlogInitializator" target="_parent">
<polygon fill="none" stroke="black" points="483,-1546 331,-1546 331,-1510 483,-1510 483,-1546"/>
<text text-anchor="middle" x="407" y="-1525.1" font-family="Courier,monospace" font-size="11.00">NewBlogInitializator</text>
</a>
</g>
<!-- \\GMapDataRetriever -->
<g id="node10" class="node"><title>\\GMapDataRetriever</title>
<a xlink:href="classes.GMapDataRetriever.class.html" xlink:title="GMapDataRetriever" target="_parent">
<polygon fill="none" stroke="black" points="472,-1492 342,-1492 342,-1456 472,-1456 472,-1492"/>
<text text-anchor="middle" x="407" y="-1471.1" font-family="Courier,monospace" font-size="11.00">GMapDataRetriever</text>
</a>
</g>
<!-- \\SimpleFieldsQuickConfig -->
<g id="node11" class="node"><title>\\SimpleFieldsQuickConfig</title>
<a xlink:href="classes.SimpleFieldsQuickConfig.class.html" xlink:title="SimpleFieldsQuickConfig" target="_parent">
<polygon fill="none" stroke="black" points="493,-1438 321,-1438 321,-1402 493,-1402 493,-1438"/>
<text text-anchor="middle" x="407" y="-1417.1" font-family="Courier,monospace" font-size="11.00">SimpleFieldsQuickConfig</text>
</a>
</g>
<!-- \\DebugUtils -->
<g id="node12" class="node"><title>\\DebugUtils</title>
<a xlink:href="classes.DebugUtils.class.html" xlink:title="DebugUtils" target="_parent">
<polygon fill="none" stroke="black" points="449,-1384 365,-1384 365,-1348 449,-1348 449,-1384"/>
<text text-anchor="middle" x="407" y="-1363.1" font-family="Courier,monospace" font-size="11.00">DebugUtils</text>
</a>
</g>
<!-- \\ForceDownload -->
<g id="node13" class="node"><title>\\ForceDownload</title>
<a xlink:href="classes.ForceDownload.class.html" xlink:title="ForceDownload" target="_parent">
<polygon fill="none" stroke="black" points="459,-1330 355,-1330 355,-1294 459,-1294 459,-1330"/>
<text text-anchor="middle" x="407" y="-1309.1" font-family="Courier,monospace" font-size="11.00">ForceDownload</text>
</a>
</g>
<!-- \\ShowTitleThumbExcerptWalkerNavMenu -->
<g id="node14" class="node"><title>\\ShowTitleThumbExcerptWalkerNavMenu</title>
<a xlink:href="classes.ShowTitleThumbExcerptWalkerNavMenu.class.html" xlink:title="ShowTitleThumbExcerptWalkerNavMenu" target="_parent">
<polygon fill="none" stroke="black" points="530,-196 284,-196 284,-160 530,-160 530,-196"/>
<text text-anchor="middle" x="407" y="-175.1" font-family="Courier,monospace" font-size="11.00">ShowTitleThumbExcerptWalkerNavMenu</text>
</a>
</g>
<!-- \\Walker_Nav_Menu -->
<g id="node43" class="node"><title>\\Walker_Nav_Menu</title>
<ellipse fill="none" stroke="black" cx="106" cy="-18" rx="104.86" ry="18.3848"/>
<text text-anchor="middle" x="106" y="-14.4" font-family="Times Roman,serif" font-size="14.00" fill="gray">\Walker_Nav_Menu</text>
</g>
<!-- \\ShowTitleThumbExcerptWalkerNavMenu&#45;&gt;\\Walker_Nav_Menu -->
<g id="edge7" class="edge"><title>\\ShowTitleThumbExcerptWalkerNavMenu&#45;&gt;\\Walker_Nav_Menu</title>
<path fill="none" stroke="black" d="M299.465,-159.906C294.05,-157.313 288.853,-154.361 284,-151 235.659,-117.52 260.532,-73.2029 212,-40 208.04,-37.2905 203.815,-34.9026 199.418,-32.7991"/>
<polygon fill="none" stroke="black" points="200.752,-29.5632 190.18,-28.869 198.012,-36.0046 200.752,-29.5632"/>
</g>
<!-- \\ShortcodeForTabs -->
<g id="node15" class="node"><title>\\ShortcodeForTabs</title>
<a xlink:href="classes.ShortcodeForTabs.class.html" xlink:title="ShortcodeForTabs" target="_parent">
<polygon fill="none" stroke="black" points="469,-1222 345,-1222 345,-1186 469,-1186 469,-1222"/>
<text text-anchor="middle" x="407" y="-1201.1" font-family="Courier,monospace" font-size="11.00">ShortcodeForTabs</text>
</a>
</g>
<!-- \\ThemeUtils -->
<g id="node16" class="node"><title>\\ThemeUtils</title>
<a xlink:href="classes.ThemeUtils.class.html" xlink:title="ThemeUtils" target="_parent">
<polygon fill="none" stroke="black" points="449,-1168 365,-1168 365,-1132 449,-1132 449,-1168"/>
<text text-anchor="middle" x="407" y="-1147.1" font-family="Courier,monospace" font-size="11.00">ThemeUtils</text>
</a>
</g>
<!-- \\LipsumGenerator -->
<g id="node17" class="node"><title>\\LipsumGenerator</title>
<a xlink:href="classes.LipsumGenerator.class.html" xlink:title="LipsumGenerator" target="_parent">
<polygon fill="none" stroke="black" points="466,-1114 348,-1114 348,-1078 466,-1078 466,-1114"/>
<text text-anchor="middle" x="407" y="-1093.1" font-family="Courier,monospace" font-size="11.00">LipsumGenerator</text>
</a>
</g>
<!-- \\ThemeHelpers -->
<g id="node18" class="node"><title>\\ThemeHelpers</title>
<a xlink:href="classes.ThemeHelpers.class.html" xlink:title="ThemeHelpers" target="_parent">
<polygon fill="none" stroke="black" points="456,-1060 358,-1060 358,-1024 456,-1024 456,-1060"/>
<text text-anchor="middle" x="407" y="-1039.1" font-family="Courier,monospace" font-size="11.00">ThemeHelpers</text>
</a>
</g>
<!-- \\SubstitutionTemplate -->
<g id="node19" class="node"><title>\\SubstitutionTemplate</title>
<a xlink:href="classes.SubstitutionTemplate.class.html" xlink:title="SubstitutionTemplate" target="_parent">
<polygon fill="none" stroke="black" points="483,-1006 331,-1006 331,-970 483,-970 483,-1006"/>
<text text-anchor="middle" x="407" y="-985.1" font-family="Courier,monospace" font-size="11.00">SubstitutionTemplate</text>
</a>
</g>
<!-- \\ClassAutoloader -->
<g id="node20" class="node"><title>\\ClassAutoloader</title>
<a xlink:href="classes.ClassAutoloader.class.html" xlink:title="ClassAutoloader" target="_parent">
<polygon fill="none" stroke="black" points="466,-952 348,-952 348,-916 466,-916 466,-952"/>
<text text-anchor="middle" x="407" y="-931.1" font-family="Courier,monospace" font-size="11.00">ClassAutoloader</text>
</a>
</g>
<!-- \\RemoveSpacesWalkerNavMenu -->
<g id="node21" class="node"><title>\\RemoveSpacesWalkerNavMenu</title>
<a xlink:href="classes.RemoveSpacesWalkerNavMenu.class.html" xlink:title="RemoveSpacesWalkerNavMenu" target="_parent">
<polygon fill="none" stroke="black" points="499,-88 315,-88 315,-52 499,-52 499,-88"/>
<text text-anchor="middle" x="407" y="-67.1" font-family="Courier,monospace" font-size="11.00">RemoveSpacesWalkerNavMenu</text>
</a>
</g>
<!-- \\RemoveSpacesWalkerNavMenu&#45;&gt;\\Walker_Nav_Menu -->
<g id="edge9" class="edge"><title>\\RemoveSpacesWalkerNavMenu&#45;&gt;\\Walker_Nav_Menu</title>
<path fill="none" stroke="black" d="M314.234,-53.974C274.751,-47.153 229.019,-39.2525 190.487,-32.5958"/>
<polygon fill="none" stroke="black" points="190.79,-29.0963 180.34,-30.8427 189.598,-35.9941 190.79,-29.0963"/>
</g>
<!-- \\SpecialOffersSnippet -->
<g id="node22" class="node"><title>\\SpecialOffersSnippet</title>
<a xlink:href="classes.SpecialOffersSnippet.class.html" xlink:title="SpecialOffersSnippet" target="_parent">
<polygon fill="none" stroke="black" points="483,-844 331,-844 331,-808 483,-808 483,-844"/>
<text text-anchor="middle" x="407" y="-823.1" font-family="Courier,monospace" font-size="11.00">SpecialOffersSnippet</text>
</a>
</g>
<!-- \\HashAnchorWalkerNavMenu -->
<g id="node23" class="node"><title>\\HashAnchorWalkerNavMenu</title>
<a xlink:href="classes.HashAnchorWalkerNavMenu.class.html" xlink:title="HashAnchorWalkerNavMenu" target="_parent">
<polygon fill="none" stroke="black" points="493,-250 321,-250 321,-214 493,-214 493,-250"/>
<text text-anchor="middle" x="407" y="-229.1" font-family="Courier,monospace" font-size="11.00">HashAnchorWalkerNavMenu</text>
</a>
</g>
<!-- \\HashAnchorWalkerNavMenu&#45;&gt;\\Walker_Nav_Menu -->
<g id="edge11" class="edge"><title>\\HashAnchorWalkerNavMenu&#45;&gt;\\Walker_Nav_Menu</title>
<path fill="none" stroke="black" d="M320.828,-224.009C307.496,-219.818 294.643,-213.743 284,-205 222.175,-154.211 274.114,-90.4342 212,-40 208.808,-37.4084 205.388,-35.0991 201.802,-33.0427"/>
<polygon fill="none" stroke="black" points="203.09,-29.774 192.58,-28.4355 199.961,-36.0359 203.09,-29.774"/>
</g>
<!-- \\MinigalleryBigImageWithThumbs -->
<g id="node24" class="node"><title>\\MinigalleryBigImageWithThumbs</title>
<a xlink:href="classes.MinigalleryBigImageWithThumbs.class.html" xlink:title="MinigalleryBigImageWithThumbs" target="_parent">
<polygon fill="none" stroke="black" points="513,-1600 301,-1600 301,-1564 513,-1564 513,-1600"/>
<text text-anchor="middle" x="407" y="-1579.1" font-family="Courier,monospace" font-size="11.00">MinigalleryBigImageWithThumbs</text>
</a>
</g>
<!-- \\MinigalleryBigImageWithThumbs&#45;&gt;\\GalleryHelper -->
<g id="edge13" class="edge"><title>\\MinigalleryBigImageWithThumbs&#45;&gt;\\GalleryHelper</title>
<path fill="none" stroke="black" d="M300.82,-1564.84C294.899,-1562.02 289.236,-1558.77 284,-1555 187.317,-1485.47 133.676,-1345.69 114.359,-1286.03"/>
<polygon fill="none" stroke="black" points="117.598,-1284.66 111.249,-1276.18 110.923,-1286.77 117.598,-1284.66"/>
</g>
<!-- \\GeneratorDictionary -->
<g id="node25" class="node"><title>\\GeneratorDictionary</title>
<a xlink:href="classes.GeneratorDictionary.class.html" xlink:title="GeneratorDictionary" target="_parent">
<polygon fill="none" stroke="black" points="178,-574 34,-574 34,-538 178,-538 178,-574"/>
<text text-anchor="middle" x="106" y="-553.1" font-family="Courier,monospace" font-size="11.00">GeneratorDictionary</text>
</a>
</g>
<!-- \\MinigalleryThumbsLinkToBig -->
<g id="node26" class="node"><title>\\MinigalleryThumbsLinkToBig</title>
<a xlink:href="classes.MinigalleryThumbsLinkToBig.class.html" xlink:title="MinigalleryThumbsLinkToBig" target="_parent">
<polygon fill="none" stroke="black" points="503,-1276 311,-1276 311,-1240 503,-1240 503,-1276"/>
<text text-anchor="middle" x="407" y="-1255.1" font-family="Courier,monospace" font-size="11.00">MinigalleryThumbsLinkToBig</text>
</a>
</g>
<!-- \\MinigalleryThumbsLinkToBig&#45;&gt;\\GalleryHelper -->
<g id="edge15" class="edge"><title>\\MinigalleryThumbsLinkToBig&#45;&gt;\\GalleryHelper</title>
<path fill="none" stroke="black" d="M310.934,-1258C264.462,-1258 209.986,-1258 168.886,-1258"/>
<polygon fill="none" stroke="black" points="168.738,-1254.5 158.738,-1258 168.738,-1261.5 168.738,-1254.5"/>
</g>
<!-- \\EscapeRoute -->
<g id="node27" class="node"><title>\\EscapeRoute</title>
<a xlink:href="classes.EscapeRoute.class.html" xlink:title="EscapeRoute" target="_parent">
<polygon fill="none" stroke="black" points="452,-628 362,-628 362,-592 452,-592 452,-628"/>
<text text-anchor="middle" x="407" y="-607.1" font-family="Courier,monospace" font-size="11.00">EscapeRoute</text>
</a>
</g>
<!-- \\DefaultAssetsCDN -->
<g id="node28" class="node"><title>\\DefaultAssetsCDN</title>
<a xlink:href="classes.DefaultAssetsCDN.class.html" xlink:title="DefaultAssetsCDN" target="_parent">
<polygon fill="none" stroke="black" points="469,-736 345,-736 345,-700 469,-700 469,-736"/>
<text text-anchor="middle" x="407" y="-715.1" font-family="Courier,monospace" font-size="11.00">DefaultAssetsCDN</text>
</a>
</g>
<!-- \\DefaultAssetsCDN&#45;&gt;\\DefaultAssets -->
<g id="edge17" class="edge"><title>\\DefaultAssetsCDN&#45;&gt;\\DefaultAssets</title>
<path fill="none" stroke="black" d="M344.267,-718C292.579,-718 219.66,-718 168.136,-718"/>
<polygon fill="none" stroke="black" points="168.13,-714.5 158.129,-718 168.129,-721.5 168.13,-714.5"/>
</g>
<!-- \\GaussianMath -->
<g id="node29" class="node"><title>\\GaussianMath</title>
<a xlink:href="classes.GaussianMath.class.html" xlink:title="GaussianMath" target="_parent">
<polygon fill="none" stroke="black" points="456,-520 358,-520 358,-484 456,-484 456,-520"/>
<text text-anchor="middle" x="407" y="-499.1" font-family="Courier,monospace" font-size="11.00">GaussianMath</text>
</a>
</g>
<!-- \\RuntimeInfos -->
<g id="node30" class="node"><title>\\RuntimeInfos</title>
<a xlink:href="classes.RuntimeInfos.class.html" xlink:title="RuntimeInfos" target="_parent">
<polygon fill="none" stroke="black" points="456,-466 358,-466 358,-430 456,-430 456,-466"/>
<text text-anchor="middle" x="407" y="-445.1" font-family="Courier,monospace" font-size="11.00">RuntimeInfos</text>
</a>
</g>
<!-- \\LevelWalkerNavMenu -->
<g id="node31" class="node"><title>\\LevelWalkerNavMenu</title>
<a xlink:href="classes.LevelWalkerNavMenu.class.html" xlink:title="LevelWalkerNavMenu" target="_parent">
<polygon fill="none" stroke="black" points="476,-358 338,-358 338,-322 476,-322 476,-358"/>
<text text-anchor="middle" x="407" y="-337.1" font-family="Courier,monospace" font-size="11.00">LevelWalkerNavMenu</text>
</a>
</g>
<!-- \\LevelWalkerNavMenu&#45;&gt;\\Walker_Nav_Menu -->
<g id="edge19" class="edge"><title>\\LevelWalkerNavMenu&#45;&gt;\\Walker_Nav_Menu</title>
<path fill="none" stroke="black" d="M337.791,-338.034C318.268,-334.244 298.438,-326.847 284,-313 193.437,-226.143 303.059,-126.337 212,-40 209.247,-37.3894 206.268,-35.0537 203.118,-32.9659"/>
<polygon fill="none" stroke="black" points="204.832,-29.9143 194.412,-27.9993 201.363,-35.9945 204.832,-29.9143"/>
</g>
<!-- \\ShowItemExcerptWalkerNavMenu -->
<g id="node32" class="node"><title>\\ShowItemExcerptWalkerNavMenu</title>
<a xlink:href="classes.ShowItemExcerptWalkerNavMenu.class.html" xlink:title="ShowItemExcerptWalkerNavMenu" target="_parent">
<polygon fill="none" stroke="black" points="510,-412 304,-412 304,-376 510,-376 510,-412"/>
<text text-anchor="middle" x="407" y="-391.1" font-family="Courier,monospace" font-size="11.00">ShowItemExcerptWalkerNavMenu</text>
</a>
</g>
<!-- \\ShowItemExcerptWalkerNavMenu&#45;&gt;\\Walker_Nav_Menu -->
<g id="edge21" class="edge"><title>\\ShowItemExcerptWalkerNavMenu&#45;&gt;\\Walker_Nav_Menu</title>
<path fill="none" stroke="black" d="M303.818,-381.234C296.538,-377.472 289.799,-372.795 284,-367 178.739,-261.806 317.862,-144.59 212,-40 209.38,-37.4118 206.541,-35.0908 203.53,-33.0115"/>
<polygon fill="none" stroke="black" points="205.026,-29.8307 194.634,-27.7696 201.473,-35.8617 205.026,-29.8307"/>
</g>
<!-- \\HeadHelper -->
<g id="node34" class="node"><title>\\HeadHelper</title>
<a xlink:href="classes.HeadHelper.class.html" xlink:title="HeadHelper" target="_parent">
<polygon fill="none" stroke="black" points="449,-304 365,-304 365,-268 449,-268 449,-304"/>
<text text-anchor="middle" x="407" y="-283.1" font-family="Courier,monospace" font-size="11.00">HeadHelper</text>
</a>
</g>
<!-- \\HtmlHelper -->
<g id="node35" class="node"><title>\\HtmlHelper</title>
<a xlink:href="classes.HtmlHelper.class.html" xlink:title="HtmlHelper" target="_parent">
<polygon fill="none" stroke="black" points="449,-682 365,-682 365,-646 449,-646 449,-682"/>
<text text-anchor="middle" x="407" y="-661.1" font-family="Courier,monospace" font-size="11.00">HtmlHelper</text>
</a>
</g>
<!-- \\HtmlBuilder -->
<g id="node36" class="node"><title>\\HtmlBuilder</title>
<a xlink:href="classes.HtmlHelper.class.html" xlink:title="HtmlBuilder" target="_parent">
<polygon fill="none" stroke="black" points="151,-682 61,-682 61,-646 151,-646 151,-682"/>
<text text-anchor="middle" x="106" y="-661.1" font-family="Courier,monospace" font-size="11.00">HtmlBuilder</text>
</a>
</g>
<!-- \\HtmlHelper&#45;&gt;\\HtmlBuilder -->
<g id="edge23" class="edge"><title>\\HtmlHelper&#45;&gt;\\HtmlBuilder</title>
<path fill="none" stroke="black" d="M364.83,-664C311.791,-664 220.565,-664 161.794,-664"/>
<polygon fill="none" stroke="black" points="161.575,-660.5 151.575,-664 161.575,-667.5 161.575,-660.5"/>
</g>
<!-- \\LoremIpsumDictionary -->
<g id="node37" class="node"><title>\\LoremIpsumDictionary</title>
<a xlink:href="classes.LoremIpsumDictionary.class.html" xlink:title="LoremIpsumDictionary" target="_parent">
<polygon fill="none" stroke="black" points="483,-574 331,-574 331,-538 483,-538 483,-574"/>
<text text-anchor="middle" x="407" y="-553.1" font-family="Courier,monospace" font-size="11.00">LoremIpsumDictionary</text>
</a>
</g>
<!-- \\LoremIpsumDictionary&#45;&gt;\\GeneratorDictionary -->
<g id="edge25" class="edge"><title>\\LoremIpsumDictionary&#45;&gt;\\GeneratorDictionary</title>
<path fill="none" stroke="black" d="M330.656,-556C287.352,-556 233.128,-556 188.801,-556"/>
<polygon fill="none" stroke="black" points="188.633,-552.5 178.633,-556 188.633,-559.5 188.633,-552.5"/>
</g>
<!-- \\ImageGenerator -->
<g id="node38" class="node"><title>\\ImageGenerator</title>
<a xlink:href="classes.ImageGenerator.class.html" xlink:title="ImageGenerator" target="_parent">
<polygon fill="none" stroke="black" points="462,-142 352,-142 352,-106 462,-106 462,-142"/>
<text text-anchor="middle" x="407" y="-121.1" font-family="Courier,monospace" font-size="11.00">ImageGenerator</text>
</a>
</g>
<!-- \\PhotogalleryThumbWithFancybox -->
<g id="node39" class="node"><title>\\PhotogalleryThumbWithFancybox</title>
<a xlink:href="classes.PhotogalleryThumbWithFancybox.class.html" xlink:title="PhotogalleryThumbWithFancybox" target="_parent">
<polygon fill="none" stroke="black" points="513,-898 301,-898 301,-862 513,-862 513,-898"/>
<text text-anchor="middle" x="407" y="-877.1" font-family="Courier,monospace" font-size="11.00">PhotogalleryThumbWithFancybox</text>
</a>
</g>
<!-- \\PhotogalleryThumbWithFancybox&#45;&gt;\\GalleryHelper -->
<g id="edge27" class="edge"><title>\\PhotogalleryThumbWithFancybox&#45;&gt;\\GalleryHelper</title>
<path fill="none" stroke="black" d="M300.798,-896.587C294.846,-899.54 289.186,-902.985 284,-907 174.252,-991.961 126.598,-1163.09 111.597,-1230.15"/>
<polygon fill="none" stroke="black" points="108.162,-1229.47 109.465,-1239.98 115.003,-1230.95 108.162,-1229.47"/>
</g>
</g>
</svg>
