<?xml version="1.0" encoding="UTF-8" standalone="no"?>
<!DOCTYPE svg PUBLIC "-//W3C//DTD SVG 1.1//EN"
 "http://www.w3.org/Graphics/SVG/1.1/DTD/svg11.dtd">
<!-- Generated by graphviz version 2.26.3 (20100126.1600)
 -->
<!-- Title: G Pages: 1 -->
<svg width="554pt" height="1970pt"
 viewBox="0.00 0.00 554.00 1970.00" xmlns="http://www.w3.org/2000/svg" xmlns:xlink="http://www.w3.org/1999/xlink">
<g id="graph1" class="graph" transform="scale(1 1) rotate(0) translate(4 1966)">
<title>G</title>
<polygon fill="white" stroke="white" points="-4,5 -4,-1966 551,-1966 551,5 -4,5"/>
<g id="graph2" class="cluster"><title>cluster_global</title>
<polyline fill="none" stroke="gray" points="37,-44 526,-44 "/>
<path fill="none" stroke="gray" d="M526,-44C532,-44 538,-50 538,-56"/>
<polyline fill="none" stroke="gray" points="538,-56 538,-1942 "/>
<path fill="none" stroke="gray" d="M538,-1942C538,-1948 532,-1954 526,-1954"/>
<polyline fill="none" stroke="gray" points="526,-1954 37,-1954 "/>
<path fill="none" stroke="gray" d="M37,-1954C31,-1954 25,-1948 25,-1942"/>
<polyline fill="none" stroke="gray" points="25,-1942 25,-56 "/>
<path fill="none" stroke="gray" d="M25,-56C25,-50 31,-44 37,-44"/>
<text text-anchor="middle" x="281.5" y="-1940.1" font-family="Times Roman,serif" font-size="11.00" fill="gray">global</text>
</g>
<!-- \\ImagePreload -->
<g id="node2" class="node"><title>\\ImagePreload</title>
<a xlink:href="classes.ImagePreload.class.html" xlink:title="ImagePreload" target="_parent">
<polygon fill="none" stroke="black" points="456,-1924 358,-1924 358,-1888 456,-1888 456,-1924"/>
<text text-anchor="middle" x="407" y="-1903.1" font-family="Courier,monospace" font-size="11.00">ImagePreload</text>
</a>
</g>
<!-- \\GalleryHelper -->
<g id="node34" class="node"><title>\\GalleryHelper</title>
<a xlink:href="classes.GalleryHelper.class.html" xlink:title="«abstract»&lt;br/&gt;GalleryHelper" target="_parent">
<polygon fill="none" stroke="black" points="158,-1276 54,-1276 54,-1240 158,-1240 158,-1276"/>
<text text-anchor="start" x="72" y="-1263.43" font-family="Courier,monospace" font-size="11.00">«abstract»</text>
<text text-anchor="start" x="62" y="-1250.23" font-family="Courier,monospace" font-size="11.00">GalleryHelper</text>
</a>
</g>
<!-- \\ImagePreload&#45;&gt;\\GalleryHelper -->
<g id="edge3" class="edge"><title>\\ImagePreload&#45;&gt;\\GalleryHelper</title>
<path fill="none" stroke="black" d="M357.773,-1906.61C332.765,-1904.36 303.605,-1897.41 284,-1879 193.989,-1794.49 127.144,-1396.02 110.195,-1286.13"/>
<polygon fill="none" stroke="black" points="113.638,-1285.49 108.669,-1276.13 106.718,-1286.54 113.638,-1285.49"/>
</g>
<!-- \\SpecialOffersSnippetAjax -->
<g id="node3" class="node"><title>\\SpecialOffersSnippetAjax</title>
<a xlink:href="classes.SpecialOffersSnippetAjax.class.html" xlink:title="SpecialOffersSnippetAjax" target="_parent">
<polygon fill="none" stroke="black" points="496,-1870 318,-1870 318,-1834 496,-1834 496,-1870"/>
<text text-anchor="middle" x="407" y="-1849.1" font-family="Courier,monospace" font-size="11.00">SpecialOffersSnippetAjax</text>
</a>
</g>
<!-- \\FeatureWithAssets -->
<g id="node4" class="node"><title>\\FeatureWithAssets</title>
<a xlink:href="classes.FeatureWithAssets.class.html" xlink:title="FeatureWithAssets" target="_parent">
<polygon fill="none" stroke="black" points="472,-1816 342,-1816 342,-1780 472,-1780 472,-1816"/>
<text text-anchor="middle" x="407" y="-1795.1" font-family="Courier,monospace" font-size="11.00">FeatureWithAssets</text>
</a>
</g>
<!-- \\DefaultAssets -->
<g id="node5" class="node"><title>\\DefaultAssets</title>
<a xlink:href="classes.DefaultAssets.class.html" xlink:title="DefaultAssets" target="_parent">
<polygon fill="none" stroke="black" points="158,-736 54,-736 54,-700 158,-700 158,-736"/>
<text text-anchor="middle" x="106" y="-715.1" font-family="Courier,monospace" font-size="11.00">DefaultAssets</text>
</a>
</g>
<!-- \\AjaxImageGenerator -->
<g id="node6" class="node"><title>\\AjaxImageGenerator</title>
<a xlink:href="classes.AjaxImageGenerator.class.html" xlink:title="AjaxImageGenerator" target="_parent">
<polygon fill="none" stroke="black" points="476,-1762 338,-1762 338,-1726 476,-1726 476,-1762"/>
<text text-anchor="middle" x="407" y="-1741.1" font-family="Courier,monospace" font-size="11.00">AjaxImageGenerator</text>
</a>
</g>
<!-- \\TinyMCEExcerptCustomization -->
<g id="node7" class="node"><title>\\TinyMCEExcerptCustomization</title>
<a xlink:href="classes.TinyMCEExcerpt.class.html" xlink:title="TinyMCEExcerptCustomization" target="_parent">
<polygon fill="none" stroke="black" points="506,-1708 308,-1708 308,-1672 506,-1672 506,-1708"/>
<text text-anchor="middle" x="407" y="-1687.1" font-family="Courier,monospace" font-size="11.00">TinyMCEExcerptCustomization</text>
</a>
</g>
<!-- \\OneImageForAll -->
<g id="node8" class="node"><title>\\OneImageForAll</title>
<a xlink:href="classes.OneImageForAll.class.html" xlink:title="OneImageForAll" target="_parent">
<polygon fill="none" stroke="black" points="462,-1654 352,-1654 352,-1618 462,-1618 462,-1654"/>
<text text-anchor="middle" x="407" y="-1633.1" font-family="Courier,monospace" font-size="11.00">OneImageForAll</text>
</a>
</g>
<!-- \\OneImageForAll&#45;&gt;\\GalleryHelper -->
<g id="edge5" class="edge"><title>\\OneImageForAll&#45;&gt;\\GalleryHelper</title>
<path fill="none" stroke="black" d="M351.479,-1634.08C328.631,-1630.84 303.103,-1623.79 284,-1609 174.252,-1524.04 126.598,-1352.91 111.597,-1285.85"/>
<polygon fill="none" stroke="black" points="115.003,-1285.05 109.465,-1276.02 108.162,-1286.53 115.003,-1285.05"/>
</g>
<!-- \\NewBlogInitializator -->
<g id="node9" class="node"><title>\\NewBlogInitializator</title>
<a xlink:href="classes.NewBlogInitializator.class.html" xlink:title="NewBlogInitializator" target="_parent">
<polygon fill="none" stroke="black" points="483,-1600 331,-1600 331,-1564 483,-1564 483,-1600"/>
<text text-anchor="middle" x="407" y="-1579.1" font-family="Courier,monospace" font-size="11.00">NewBlogInitializator</text>
</a>
</g>
<!-- \\GMapDataRetriever -->
<g id="node10" class="node"><title>\\GMapDataRetriever</title>
<a xlink:href="classes.GMapDataRetriever.class.html" xlink:title="GMapDataRetriever" target="_parent">
<polygon fill="none" stroke="black" points="472,-1546 342,-1546 342,-1510 472,-1510 472,-1546"/>
<text text-anchor="middle" x="407" y="-1525.1" font-family="Courier,monospace" font-size="11.00">GMapDataRetriever</text>
</a>
</g>
<!-- \\LinksManager -->
<g id="node11" class="node"><title>\\LinksManager</title>
<a xlink:href="classes.LinksManager.class.html" xlink:title="LinksManager" target="_parent">
<polygon fill="none" stroke="black" points="456,-1492 358,-1492 358,-1456 456,-1456 456,-1492"/>
<text text-anchor="middle" x="407" y="-1471.1" font-family="Courier,monospace" font-size="11.00">LinksManager</text>
</a>
</g>
<!-- \\SimpleFieldsQuickConfig -->
<g id="node12" class="node"><title>\\SimpleFieldsQuickConfig</title>
<a xlink:href="classes.SimpleFieldsQuickConfig.class.html" xlink:title="SimpleFieldsQuickConfig" target="_parent">
<polygon fill="none" stroke="black" points="493,-1438 321,-1438 321,-1402 493,-1402 493,-1438"/>
<text text-anchor="middle" x="407" y="-1417.1" font-family="Courier,monospace" font-size="11.00">SimpleFieldsQuickConfig</text>
</a>
</g>
<!-- \\DebugUtils -->
<g id="node13" class="node"><title>\\DebugUtils</title>
<a xlink:href="classes.DebugUtils.class.html" xlink:title="DebugUtils" target="_parent">
<polygon fill="none" stroke="black" points="449,-1384 365,-1384 365,-1348 449,-1348 449,-1384"/>
<text text-anchor="middle" x="407" y="-1363.1" font-family="Courier,monospace" font-size="11.00">DebugUtils</text>
</a>
</g>
<!-- \\ForceDownload -->
<g id="node14" class="node"><title>\\ForceDownload</title>
<a xlink:href="classes.ForceDownload.class.html" xlink:title="ForceDownload" target="_parent">
<polygon fill="none" stroke="black" points="459,-1330 355,-1330 355,-1294 459,-1294 459,-1330"/>
<text text-anchor="middle" x="407" y="-1309.1" font-family="Courier,monospace" font-size="11.00">ForceDownload</text>
</a>
</g>
<!-- \\ShowTitleThumbExcerptWalkerNavMenu -->
<g id="node15" class="node"><title>\\ShowTitleThumbExcerptWalkerNavMenu</title>
<a xlink:href="classes.ShowTitleThumbExcerptWalkerNavMenu.class.html" xlink:title="ShowTitleThumbExcerptWalkerNavMenu" target="_parent">
<polygon fill="none" stroke="black" points="530,-88 284,-88 284,-52 530,-52 530,-88"/>
<text text-anchor="middle" x="407" y="-67.1" font-family="Courier,monospace" font-size="11.00">ShowTitleThumbExcerptWalkerNavMenu</text>
</a>
</g>
<!-- \\Walker_Nav_Menu -->
<g id="node44" class="node"><title>\\Walker_Nav_Menu</title>
<ellipse fill="none" stroke="black" cx="106" cy="-18" rx="104.86" ry="18.3848"/>
<text text-anchor="middle" x="106" y="-14.4" font-family="Times Roman,serif" font-size="14.00" fill="gray">\Walker_Nav_Menu</text>
</g>
<!-- \\ShowTitleThumbExcerptWalkerNavMenu&#45;&gt;\\Walker_Nav_Menu -->
<g id="edge7" class="edge"><title>\\ShowTitleThumbExcerptWalkerNavMenu&#45;&gt;\\Walker_Nav_Menu</title>
<path fill="none" stroke="black" d="M302.57,-51.9589C265.943,-45.6314 225.288,-38.6079 190.5,-32.598"/>
<polygon fill="none" stroke="black" points="190.829,-29.103 180.379,-30.8495 189.637,-36.0009 190.829,-29.103"/>
</g>
<!-- \\ShortcodeForTabs -->
<g id="node16" class="node"><title>\\ShortcodeForTabs</title>
<a xlink:href="classes.ShortcodeForTabs.class.html" xlink:title="ShortcodeForTabs" target="_parent">
<polygon fill="none" stroke="black" points="469,-1222 345,-1222 345,-1186 469,-1186 469,-1222"/>
<text text-anchor="middle" x="407" y="-1201.1" font-family="Courier,monospace" font-size="11.00">ShortcodeForTabs</text>
</a>
</g>
<!-- \\ThemeUtils -->
<g id="node17" class="node"><title>\\ThemeUtils</title>
<a xlink:href="classes.ThemeUtils.class.html" xlink:title="ThemeUtils" target="_parent">
<polygon fill="none" stroke="black" points="449,-1168 365,-1168 365,-1132 449,-1132 449,-1168"/>
<text text-anchor="middle" x="407" y="-1147.1" font-family="Courier,monospace" font-size="11.00">ThemeUtils</text>
</a>
</g>
<!-- \\LipsumGenerator -->
<g id="node18" class="node"><title>\\LipsumGenerator</title>
<a xlink:href="classes.LipsumGenerator.class.html" xlink:title="LipsumGenerator" target="_parent">
<polygon fill="none" stroke="black" points="466,-1114 348,-1114 348,-1078 466,-1078 466,-1114"/>
<text text-anchor="middle" x="407" y="-1093.1" font-family="Courier,monospace" font-size="11.00">LipsumGenerator</text>
</a>
</g>
<!-- \\ThemeHelpers -->
<g id="node19" class="node"><title>\\ThemeHelpers</title>
<a xlink:href="classes.ThemeHelpers.class.html" xlink:title="ThemeHelpers" target="_parent">
<polygon fill="none" stroke="black" points="456,-1060 358,-1060 358,-1024 456,-1024 456,-1060"/>
<text text-anchor="middle" x="407" y="-1039.1" font-family="Courier,monospace" font-size="11.00">ThemeHelpers</text>
</a>
</g>
<!-- \\SubstitutionTemplate -->
<g id="node20" class="node"><title>\\SubstitutionTemplate</title>
<a xlink:href="classes.SubstitutionTemplate.class.html" xlink:title="SubstitutionTemplate" target="_parent">
<polygon fill="none" stroke="black" points="483,-1006 331,-1006 331,-970 483,-970 483,-1006"/>
<text text-anchor="middle" x="407" y="-985.1" font-family="Courier,monospace" font-size="11.00">SubstitutionTemplate</text>
</a>
</g>
<!-- \\ClassAutoloader -->
<g id="node21" class="node"><title>\\ClassAutoloader</title>
<a xlink:href="classes.ClassAutoloader.class.html" xlink:title="ClassAutoloader" target="_parent">
<polygon fill="none" stroke="black" points="466,-952 348,-952 348,-916 466,-916 466,-952"/>
<text text-anchor="middle" x="407" y="-931.1" font-family="Courier,monospace" font-size="11.00">ClassAutoloader</text>
</a>
</g>
<!-- \\RemoveSpacesWalkerNavMenu -->
<g id="node22" class="node"><title>\\RemoveSpacesWalkerNavMenu</title>
<a xlink:href="classes.RemoveSpacesWalkerNavMenu.class.html" xlink:title="RemoveSpacesWalkerNavMenu" target="_parent">
<polygon fill="none" stroke="black" points="499,-412 315,-412 315,-376 499,-376 499,-412"/>
<text text-anchor="middle" x="407" y="-391.1" font-family="Courier,monospace" font-size="11.00">RemoveSpacesWalkerNavMenu</text>
</a>
</g>
<!-- \\RemoveSpacesWalkerNavMenu&#45;&gt;\\Walker_Nav_Menu -->
<g id="edge9" class="edge"><title>\\RemoveSpacesWalkerNavMenu&#45;&gt;\\Walker_Nav_Menu</title>
<path fill="none" stroke="black" d="M314.322,-385.923C303.033,-381.594 292.505,-375.5 284,-367 178.739,-261.806 317.862,-144.59 212,-40 209.38,-37.4118 206.541,-35.0908 203.53,-33.0115"/>
<polygon fill="none" stroke="black" points="205.026,-29.8307 194.634,-27.7696 201.473,-35.8617 205.026,-29.8307"/>
</g>
<!-- \\SpecialOffersSnippet -->
<g id="node23" class="node"><title>\\SpecialOffersSnippet</title>
<a xlink:href="classes.SpecialOffersSnippet.class.html" xlink:title="SpecialOffersSnippet" target="_parent">
<polygon fill="none" stroke="black" points="483,-844 331,-844 331,-808 483,-808 483,-844"/>
<text text-anchor="middle" x="407" y="-823.1" font-family="Courier,monospace" font-size="11.00">SpecialOffersSnippet</text>
</a>
</g>
<!-- \\HashAnchorWalkerNavMenu -->
<g id="node24" class="node"><title>\\HashAnchorWalkerNavMenu</title>
<a xlink:href="classes.HashAnchorWalkerNavMenu.class.html" xlink:title="HashAnchorWalkerNavMenu" target="_parent">
<polygon fill="none" stroke="black" points="493,-196 321,-196 321,-160 493,-160 493,-196"/>
<text text-anchor="middle" x="407" y="-175.1" font-family="Courier,monospace" font-size="11.00">HashAnchorWalkerNavMenu</text>
</a>
</g>
<!-- \\HashAnchorWalkerNavMenu&#45;&gt;\\Walker_Nav_Menu -->
<g id="edge11" class="edge"><title>\\HashAnchorWalkerNavMenu&#45;&gt;\\Walker_Nav_Menu</title>
<path fill="none" stroke="black" d="M320.706,-168.085C307.686,-164.101 294.964,-158.593 284,-151 235.659,-117.52 260.532,-73.2029 212,-40 208.04,-37.2905 203.815,-34.9026 199.418,-32.7991"/>
<polygon fill="none" stroke="black" points="200.752,-29.5632 190.18,-28.869 198.012,-36.0046 200.752,-29.5632"/>
</g>
<!-- \\MinigalleryBigImageWithThumbs -->
<g id="node25" class="node"><title>\\MinigalleryBigImageWithThumbs</title>
<a xlink:href="classes.MinigalleryBigImageWithThumbs.class.html" xlink:title="MinigalleryBigImageWithThumbs" target="_parent">
<polygon fill="none" stroke="black" points="513,-1276 301,-1276 301,-1240 513,-1240 513,-1276"/>
<text text-anchor="middle" x="407" y="-1255.1" font-family="Courier,monospace" font-size="11.00">MinigalleryBigImageWithThumbs</text>
</a>
</g>
<!-- \\MinigalleryBigImageWithThumbs&#45;&gt;\\GalleryHelper -->
<g id="edge13" class="edge"><title>\\MinigalleryBigImageWithThumbs&#45;&gt;\\GalleryHelper</title>
<path fill="none" stroke="black" d="M300.879,-1258C256.786,-1258 207.112,-1258 168.951,-1258"/>
<polygon fill="none" stroke="black" points="168.507,-1254.5 158.507,-1258 168.507,-1261.5 168.507,-1254.5"/>
</g>
<!-- \\GeneratorDictionary -->
<g id="node26" class="node"><title>\\GeneratorDictionary</title>
<a xlink:href="classes.GeneratorDictionary.class.html" xlink:title="GeneratorDictionary" target="_parent">
<polygon fill="none" stroke="black" points="178,-574 34,-574 34,-538 178,-538 178,-574"/>
<text text-anchor="middle" x="106" y="-553.1" font-family="Courier,monospace" font-size="11.00">GeneratorDictionary</text>
</a>
</g>
<!-- \\MinigalleryThumbsLinkToBig -->
<g id="node27" class="node"><title>\\MinigalleryThumbsLinkToBig</title>
<a xlink:href="classes.MinigalleryThumbsLinkToBig.class.html" xlink:title="MinigalleryThumbsLinkToBig" target="_parent">
<polygon fill="none" stroke="black" points="503,-898 311,-898 311,-862 503,-862 503,-898"/>
<text text-anchor="middle" x="407" y="-877.1" font-family="Courier,monospace" font-size="11.00">MinigalleryThumbsLinkToBig</text>
</a>
</g>
<!-- \\MinigalleryThumbsLinkToBig&#45;&gt;\\GalleryHelper -->
<g id="edge15" class="edge"><title>\\MinigalleryThumbsLinkToBig&#45;&gt;\\GalleryHelper</title>
<path fill="none" stroke="black" d="M310.851,-892.148C301.215,-895.924 292.039,-900.777 284,-907 174.252,-991.961 126.598,-1163.09 111.597,-1230.15"/>
<polygon fill="none" stroke="black" points="108.162,-1229.47 109.465,-1239.98 115.003,-1230.95 108.162,-1229.47"/>
</g>
<!-- \\EscapeRoute -->
<g id="node28" class="node"><title>\\EscapeRoute</title>
<a xlink:href="classes.EscapeRoute.class.html" xlink:title="EscapeRoute" target="_parent">
<polygon fill="none" stroke="black" points="452,-628 362,-628 362,-592 452,-592 452,-628"/>
<text text-anchor="middle" x="407" y="-607.1" font-family="Courier,monospace" font-size="11.00">EscapeRoute</text>
</a>
</g>
<!-- \\DefaultAssetsCDN -->
<g id="node29" class="node"><title>\\DefaultAssetsCDN</title>
<a xlink:href="classes.DefaultAssetsCDN.class.html" xlink:title="DefaultAssetsCDN" target="_parent">
<polygon fill="none" stroke="black" points="469,-736 345,-736 345,-700 469,-700 469,-736"/>
<text text-anchor="middle" x="407" y="-715.1" font-family="Courier,monospace" font-size="11.00">DefaultAssetsCDN</text>
</a>
</g>
<!-- \\DefaultAssetsCDN&#45;&gt;\\DefaultAssets -->
<g id="edge17" class="edge"><title>\\DefaultAssetsCDN&#45;&gt;\\DefaultAssets</title>
<path fill="none" stroke="black" d="M344.267,-718C292.579,-718 219.66,-718 168.136,-718"/>
<polygon fill="none" stroke="black" points="168.13,-714.5 158.129,-718 168.129,-721.5 168.13,-714.5"/>
</g>
<!-- \\GaussianMath -->
<g id="node30" class="node"><title>\\GaussianMath</title>
<a xlink:href="classes.GaussianMath.class.html" xlink:title="GaussianMath" target="_parent">
<polygon fill="none" stroke="black" points="456,-520 358,-520 358,-484 456,-484 456,-520"/>
<text text-anchor="middle" x="407" y="-499.1" font-family="Courier,monospace" font-size="11.00">GaussianMath</text>
</a>
</g>
<!-- \\RuntimeInfos -->
<g id="node31" class="node"><title>\\RuntimeInfos</title>
<a xlink:href="classes.RuntimeInfos.class.html" xlink:title="RuntimeInfos" target="_parent">
<polygon fill="none" stroke="black" points="456,-466 358,-466 358,-430 456,-430 456,-466"/>
<text text-anchor="middle" x="407" y="-445.1" font-family="Courier,monospace" font-size="11.00">RuntimeInfos</text>
</a>
</g>
<!-- \\LevelWalkerNavMenu -->
<g id="node32" class="node"><title>\\LevelWalkerNavMenu</title>
<a xlink:href="classes.LevelWalkerNavMenu.class.html" xlink:title="LevelWalkerNavMenu" target="_parent">
<polygon fill="none" stroke="black" points="476,-250 338,-250 338,-214 476,-214 476,-250"/>
<text text-anchor="middle" x="407" y="-229.1" font-family="Courier,monospace" font-size="11.00">LevelWalkerNavMenu</text>
</a>
</g>
<!-- \\LevelWalkerNavMenu&#45;&gt;\\Walker_Nav_Menu -->
<g id="edge19" class="edge"><title>\\LevelWalkerNavMenu&#45;&gt;\\Walker_Nav_Menu</title>
<path fill="none" stroke="black" d="M337.777,-228.355C318.701,-224.457 299.119,-217.421 284,-205 222.175,-154.211 274.114,-90.4342 212,-40 208.808,-37.4084 205.388,-35.0991 201.802,-33.0427"/>
<polygon fill="none" stroke="black" points="203.09,-29.774 192.58,-28.4355 199.961,-36.0359 203.09,-29.774"/>
</g>
<!-- \\ShowItemExcerptWalkerNavMenu -->
<g id="node33" class="node"><title>\\ShowItemExcerptWalkerNavMenu</title>
<a xlink:href="classes.ShowItemExcerptWalkerNavMenu.class.html" xlink:title="ShowItemExcerptWalkerNavMenu" target="_parent">
<polygon fill="none" stroke="black" points="510,-358 304,-358 304,-322 510,-322 510,-358"/>
<text text-anchor="middle" x="407" y="-337.1" font-family="Courier,monospace" font-size="11.00">ShowItemExcerptWalkerNavMenu</text>
</a>
</g>
<!-- \\ShowItemExcerptWalkerNavMenu&#45;&gt;\\Walker_Nav_Menu -->
<g id="edge21" class="edge"><title>\\ShowItemExcerptWalkerNavMenu&#45;&gt;\\Walker_Nav_Menu</title>
<path fill="none" stroke="black" d="M303.783,-326.822C296.558,-323.144 289.838,-318.599 284,-313 193.437,-226.143 303.059,-126.337 212,-40 209.247,-37.3894 206.268,-35.0537 203.118,-32.9659"/>
<polygon fill="none" stroke="black" points="204.832,-29.9143 194.412,-27.9993 201.363,-35.9945 204.832,-29.9143"/>
</g>
<!-- \\HeadHelper -->
<g id="node35" class="node"><title>\\HeadHelper</title>
<a xlink:href="classes.HeadHelper.class.html" xlink:title="HeadHelper" target="_parent">
<polygon fill="none" stroke="black" points="449,-304 365,-304 365,-268 449,-268 449,-304"/>
<text text-anchor="middle" x="407" y="-283.1" font-family="Courier,monospace" font-size="11.00">HeadHelper</text>
</a>
</g>
<!-- \\HtmlHelper -->
<g id="node36" class="node"><title>\\HtmlHelper</title>
<a xlink:href="classes.HtmlHelper.class.html" xlink:title="HtmlHelper" target="_parent">
<polygon fill="none" stroke="black" points="449,-682 365,-682 365,-646 449,-646 449,-682"/>
<text text-anchor="middle" x="407" y="-661.1" font-family="Courier,monospace" font-size="11.00">HtmlHelper</text>
</a>
</g>
<!-- \\HtmlBuilder -->
<g id="node37" class="node"><title>\\HtmlBuilder</title>
<a xlink:href="classes.HtmlHelper.class.html" xlink:title="HtmlBuilder" target="_parent">
<polygon fill="none" stroke="black" points="151,-682 61,-682 61,-646 151,-646 151,-682"/>
<text text-anchor="middle" x="106" y="-661.1" font-family="Courier,monospace" font-size="11.00">HtmlBuilder</text>
</a>
</g>
<!-- \\HtmlHelper&#45;&gt;\\HtmlBuilder -->
<g id="edge23" class="edge"><title>\\HtmlHelper&#45;&gt;\\HtmlBuilder</title>
<path fill="none" stroke="black" d="M364.83,-664C311.791,-664 220.565,-664 161.794,-664"/>
<polygon fill="none" stroke="black" points="161.575,-660.5 151.575,-664 161.575,-667.5 161.575,-660.5"/>
</g>
<!-- \\LoremIpsumDictionary -->
<g id="node38" class="node"><title>\\LoremIpsumDictionary</title>
<a xlink:href="classes.LoremIpsumDictionary.class.html" xlink:title="LoremIpsumDictionary" target="_parent">
<polygon fill="none" stroke="black" points="483,-574 331,-574 331,-538 483,-538 483,-574"/>
<text text-anchor="middle" x="407" y="-553.1" font-family="Courier,monospace" font-size="11.00">LoremIpsumDictionary</text>
</a>
</g>
<!-- \\LoremIpsumDictionary&#45;&gt;\\GeneratorDictionary -->
<g id="edge25" class="edge"><title>\\LoremIpsumDictionary&#45;&gt;\\GeneratorDictionary</title>
<path fill="none" stroke="black" d="M330.656,-556C287.352,-556 233.128,-556 188.801,-556"/>
<polygon fill="none" stroke="black" points="188.633,-552.5 178.633,-556 188.633,-559.5 188.633,-552.5"/>
</g>
<!-- \\ImageGenerator -->
<g id="node39" class="node"><title>\\ImageGenerator</title>
<a xlink:href="classes.ImageGenerator.class.html" xlink:title="ImageGenerator" target="_parent">
<polygon fill="none" stroke="black" points="462,-142 352,-142 352,-106 462,-106 462,-142"/>
<text text-anchor="middle" x="407" y="-121.1" font-family="Courier,monospace" font-size="11.00">ImageGenerator</text>
</a>
</g>
<!-- \\PhotogalleryThumbWithFancybox -->
<g id="node40" class="node"><title>\\PhotogalleryThumbWithFancybox</title>
<a xlink:href="classes.PhotogalleryThumbWithFancybox.class.html" xlink:title="PhotogalleryThumbWithFancybox" target="_parent">
<polygon fill="none" stroke="black" points="513,-790 301,-790 301,-754 513,-754 513,-790"/>
<text text-anchor="middle" x="407" y="-769.1" font-family="Courier,monospace" font-size="11.00">PhotogalleryThumbWithFancybox</text>
</a>
</g>
<!-- \\PhotogalleryThumbWithFancybox&#45;&gt;\\GalleryHelper -->
<g id="edge27" class="edge"><title>\\PhotogalleryThumbWithFancybox&#45;&gt;\\GalleryHelper</title>
<path fill="none" stroke="black" d="M300.901,-787.689C294.85,-790.852 289.146,-794.59 284,-799 148.249,-915.321 115.501,-1147.97 108.062,-1229.21"/>
<polygon fill="none" stroke="black" points="104.535,-1229.38 107.173,-1239.64 111.51,-1229.97 104.535,-1229.38"/>
</g>
</g>
</svg>
