<?xml version="1.0" encoding="UTF-8" standalone="no"?>
<!DOCTYPE svg PUBLIC "-//W3C//DTD SVG 1.1//EN"
 "http://www.w3.org/Graphics/SVG/1.1/DTD/svg11.dtd">
<!-- Generated by graphviz version 2.26.3 (20100126.1600)
 -->
<!-- Title: G Pages: 1 -->
<svg width="774pt" height="1862pt"
 viewBox="0.00 0.00 774.00 1862.00" xmlns="http://www.w3.org/2000/svg" xmlns:xlink="http://www.w3.org/1999/xlink">
<g id="graph1" class="graph" transform="scale(1 1) rotate(0) translate(4 1858)">
<title>G</title>
<polygon fill="white" stroke="white" points="-4,5 -4,-1858 771,-1858 771,5 -4,5"/>
<g id="graph2" class="cluster"><title>cluster_global</title>
<polyline fill="none" stroke="gray" points="20,-44 746,-44 "/>
<path fill="none" stroke="gray" d="M746,-44C752,-44 758,-50 758,-56"/>
<polyline fill="none" stroke="gray" points="758,-56 758,-1834 "/>
<path fill="none" stroke="gray" d="M758,-1834C758,-1840 752,-1846 746,-1846"/>
<polyline fill="none" stroke="gray" points="746,-1846 20,-1846 "/>
<path fill="none" stroke="gray" d="M20,-1846C14,-1846 8,-1840 8,-1834"/>
<polyline fill="none" stroke="gray" points="8,-1834 8,-56 "/>
<path fill="none" stroke="gray" d="M8,-56C8,-50 14,-44 20,-44"/>
<text text-anchor="middle" x="383" y="-1832.1" font-family="Times Roman,serif" font-size="11.00" fill="gray">global</text>
</g>
<!-- \\ImagePreload -->
<g id="node2" class="node"><title>\\ImagePreload</title>
<a xlink:href="classes.ImagePreload.class.html" xlink:title="ImagePreload" target="_parent">
<polygon fill="none" stroke="black" points="676,-898 578,-898 578,-862 676,-862 676,-898"/>
<text text-anchor="middle" x="627" y="-877.1" font-family="Courier,monospace" font-size="11.00">ImagePreload</text>
</a>
</g>
<!-- \\GalleryHelper -->
<g id="node33" class="node"><title>\\GalleryHelper</title>
<a xlink:href="classes.GalleryHelper.class.html" xlink:title="«abstract»&lt;br/&gt;GalleryHelper" target="_parent">
<polygon fill="none" stroke="black" points="378,-1276 274,-1276 274,-1240 378,-1240 378,-1276"/>
<text text-anchor="start" x="292" y="-1263.43" font-family="Courier,monospace" font-size="11.00">«abstract»</text>
<text text-anchor="start" x="282" y="-1250.23" font-family="Courier,monospace" font-size="11.00">GalleryHelper</text>
</a>
</g>
<!-- \\ImagePreload&#45;&gt;\\GalleryHelper -->
<g id="edge3" class="edge"><title>\\ImagePreload&#45;&gt;\\GalleryHelper</title>
<path fill="none" stroke="black" d="M577.912,-881.096C553.541,-883.889 524.918,-890.806 504,-907 394.252,-991.961 346.598,-1163.09 331.597,-1230.15"/>
<polygon fill="none" stroke="black" points="328.162,-1229.47 329.465,-1239.98 335.003,-1230.95 328.162,-1229.47"/>
</g>
<!-- \\SpecialOffersSnippetAjax -->
<g id="node3" class="node"><title>\\SpecialOffersSnippetAjax</title>
<a xlink:href="classes.SpecialOffersSnippetAjax.class.html" xlink:title="SpecialOffersSnippetAjax" target="_parent">
<polygon fill="none" stroke="black" points="716,-1762 538,-1762 538,-1726 716,-1726 716,-1762"/>
<text text-anchor="middle" x="627" y="-1741.1" font-family="Courier,monospace" font-size="11.00">SpecialOffersSnippetAjax</text>
</a>
</g>
<!-- \\FeatureWithAssets -->
<g id="node4" class="node"><title>\\FeatureWithAssets</title>
<a xlink:href="classes.FeatureWithAssets.class.html" xlink:title="FeatureWithAssets" target="_parent">
<polygon fill="none" stroke="black" points="147,-1276 17,-1276 17,-1240 147,-1240 147,-1276"/>
<text text-anchor="middle" x="82" y="-1255.1" font-family="Courier,monospace" font-size="11.00">FeatureWithAssets</text>
</a>
</g>
<!-- \\DefaultAssets -->
<g id="node5" class="node"><title>\\DefaultAssets</title>
<a xlink:href="classes.DefaultAssets.class.html" xlink:title="DefaultAssets" target="_parent">
<polygon fill="none" stroke="black" points="378,-736 274,-736 274,-700 378,-700 378,-736"/>
<text text-anchor="middle" x="326" y="-715.1" font-family="Courier,monospace" font-size="11.00">DefaultAssets</text>
</a>
</g>
<!-- \\AjaxImageGenerator -->
<g id="node6" class="node"><title>\\AjaxImageGenerator</title>
<a xlink:href="classes.AjaxImageGenerator.class.html" xlink:title="AjaxImageGenerator" target="_parent">
<polygon fill="none" stroke="black" points="696,-1708 558,-1708 558,-1672 696,-1672 696,-1708"/>
<text text-anchor="middle" x="627" y="-1687.1" font-family="Courier,monospace" font-size="11.00">AjaxImageGenerator</text>
</a>
</g>
<!-- \\TinyMCEExcerptCustomization -->
<g id="node7" class="node"><title>\\TinyMCEExcerptCustomization</title>
<a xlink:href="classes.TinyMCEExcerpt.class.html" xlink:title="TinyMCEExcerptCustomization" target="_parent">
<polygon fill="none" stroke="black" points="726,-1654 528,-1654 528,-1618 726,-1618 726,-1654"/>
<text text-anchor="middle" x="627" y="-1633.1" font-family="Courier,monospace" font-size="11.00">TinyMCEExcerptCustomization</text>
</a>
</g>
<!-- \\OneImageForAll -->
<g id="node8" class="node"><title>\\OneImageForAll</title>
<a xlink:href="classes.OneImageForAll.class.html" xlink:title="OneImageForAll" target="_parent">
<polygon fill="none" stroke="black" points="682,-790 572,-790 572,-754 682,-754 682,-790"/>
<text text-anchor="middle" x="627" y="-769.1" font-family="Courier,monospace" font-size="11.00">OneImageForAll</text>
</a>
</g>
<!-- \\OneImageForAll&#45;&gt;\\GalleryHelper -->
<g id="edge5" class="edge"><title>\\OneImageForAll&#45;&gt;\\GalleryHelper</title>
<path fill="none" stroke="black" d="M571.367,-772.935C548.23,-775.972 522.511,-783.139 504,-799 368.249,-915.321 335.501,-1147.97 328.062,-1229.21"/>
<polygon fill="none" stroke="black" points="324.535,-1229.38 327.173,-1239.64 331.51,-1229.97 324.535,-1229.38"/>
</g>
<!-- \\NewBlogInitializator -->
<g id="node9" class="node"><title>\\NewBlogInitializator</title>
<a xlink:href="classes.NewBlogInitializator.class.html" xlink:title="NewBlogInitializator" target="_parent">
<polygon fill="none" stroke="black" points="703,-1546 551,-1546 551,-1510 703,-1510 703,-1546"/>
<text text-anchor="middle" x="627" y="-1525.1" font-family="Courier,monospace" font-size="11.00">NewBlogInitializator</text>
</a>
</g>
<!-- \\GMapDataRetriever -->
<g id="node10" class="node"><title>\\GMapDataRetriever</title>
<a xlink:href="classes.GMapDataRetriever.class.html" xlink:title="GMapDataRetriever" target="_parent">
<polygon fill="none" stroke="black" points="692,-1492 562,-1492 562,-1456 692,-1456 692,-1492"/>
<text text-anchor="middle" x="627" y="-1471.1" font-family="Courier,monospace" font-size="11.00">GMapDataRetriever</text>
</a>
</g>
<!-- \\SimpleFieldsQuickConfig -->
<g id="node11" class="node"><title>\\SimpleFieldsQuickConfig</title>
<a xlink:href="classes.SimpleFieldsQuickConfig.class.html" xlink:title="SimpleFieldsQuickConfig" target="_parent">
<polygon fill="none" stroke="black" points="713,-1438 541,-1438 541,-1402 713,-1402 713,-1438"/>
<text text-anchor="middle" x="627" y="-1417.1" font-family="Courier,monospace" font-size="11.00">SimpleFieldsQuickConfig</text>
</a>
</g>
<!-- \\DebugUtils -->
<g id="node12" class="node"><title>\\DebugUtils</title>
<a xlink:href="classes.DebugUtils.class.html" xlink:title="DebugUtils" target="_parent">
<polygon fill="none" stroke="black" points="669,-1384 585,-1384 585,-1348 669,-1348 669,-1384"/>
<text text-anchor="middle" x="627" y="-1363.1" font-family="Courier,monospace" font-size="11.00">DebugUtils</text>
</a>
</g>
<!-- \\ForceDownload -->
<g id="node13" class="node"><title>\\ForceDownload</title>
<a xlink:href="classes.ForceDownload.class.html" xlink:title="ForceDownload" target="_parent">
<polygon fill="none" stroke="black" points="679,-1330 575,-1330 575,-1294 679,-1294 679,-1330"/>
<text text-anchor="middle" x="627" y="-1309.1" font-family="Courier,monospace" font-size="11.00">ForceDownload</text>
</a>
</g>
<!-- \\ShowTitleThumbExcerptWalkerNavMenu -->
<g id="node14" class="node"><title>\\ShowTitleThumbExcerptWalkerNavMenu</title>
<a xlink:href="classes.ShowTitleThumbExcerptWalkerNavMenu.class.html" xlink:title="ShowTitleThumbExcerptWalkerNavMenu" target="_parent">
<polygon fill="none" stroke="black" points="750,-250 504,-250 504,-214 750,-214 750,-250"/>
<text text-anchor="middle" x="627" y="-229.1" font-family="Courier,monospace" font-size="11.00">ShowTitleThumbExcerptWalkerNavMenu</text>
</a>
</g>
<!-- \\Walker_Nav_Menu -->
<g id="node43" class="node"><title>\\Walker_Nav_Menu</title>
<ellipse fill="none" stroke="black" cx="326" cy="-18" rx="104.86" ry="18.3848"/>
<text text-anchor="middle" x="326" y="-14.4" font-family="Times Roman,serif" font-size="14.00" fill="gray">\Walker_Nav_Menu</text>
</g>
<!-- \\ShowTitleThumbExcerptWalkerNavMenu&#45;&gt;\\Walker_Nav_Menu -->
<g id="edge7" class="edge"><title>\\ShowTitleThumbExcerptWalkerNavMenu&#45;&gt;\\Walker_Nav_Menu</title>
<path fill="none" stroke="black" d="M517.03,-213.874C512.43,-211.274 508.054,-208.331 504,-205 442.175,-154.211 494.114,-90.4342 432,-40 428.808,-37.4084 425.388,-35.0991 421.802,-33.0427"/>
<polygon fill="none" stroke="black" points="423.09,-29.774 412.58,-28.4355 419.961,-36.0359 423.09,-29.774"/>
</g>
<!-- \\ShortcodeForTabs -->
<g id="node15" class="node"><title>\\ShortcodeForTabs</title>
<a xlink:href="classes.ShortcodeForTabs.class.html" xlink:title="ShortcodeForTabs" target="_parent">
<polygon fill="none" stroke="black" points="689,-1222 565,-1222 565,-1186 689,-1186 689,-1222"/>
<text text-anchor="middle" x="627" y="-1201.1" font-family="Courier,monospace" font-size="11.00">ShortcodeForTabs</text>
</a>
</g>
<!-- \\ThemeUtils -->
<g id="node16" class="node"><title>\\ThemeUtils</title>
<a xlink:href="classes.ThemeUtils.class.html" xlink:title="ThemeUtils" target="_parent">
<polygon fill="none" stroke="black" points="669,-1168 585,-1168 585,-1132 669,-1132 669,-1168"/>
<text text-anchor="middle" x="627" y="-1147.1" font-family="Courier,monospace" font-size="11.00">ThemeUtils</text>
</a>
</g>
<!-- \\LipsumGenerator -->
<g id="node17" class="node"><title>\\LipsumGenerator</title>
<a xlink:href="classes.LipsumGenerator.class.html" xlink:title="LipsumGenerator" target="_parent">
<polygon fill="none" stroke="black" points="686,-1114 568,-1114 568,-1078 686,-1078 686,-1114"/>
<text text-anchor="middle" x="627" y="-1093.1" font-family="Courier,monospace" font-size="11.00">LipsumGenerator</text>
</a>
</g>
<!-- \\ThemeHelpers -->
<g id="node18" class="node"><title>\\ThemeHelpers</title>
<a xlink:href="classes.ThemeHelpers.class.html" xlink:title="ThemeHelpers" target="_parent">
<polygon fill="none" stroke="black" points="676,-1060 578,-1060 578,-1024 676,-1024 676,-1060"/>
<text text-anchor="middle" x="627" y="-1039.1" font-family="Courier,monospace" font-size="11.00">ThemeHelpers</text>
</a>
</g>
<!-- \\SubstitutionTemplate -->
<g id="node19" class="node"><title>\\SubstitutionTemplate</title>
<a xlink:href="classes.SubstitutionTemplate.class.html" xlink:title="SubstitutionTemplate" target="_parent">
<polygon fill="none" stroke="black" points="703,-1006 551,-1006 551,-970 703,-970 703,-1006"/>
<text text-anchor="middle" x="627" y="-985.1" font-family="Courier,monospace" font-size="11.00">SubstitutionTemplate</text>
</a>
</g>
<!-- \\ClassAutoloader -->
<g id="node20" class="node"><title>\\ClassAutoloader</title>
<a xlink:href="classes.ClassAutoloader.class.html" xlink:title="ClassAutoloader" target="_parent">
<polygon fill="none" stroke="black" points="686,-952 568,-952 568,-916 686,-916 686,-952"/>
<text text-anchor="middle" x="627" y="-931.1" font-family="Courier,monospace" font-size="11.00">ClassAutoloader</text>
</a>
</g>
<!-- \\RemoveSpacesWalkerNavMenu -->
<g id="node21" class="node"><title>\\RemoveSpacesWalkerNavMenu</title>
<a xlink:href="classes.RemoveSpacesWalkerNavMenu.class.html" xlink:title="RemoveSpacesWalkerNavMenu" target="_parent">
<polygon fill="none" stroke="black" points="719,-196 535,-196 535,-160 719,-160 719,-196"/>
<text text-anchor="middle" x="627" y="-175.1" font-family="Courier,monospace" font-size="11.00">RemoveSpacesWalkerNavMenu</text>
</a>
</g>
<!-- \\RemoveSpacesWalkerNavMenu&#45;&gt;\\Walker_Nav_Menu -->
<g id="edge9" class="edge"><title>\\RemoveSpacesWalkerNavMenu&#45;&gt;\\Walker_Nav_Menu</title>
<path fill="none" stroke="black" d="M534.333,-166C523.562,-162.239 513.166,-157.348 504,-151 455.659,-117.52 480.532,-73.2029 432,-40 428.04,-37.2905 423.815,-34.9026 419.418,-32.7991"/>
<polygon fill="none" stroke="black" points="420.752,-29.5632 410.18,-28.869 418.012,-36.0046 420.752,-29.5632"/>
</g>
<!-- \\SpecialOffersSnippet -->
<g id="node22" class="node"><title>\\SpecialOffersSnippet</title>
<a xlink:href="classes.SpecialOffersSnippet.class.html" xlink:title="SpecialOffersSnippet" target="_parent">
<polygon fill="none" stroke="black" points="703,-844 551,-844 551,-808 703,-808 703,-844"/>
<text text-anchor="middle" x="627" y="-823.1" font-family="Courier,monospace" font-size="11.00">SpecialOffersSnippet</text>
</a>
</g>
<!-- \\HashAnchorWalkerNavMenu -->
<g id="node23" class="node"><title>\\HashAnchorWalkerNavMenu</title>
<a xlink:href="classes.HashAnchorWalkerNavMenu.class.html" xlink:title="HashAnchorWalkerNavMenu" target="_parent">
<polygon fill="none" stroke="black" points="713,-358 541,-358 541,-322 713,-322 713,-358"/>
<text text-anchor="middle" x="627" y="-337.1" font-family="Courier,monospace" font-size="11.00">HashAnchorWalkerNavMenu</text>
</a>
</g>
<!-- \\HashAnchorWalkerNavMenu&#45;&gt;\\Walker_Nav_Menu -->
<g id="edge11" class="edge"><title>\\HashAnchorWalkerNavMenu&#45;&gt;\\Walker_Nav_Menu</title>
<path fill="none" stroke="black" d="M540.89,-333.764C527.234,-329.418 514.256,-322.836 504,-313 413.437,-226.143 523.059,-126.337 432,-40 429.247,-37.3894 426.268,-35.0537 423.118,-32.9659"/>
<polygon fill="none" stroke="black" points="424.832,-29.9143 414.412,-27.9993 421.363,-35.9945 424.832,-29.9143"/>
</g>
<!-- \\MinigalleryBigImageWithThumbs -->
<g id="node24" class="node"><title>\\MinigalleryBigImageWithThumbs</title>
<a xlink:href="classes.MinigalleryBigImageWithThumbs.class.html" xlink:title="MinigalleryBigImageWithThumbs" target="_parent">
<polygon fill="none" stroke="black" points="733,-1816 521,-1816 521,-1780 733,-1780 733,-1816"/>
<text text-anchor="middle" x="627" y="-1795.1" font-family="Courier,monospace" font-size="11.00">MinigalleryBigImageWithThumbs</text>
</a>
</g>
<!-- \\MinigalleryBigImageWithThumbs&#45;&gt;\\GalleryHelper -->
<g id="edge13" class="edge"><title>\\MinigalleryBigImageWithThumbs&#45;&gt;\\GalleryHelper</title>
<path fill="none" stroke="black" d="M520.715,-1782.52C514.709,-1779.31 509.066,-1775.5 504,-1771 427.754,-1703.25 353.228,-1383.51 331.99,-1286.18"/>
<polygon fill="none" stroke="black" points="335.365,-1285.23 329.829,-1276.2 328.524,-1286.71 335.365,-1285.23"/>
</g>
<!-- \\GeneratorDictionary -->
<g id="node25" class="node"><title>\\GeneratorDictionary</title>
<a xlink:href="classes.GeneratorDictionary.class.html" xlink:title="GeneratorDictionary" target="_parent">
<polygon fill="none" stroke="black" points="398,-574 254,-574 254,-538 398,-538 398,-574"/>
<text text-anchor="middle" x="326" y="-553.1" font-family="Courier,monospace" font-size="11.00">GeneratorDictionary</text>
</a>
</g>
<!-- \\MinigalleryThumbsLinkToBig -->
<g id="node26" class="node"><title>\\MinigalleryThumbsLinkToBig</title>
<a xlink:href="classes.MinigalleryThumbsLinkToBig.class.html" xlink:title="MinigalleryThumbsLinkToBig" target="_parent">
<polygon fill="none" stroke="black" points="723,-1600 531,-1600 531,-1564 723,-1564 723,-1600"/>
<text text-anchor="middle" x="627" y="-1579.1" font-family="Courier,monospace" font-size="11.00">MinigalleryThumbsLinkToBig</text>
</a>
</g>
<!-- \\MinigalleryThumbsLinkToBig&#45;&gt;\\GalleryHelper -->
<g id="edge15" class="edge"><title>\\MinigalleryThumbsLinkToBig&#45;&gt;\\GalleryHelper</title>
<path fill="none" stroke="black" d="M530.969,-1569.16C521.366,-1565.51 512.165,-1560.87 504,-1555 407.317,-1485.47 353.676,-1345.69 334.359,-1286.03"/>
<polygon fill="none" stroke="black" points="337.598,-1284.66 331.249,-1276.18 330.923,-1286.77 337.598,-1284.66"/>
</g>
<!-- \\EscapeRoute -->
<g id="node27" class="node"><title>\\EscapeRoute</title>
<a xlink:href="classes.EscapeRoute.class.html" xlink:title="EscapeRoute" target="_parent">
<polygon fill="none" stroke="black" points="672,-628 582,-628 582,-592 672,-592 672,-628"/>
<text text-anchor="middle" x="627" y="-607.1" font-family="Courier,monospace" font-size="11.00">EscapeRoute</text>
</a>
</g>
<!-- \\DefaultAssetsCDN -->
<g id="node28" class="node"><title>\\DefaultAssetsCDN</title>
<a xlink:href="classes.DefaultAssetsCDN.class.html" xlink:title="DefaultAssetsCDN" target="_parent">
<polygon fill="none" stroke="black" points="689,-736 565,-736 565,-700 689,-700 689,-736"/>
<text text-anchor="middle" x="627" y="-715.1" font-family="Courier,monospace" font-size="11.00">DefaultAssetsCDN</text>
</a>
</g>
<!-- \\DefaultAssetsCDN&#45;&gt;\\DefaultAssets -->
<g id="edge17" class="edge"><title>\\DefaultAssetsCDN&#45;&gt;\\DefaultAssets</title>
<path fill="none" stroke="black" d="M564.267,-718C512.579,-718 439.66,-718 388.136,-718"/>
<polygon fill="none" stroke="black" points="388.13,-714.5 378.129,-718 388.129,-721.5 388.13,-714.5"/>
</g>
<!-- \\GaussianMath -->
<g id="node29" class="node"><title>\\GaussianMath</title>
<a xlink:href="classes.GaussianMath.class.html" xlink:title="GaussianMath" target="_parent">
<polygon fill="none" stroke="black" points="676,-520 578,-520 578,-484 676,-484 676,-520"/>
<text text-anchor="middle" x="627" y="-499.1" font-family="Courier,monospace" font-size="11.00">GaussianMath</text>
</a>
</g>
<!-- \\RuntimeInfos -->
<g id="node30" class="node"><title>\\RuntimeInfos</title>
<a xlink:href="classes.RuntimeInfos.class.html" xlink:title="RuntimeInfos" target="_parent">
<polygon fill="none" stroke="black" points="676,-466 578,-466 578,-430 676,-430 676,-466"/>
<text text-anchor="middle" x="627" y="-445.1" font-family="Courier,monospace" font-size="11.00">RuntimeInfos</text>
</a>
</g>
<!-- \\LevelWalkerNavMenu -->
<g id="node31" class="node"><title>\\LevelWalkerNavMenu</title>
<a xlink:href="classes.LevelWalkerNavMenu.class.html" xlink:title="LevelWalkerNavMenu" target="_parent">
<polygon fill="none" stroke="black" points="696,-412 558,-412 558,-376 696,-376 696,-412"/>
<text text-anchor="middle" x="627" y="-391.1" font-family="Courier,monospace" font-size="11.00">LevelWalkerNavMenu</text>
</a>
</g>
<!-- \\LevelWalkerNavMenu&#45;&gt;\\Walker_Nav_Menu -->
<g id="edge19" class="edge"><title>\\LevelWalkerNavMenu&#45;&gt;\\Walker_Nav_Menu</title>
<path fill="none" stroke="black" d="M557.755,-392.46C538.114,-388.704 518.227,-381.218 504,-367 398.739,-261.806 537.862,-144.59 432,-40 429.38,-37.4118 426.541,-35.0908 423.53,-33.0115"/>
<polygon fill="none" stroke="black" points="425.026,-29.8307 414.634,-27.7696 421.473,-35.8617 425.026,-29.8307"/>
</g>
<!-- \\ShowItemExcerptWalkerNavMenu -->
<g id="node32" class="node"><title>\\ShowItemExcerptWalkerNavMenu</title>
<a xlink:href="classes.ShowItemExcerptWalkerNavMenu.class.html" xlink:title="ShowItemExcerptWalkerNavMenu" target="_parent">
<polygon fill="none" stroke="black" points="730,-88 524,-88 524,-52 730,-52 730,-88"/>
<text text-anchor="middle" x="627" y="-67.1" font-family="Courier,monospace" font-size="11.00">ShowItemExcerptWalkerNavMenu</text>
</a>
</g>
<!-- \\ShowItemExcerptWalkerNavMenu&#45;&gt;\\Walker_Nav_Menu -->
<g id="edge21" class="edge"><title>\\ShowItemExcerptWalkerNavMenu&#45;&gt;\\Walker_Nav_Menu</title>
<path fill="none" stroke="black" d="M523.834,-52.1773C486.97,-45.8087 445.887,-38.7113 410.753,-32.6418"/>
<polygon fill="none" stroke="black" points="410.983,-29.1296 400.533,-30.8761 409.791,-36.0275 410.983,-29.1296"/>
</g>
<!-- \\GalleryHelper&#45;&gt;\\FeatureWithAssets -->
<g id="edge23" class="edge"><title>\\GalleryHelper&#45;&gt;\\FeatureWithAssets</title>
<path fill="none" stroke="black" d="M273.356,-1258C239.677,-1258 195.439,-1258 157.982,-1258"/>
<polygon fill="none" stroke="black" points="157.611,-1254.5 147.611,-1258 157.611,-1261.5 157.611,-1254.5"/>
</g>
<!-- \\HeadHelper -->
<g id="node34" class="node"><title>\\HeadHelper</title>
<a xlink:href="classes.HeadHelper.class.html" xlink:title="HeadHelper" target="_parent">
<polygon fill="none" stroke="black" points="669,-304 585,-304 585,-268 669,-268 669,-304"/>
<text text-anchor="middle" x="627" y="-283.1" font-family="Courier,monospace" font-size="11.00">HeadHelper</text>
</a>
</g>
<!-- \\HtmlHelper -->
<g id="node35" class="node"><title>\\HtmlHelper</title>
<a xlink:href="classes.HtmlHelper.class.html" xlink:title="HtmlHelper" target="_parent">
<polygon fill="none" stroke="black" points="669,-682 585,-682 585,-646 669,-646 669,-682"/>
<text text-anchor="middle" x="627" y="-661.1" font-family="Courier,monospace" font-size="11.00">HtmlHelper</text>
</a>
</g>
<!-- \\HtmlBuilder -->
<g id="node36" class="node"><title>\\HtmlBuilder</title>
<a xlink:href="classes.HtmlHelper.class.html" xlink:title="HtmlBuilder" target="_parent">
<polygon fill="none" stroke="black" points="371,-682 281,-682 281,-646 371,-646 371,-682"/>
<text text-anchor="middle" x="326" y="-661.1" font-family="Courier,monospace" font-size="11.00">HtmlBuilder</text>
</a>
</g>
<!-- \\HtmlHelper&#45;&gt;\\HtmlBuilder -->
<g id="edge25" class="edge"><title>\\HtmlHelper&#45;&gt;\\HtmlBuilder</title>
<path fill="none" stroke="black" d="M584.83,-664C531.791,-664 440.565,-664 381.794,-664"/>
<polygon fill="none" stroke="black" points="381.575,-660.5 371.575,-664 381.575,-667.5 381.575,-660.5"/>
</g>
<!-- \\LoremIpsumDictionary -->
<g id="node37" class="node"><title>\\LoremIpsumDictionary</title>
<a xlink:href="classes.LoremIpsumDictionary.class.html" xlink:title="LoremIpsumDictionary" target="_parent">
<polygon fill="none" stroke="black" points="703,-574 551,-574 551,-538 703,-538 703,-574"/>
<text text-anchor="middle" x="627" y="-553.1" font-family="Courier,monospace" font-size="11.00">LoremIpsumDictionary</text>
</a>
</g>
<!-- \\LoremIpsumDictionary&#45;&gt;\\GeneratorDictionary -->
<g id="edge27" class="edge"><title>\\LoremIpsumDictionary&#45;&gt;\\GeneratorDictionary</title>
<path fill="none" stroke="black" d="M550.656,-556C507.352,-556 453.128,-556 408.801,-556"/>
<polygon fill="none" stroke="black" points="408.633,-552.5 398.633,-556 408.633,-559.5 408.633,-552.5"/>
</g>
<!-- \\ImageGenerator -->
<g id="node38" class="node"><title>\\ImageGenerator</title>
<a xlink:href="classes.ImageGenerator.class.html" xlink:title="ImageGenerator" target="_parent">
<polygon fill="none" stroke="black" points="682,-142 572,-142 572,-106 682,-106 682,-142"/>
<text text-anchor="middle" x="627" y="-121.1" font-family="Courier,monospace" font-size="11.00">ImageGenerator</text>
</a>
</g>
<!-- \\PhotogalleryThumbWithFancybox -->
<g id="node39" class="node"><title>\\PhotogalleryThumbWithFancybox</title>
<a xlink:href="classes.PhotogalleryThumbWithFancybox.class.html" xlink:title="PhotogalleryThumbWithFancybox" target="_parent">
<polygon fill="none" stroke="black" points="733,-1276 521,-1276 521,-1240 733,-1240 733,-1276"/>
<text text-anchor="middle" x="627" y="-1255.1" font-family="Courier,monospace" font-size="11.00">PhotogalleryThumbWithFancybox</text>
</a>
</g>
<!-- \\PhotogalleryThumbWithFancybox&#45;&gt;\\GalleryHelper -->
<g id="edge29" class="edge"><title>\\PhotogalleryThumbWithFancybox&#45;&gt;\\GalleryHelper</title>
<path fill="none" stroke="black" d="M520.879,-1258C476.786,-1258 427.112,-1258 388.951,-1258"/>
<polygon fill="none" stroke="black" points="388.507,-1254.5 378.507,-1258 388.507,-1261.5 388.507,-1254.5"/>
</g>
</g>
</svg>
